SplineFontDB: 3.2
FontName: RobotoSlab-Share-BoldItalic
FullName: Roboto Slab Share BoldItalic
FamilyName: Roboto Slab Share
Weight: Bold
Copyright: Copyright 2018 The Roboto Slab Project Authors (https://github.com/googlefonts/robotoslab)\n"Fair and Share" tax glyphs by Vector Hasting under CC 4.0 SA-BY
Version: 2.002
ItalicAngle: 0
UnderlinePosition: -200
UnderlineWidth: 100
Ascent: 1638
Descent: 410
InvalidEm: 0
sfntRevision: 0x00020083
LayerCount: 2
Layer: 0 1 "Back" 1
Layer: 1 1 "Fore" 0
XUID: [1021 508 542950195 2741]
StyleMap: 0x0020
FSType: 0
OS2Version: 4
OS2_WeightWidthSlopeOnly: 0
OS2_UseTypoMetrics: 1
CreationTime: 1533152473
ModificationTime: 1758753796
PfmFamily: 81
TTFWeight: 700
TTFWidth: 5
LineGap: 0
VLineGap: 0
Panose: 0 0 0 0 0 0 0 0 0 0
OS2TypoAscent: 2146
OS2TypoAOffset: 0
OS2TypoDescent: -555
OS2TypoDOffset: 0
OS2TypoLinegap: 0
OS2WinAscent: 2146
OS2WinAOffset: 0
OS2WinDescent: 618
OS2WinDOffset: 0
HheadAscent: 2146
HheadAOffset: 0
HheadDescent: -555
HheadDOffset: 0
OS2SubXSize: 1331
OS2SubYSize: 1229
OS2SubXOff: 0
OS2SubYOff: 154
OS2SupXSize: 1331
OS2SupYSize: 1229
OS2SupXOff: 0
OS2SupYOff: 717
OS2StrikeYSize: 100
OS2StrikeYPos: 649
OS2CapHeight: 1456
OS2XHeight: 1082
OS2Vendor: 'GOOG'
OS2CodePages: 2000019f.00000000
OS2UnicodeRanges: 000000ff.0000005b.00000020.00000000
Lookup: 1 0 0 "'aalt' Access All Alternates in Latin lookup 0" { "'aalt' Access All Alternates in Latin lookup 0 subtable"  } ['aalt' ('DFLT' <'dflt' > 'latn' <'CAT ' 'MOL ' 'ROM ' 'dflt' > ) ]
Lookup: 3 0 0 "'aalt' Access All Alternates in Latin lookup 1" { "'aalt' Access All Alternates in Latin lookup 1 subtable"  } ['aalt' ('DFLT' <'dflt' > 'latn' <'CAT ' 'MOL ' 'ROM ' 'dflt' > ) ]
Lookup: 4 0 0 "'ccmp' Glyph Composition/Decomposition in Latin lookup 2" { "'ccmp' Glyph Composition/Decomposition in Latin lookup 2 subtable"  } ['ccmp' ('DFLT' <'dflt' > 'latn' <'CAT ' 'MOL ' 'ROM ' 'dflt' > ) ]

StartChar: .notdef
Encoding: 65536 -1 0
Width: 1038
GlyphClass: 1
Flags: W
LayerCount: 2
Fore
SplineSet
100 0 m 1,0,-1
 357 1456 l 1,1,-1
 1195 1456 l 1,2,-1
 938 0 l 1,3,-1
 100 0 l 1,0,-1
124 20 m 1,4,-1
 184 20 l 1,5,-1
 1171 1436 l 1,6,-1
 1111 1436 l 1,7,-1
 124 20 l 1,4,-1
862 20 m 1,8,-1
 922 20 l 1,9,-1
 433 1436 l 1,10,-1
 373 1436 l 1,11,-1
 862 20 l 1,8,-1
164 54 m 1,12,-1
 894 54 l 1,13,-1
 1131 1402 l 1,14,-1
 401 1402 l 1,15,-1
 164 54 l 1,12,-1
EndSplineSet
EndChar

StartChar: A
Encoding: 65 65 1
Width: 1512
GlyphClass: 2
Flags: W
AnchorPoint: "Anchor-3" 1471 0 basechar 0
AnchorPoint: "Anchor-2" 757 0 basechar 0
AnchorPoint: "Anchor-0" 999 1364 basechar 0
LayerCount: 2
Fore
SplineSet
41 0 m 1,0,-1
 72 175 l 1,1,-1
 179 190 l 1,2,-1
 865 1456 l 1,3,-1
 1164 1456 l 1,4,-1
 1401 190 l 1,5,-1
 1502 175 l 1,6,-1
 1471 0 l 1,7,-1
 975 0 l 1,8,-1
 1006 175 l 1,9,-1
 1110 193 l 1,10,-1
 1081 393 l 1,11,-1
 569 393 l 1,12,-1
 470 193 l 1,13,-1
 568 175 l 1,14,-1
 537 0 l 1,15,-1
 41 0 l 1,0,-1
676 608 m 1,16,-1
 1050 608 l 1,17,-1
 968 1107 l 1,18,-1
 962 1151 l 1,19,-1
 956 1151 l 1,20,-1
 933 1104 l 1,21,-1
 676 608 l 1,16,-1
EndSplineSet
Substitution2: "'c2sc' Capitals to Small Capitals in Latin lookup 19 subtable" a.sc
Substitution2: "Single Substitution lookup 17 subtable" ordfeminine
AlternateSubs2: "'aalt' Access All Alternates in Latin lookup 1 subtable" a.sc ordfeminine
EndChar

StartChar: AE
Encoding: 198 198 25
Width: 2092
GlyphClass: 2
Flags: W
AnchorPoint: "Anchor-2" 1086 0 basechar 0
AnchorPoint: "Anchor-0" 1393 1364 basechar 0
LayerCount: 2
Fore
SplineSet
66 0 m 1,0,-1
 97 175 l 1,1,-1
 239 195 l 1,2,-1
 1162 1456 l 1,3,-1
 2198 1456 l 1,4,-1
 2133 1087 l 1,5,-1
 1909 1087 l 1,6,-1
 1922 1228 l 1,7,-1
 1543 1228 l 1,8,-1
 1494 862 l 1,9,-1
 2010 862 l 1,10,-1
 1970 635 l 1,11,-1
 1463 635 l 1,12,-1
 1409 227 l 1,13,-1
 1807 227 l 1,14,-1
 1845 368 l 1,15,-1
 2068 368 l 1,16,-1
 2003 0 l 1,17,-1
 928 0 l 1,18,-1
 959 175 l 1,19,-1
 1114 203 l 1,20,-1
 1134 354 l 1,21,-1
 686 354 l 1,22,-1
 570 189 l 1,23,-1
 654 175 l 1,24,-1
 623 0 l 1,25,-1
 66 0 l 1,0,-1
843 582 m 1,26,-1
 1165 582 l 1,27,-1
 1238 1136 l 1,28,-1
 1233 1137 l 1,29,-1
 1220 1116 l 1,30,-1
 843 582 l 1,26,-1
EndSplineSet
Substitution2: "'c2sc' Capitals to Small Capitals in Latin lookup 19 subtable" ae.sc
Substitution2: "'aalt' Access All Alternates in Latin lookup 0 subtable" ae.sc
EndChar

StartChar: B
Encoding: 66 66 27
Width: 1344
GlyphClass: 2
Flags: W
AnchorPoint: "Anchor-2" 677 0 basechar 0
AnchorPoint: "Anchor-0" 918 1364 basechar 0
LayerCount: 2
Fore
SplineSet
56 0 m 1,0,-1
 87 175 l 1,1,-1
 247 205 l 1,2,-1
 431 1250 l 1,3,-1
 282 1280 l 1,4,-1
 313 1456 l 1,5,-1
 468 1456 l 1,6,-1
 960 1456 l 2,7,8
 1217 1456 1217 1456 1343 1356 c 0,9,10
 1442 1278 1442 1278 1442 1139 c 0,11,12
 1442 1100 1442 1100 1434 1057 c 0,13,14
 1416 956 1416 956 1349 876.5 c 128,-1,15
 1282 797 1282 797 1172 757 c 1,16,17
 1256 738 1256 738 1306 690 c 128,-1,18
 1356 642 1356 642 1373 574 c 0,19,20
 1382 536 1382 536 1382 495 c 0,21,22
 1382 461 1382 461 1376 424 c 0,23,24
 1339 215 1339 215 1182 107.5 c 128,-1,25
 1025 0 1025 0 772 0 c 2,26,-1
 56 0 l 1,0,-1
542 224 m 1,27,-1
 811 224 l 2,28,29
 927 224 927 224 997 274.5 c 128,-1,30
 1067 325 1067 325 1085 424 c 0,31,32
 1091 457 1091 457 1091 486 c 0,33,34
 1091 550 1091 550 1062 588 c 0,35,36
 1020 644 1020 644 908 644 c 2,37,-1
 617 644 l 1,38,-1
 542 224 l 1,27,-1
652 846 m 1,39,-1
 862 846 l 2,40,41
 979 846 979 846 1050.5 894 c 128,-1,42
 1122 942 1122 942 1138 1034 c 0,43,44
 1142 1059 1142 1059 1142 1081 c 0,45,46
 1142 1147 1142 1147 1101 1183 c 0,47,48
 1046 1231 1046 1231 920 1231 c 2,49,-1
 720 1231 l 1,50,-1
 652 846 l 1,39,-1
EndSplineSet
Substitution2: "'c2sc' Capitals to Small Capitals in Latin lookup 19 subtable" b.sc
Substitution2: "'aalt' Access All Alternates in Latin lookup 0 subtable" b.sc
EndChar

StartChar: C
Encoding: 67 67 28
Width: 1321
GlyphClass: 2
Flags: W
AnchorPoint: "Anchor-2" 719 0 basechar 0
AnchorPoint: "Anchor-0" 960 1364 basechar 0
LayerCount: 2
Fore
SplineSet
745 -21 m 0,0,1
 533 -21 533 -21 392 67.5 c 128,-1,2
 251 156 251 156 194 318 c 0,3,4
 160 414 160 414 160 532 c 0,5,6
 160 612 160 612 176 703 c 2,7,-1
 185 752 l 2,8,9
 222 964 222 964 333.5 1127.5 c 128,-1,10
 445 1291 445 1291 614 1384 c 128,-1,11
 783 1477 783 1477 994 1477 c 0,12,13
 1142 1477 1142 1477 1264.5 1435 c 128,-1,14
 1387 1393 1387 1393 1473 1307 c 1,15,-1
 1411 955 l 1,16,-1
 1194 955 l 1,17,-1
 1203 1176 l 1,18,19
 1174 1200 1174 1200 1138.5 1217 c 128,-1,20
 1103 1234 1103 1234 1059 1243 c 128,-1,21
 1015 1252 1015 1252 962 1252 c 0,22,23
 838 1252 838 1252 738 1191 c 128,-1,24
 638 1130 638 1130 571 1018.5 c 128,-1,25
 504 907 504 907 477 754 c 2,26,-1
 468 703 l 2,27,28
 455 631 455 631 455 567 c 0,29,30
 455 497 455 497 471 438 c 0,31,32
 501 326 501 326 582.5 264.5 c 128,-1,33
 664 203 664 203 790 203 c 0,34,35
 853 203 853 203 919 217.5 c 128,-1,36
 985 232 985 232 1041 255 c 1,37,-1
 1107 460 l 1,38,-1
 1324 460 l 1,39,-1
 1263 112 l 1,40,41
 1168 56 1168 56 1034 17.5 c 128,-1,42
 900 -21 900 -21 745 -21 c 0,0,1
EndSplineSet
Substitution2: "'ss04' Style Set 4 in Latin lookup 26 subtable" C.ss04
Substitution2: "'ss03' Style Set 3 in Latin lookup 25 subtable" C.ss03
Substitution2: "'c2sc' Capitals to Small Capitals in Latin lookup 19 subtable" c.sc
AlternateSubs2: "'aalt' Access All Alternates in Latin lookup 1 subtable" C.ss03 C.ss04 c.sc
EndChar

StartChar: D
Encoding: 68 68 34
Width: 1426
GlyphClass: 2
Flags: W
AnchorPoint: "Anchor-4" 505 738 basechar 0
AnchorPoint: "Anchor-2" 687 0 basechar 0
AnchorPoint: "Anchor-0" 928 1364 basechar 0
LayerCount: 2
Fore
SplineSet
56 0 m 1,0,-1
 87 175 l 1,1,-1
 250 208 l 1,2,-1
 433 1246 l 1,3,-1
 282 1280 l 1,4,-1
 313 1456 l 1,5,-1
 470 1456 l 1,6,-1
 952 1456 l 2,7,8
 1147 1456 1147 1456 1279.5 1364.5 c 0,9,10
 1412 1274 1412 1274 1468 1112 c 0,11,12
 1501 1015 1501 1015 1501 901 c 0,13,14
 1501 825 1501 825 1486 741 c 2,15,-1
 1481 714 l 2,16,17
 1445 507 1445 507 1333.5 345.5 c 128,-1,18
 1222 184 1222 184 1058 92 c 128,-1,19
 894 0 894 0 699 0 c 2,20,-1
 56 0 l 1,0,-1
544 223 m 1,21,-1
 723 223 l 2,22,23
 844 223 844 223 939.5 286.5 c 128,-1,24
 1035 350 1035 350 1099 461 c 128,-1,25
 1163 572 1163 572 1188 714 c 2,26,-1
 1193 742 l 2,27,28
 1205 814 1205 814 1205.5 877.5 c 0,29,30
 1206 940 1206 940 1193 996 c 0,31,32
 1168 1106 1168 1106 1095 1169 c 128,-1,33
 1022 1232 1022 1232 901 1232 c 2,34,-1
 722 1232 l 1,35,-1
 544 223 l 1,21,-1
EndSplineSet
Substitution2: "'ss05' Style Set 5 in Latin lookup 27 subtable" D.ss05
Substitution2: "'c2sc' Capitals to Small Capitals in Latin lookup 19 subtable" d.sc
AlternateSubs2: "'aalt' Access All Alternates in Latin lookup 1 subtable" D.ss05 d.sc
EndChar

StartChar: E
Encoding: 69 69 38
Width: 1308
GlyphClass: 2
Flags: W
AnchorPoint: "Anchor-3" 1208 0 basechar 0
AnchorPoint: "Anchor-2" 654 0 basechar 0
AnchorPoint: "Anchor-0" 895 1364 basechar 0
LayerCount: 2
Fore
SplineSet
56 0 m 1,0,-1
 87 175 l 1,1,-1
 247 205 l 1,2,-1
 431 1250 l 1,3,-1
 282 1280 l 1,4,-1
 313 1456 l 1,5,-1
 1443 1456 l 1,6,-1
 1373 1063 l 1,7,-1
 1149 1063 l 1,8,-1
 1166 1231 l 1,9,-1
 720 1231 l 1,10,-1
 656 865 l 1,11,-1
 1149 865 l 1,12,-1
 1109 640 l 1,13,-1
 616 640 l 1,14,-1
 542 224 l 1,15,-1
 1012 224 l 1,16,-1
 1056 398 l 1,17,-1
 1278 398 l 1,18,-1
 1208 0 l 1,19,-1
 56 0 l 1,0,-1
EndSplineSet
Substitution2: "'c2sc' Capitals to Small Capitals in Latin lookup 19 subtable" e.sc
Substitution2: "'aalt' Access All Alternates in Latin lookup 0 subtable" e.sc
EndChar

StartChar: uni018F
Encoding: 399 399 56
Width: 1400
GlyphClass: 2
Flags: W
AnchorPoint: "Anchor-2" 695 0 basechar 0
AnchorPoint: "Anchor-0" 926 1364 basechar 0
LayerCount: 2
Fore
SplineSet
695 -21 m 0,0,1
 492 -21 492 -21 365.5 61 c 0,2,3
 240 144 240 144 194 296 c 0,4,5
 169 380 169 380 168 482 c 0,6,7
 168 565 168 565 185 660 c 2,8,-1
 212 810 l 1,9,-1
 1160 810 l 1,10,-1
 1167 834 l 1,11,12
 1177 887 1177 887 1177 934 c 0,13,14
 1176 990 1176 990 1162 1040 c 0,15,16
 1136 1130 1136 1130 1055 1182.5 c 128,-1,17
 974 1235 974 1235 832 1235 c 0,18,19
 713 1235 713 1235 615.5 1215.5 c 128,-1,20
 518 1196 518 1196 436 1169 c 1,21,-1
 427 1394 l 1,22,23
 487 1422 487 1422 603 1449.5 c 128,-1,24
 719 1477 719 1477 874 1477 c 0,25,26
 1099 1477 1099 1477 1241.5 1393.5 c 128,-1,27
 1384 1310 1384 1310 1439 1160 c 0,28,29
 1472 1069 1472 1069 1472 959 c 0,30,31
 1472 887 1472 887 1458 807 c 2,32,-1
 1430 645 l 2,33,34
 1396 450 1396 450 1287.5 300 c 128,-1,35
 1179 150 1179 150 1024.5 64.5 c 128,-1,36
 870 -21 870 -21 695 -21 c 0,0,1
738 220 m 0,37,38
 834 220 834 220 911 267 c 128,-1,39
 988 314 988 314 1041.5 396 c 128,-1,40
 1095 478 1095 478 1120 585 c 1,41,-1
 1119 590 l 1,42,-1
 465 590 l 1,43,-1
 460 559 l 2,44,45
 452 513 452 513 452 472 c 0,46,47
 452 422 452 422 464 380 c 0,48,49
 486 304 486 304 553 262 c 128,-1,50
 620 220 620 220 738 220 c 0,37,38
EndSplineSet
EndChar

StartChar: F
Encoding: 70 70 57
Width: 1265
GlyphClass: 2
Flags: W
AnchorPoint: "Anchor-4" 457 407 basechar 0
AnchorPoint: "Anchor-2" 633 0 basechar 0
AnchorPoint: "Anchor-0" 874 1364 basechar 0
LayerCount: 2
Fore
SplineSet
56 0 m 1,0,-1
 87 175 l 1,1,-1
 247 205 l 1,2,-1
 431 1250 l 1,3,-1
 282 1280 l 1,4,-1
 313 1456 l 1,5,-1
 1472 1456 l 1,6,-1
 1401 1057 l 1,7,-1
 1177 1057 l 1,8,-1
 1195 1231 l 1,9,-1
 720 1231 l 1,10,-1
 649 830 l 1,11,-1
 1159 830 l 1,12,-1
 1120 605 l 1,13,-1
 610 605 l 1,14,-1
 539 205 l 1,15,-1
 690 175 l 1,16,-1
 659 0 l 1,17,-1
 56 0 l 1,0,-1
EndSplineSet
Substitution2: "'c2sc' Capitals to Small Capitals in Latin lookup 19 subtable" f.sc
Substitution2: "'aalt' Access All Alternates in Latin lookup 0 subtable" f.sc
EndChar

StartChar: G
Encoding: 71 71 58
Width: 1373
GlyphClass: 2
Flags: W
AnchorPoint: "Anchor-2" 687 0 basechar 0
AnchorPoint: "Anchor-0" 928 1364 basechar 0
LayerCount: 2
Fore
SplineSet
729 -21 m 0,0,1
 512 -21 512 -21 375 69 c 128,-1,2
 238 159 238 159 184 319 c 0,3,4
 153 413 153 413 153 524 c 0,5,6
 153 603 153 603 169 690 c 2,7,-1
 177 740 l 2,8,9
 215 958 215 958 325.5 1124 c 128,-1,10
 436 1290 436 1290 601 1383.5 c 128,-1,11
 766 1477 766 1477 969 1477 c 0,12,13
 1126 1477 1126 1477 1256.5 1434 c 128,-1,14
 1387 1391 1387 1391 1474 1305 c 1,15,-1
 1417 982 l 1,16,-1
 1201 982 l 1,17,-1
 1195 1177 l 1,18,19
 1162 1211 1162 1211 1099.5 1231.5 c 128,-1,20
 1037 1252 1037 1252 952 1252 c 0,21,22
 830 1252 830 1252 730 1187.5 c 128,-1,23
 630 1123 630 1123 563 1008.5 c 128,-1,24
 496 894 496 894 469 742 c 2,25,-1
 460 690 l 2,26,27
 447 617 447 617 447 554 c 0,28,29
 447 488 447 488 461 432 c 0,30,31
 488 322 488 322 567.5 262.5 c 128,-1,32
 647 203 647 203 778 203 c 0,33,34
 855 203 855 203 922 217.5 c 128,-1,35
 989 232 989 232 1035 253 c 1,36,-1
 1078 500 l 1,37,-1
 873 516 l 1,38,-1
 909 721 l 1,39,-1
 1410 721 l 1,40,-1
 1306 132 l 1,41,42
 1197 63 1197 63 1053 21 c 128,-1,43
 909 -21 909 -21 729 -21 c 0,0,1
EndSplineSet
Substitution2: "'ss04' Style Set 4 in Latin lookup 26 subtable" G.ss04
Substitution2: "'ss03' Style Set 3 in Latin lookup 25 subtable" G.ss03
Substitution2: "'c2sc' Capitals to Small Capitals in Latin lookup 19 subtable" g.sc
AlternateSubs2: "'aalt' Access All Alternates in Latin lookup 1 subtable" G.ss03 G.ss04 g.sc
EndChar

StartChar: H
Encoding: 72 72 63
Width: 1600
GlyphClass: 2
Flags: W
AnchorPoint: "Anchor-4" 981 1035 basechar 0
AnchorPoint: "Anchor-2" 800 0 basechar 0
AnchorPoint: "Anchor-0" 1041 1364 basechar 0
LayerCount: 2
Fore
SplineSet
56 0 m 1,0,-1
 87 175 l 1,1,-1
 247 205 l 1,2,-1
 431 1250 l 1,3,-1
 282 1280 l 1,4,-1
 313 1456 l 1,5,-1
 916 1456 l 1,6,-1
 885 1280 l 1,7,-1
 723 1250 l 1,8,-1
 649 830 l 1,9,-1
 1243 830 l 1,10,-1
 1317 1250 l 1,11,-1
 1167 1280 l 1,12,-1
 1198 1456 l 1,13,-1
 1354 1456 l 1,14,-1
 1645 1456 l 1,15,-1
 1801 1456 l 1,16,-1
 1770 1280 l 1,17,-1
 1608 1250 l 1,18,-1
 1424 205 l 1,19,-1
 1575 175 l 1,20,-1
 1544 0 l 1,21,-1
 941 0 l 1,22,-1
 972 175 l 1,23,-1
 1133 205 l 1,24,-1
 1204 605 l 1,25,-1
 610 605 l 1,26,-1
 539 205 l 1,27,-1
 690 175 l 1,28,-1
 659 0 l 1,29,-1
 56 0 l 1,0,-1
EndSplineSet
Substitution2: "'c2sc' Capitals to Small Capitals in Latin lookup 19 subtable" h.sc
Substitution2: "'aalt' Access All Alternates in Latin lookup 0 subtable" h.sc
EndChar

StartChar: I
Encoding: 73 73 66
Width: 714
GlyphClass: 2
Flags: W
AnchorPoint: "Anchor-3" 658 0 basechar 0
AnchorPoint: "Anchor-2" 357 0 basechar 0
AnchorPoint: "Anchor-0" 598 1364 basechar 0
LayerCount: 2
Fore
SplineSet
56 0 m 1,0,-1
 87 175 l 1,1,-1
 247 205 l 1,2,-1
 431 1250 l 1,3,-1
 282 1280 l 1,4,-1
 313 1456 l 1,5,-1
 915 1456 l 1,6,-1
 884 1280 l 1,7,-1
 723 1250 l 1,8,-1
 539 205 l 1,9,-1
 689 175 l 1,10,-1
 658 0 l 1,11,-1
 56 0 l 1,0,-1
EndSplineSet
Substitution2: "'c2sc' Capitals to Small Capitals in Latin lookup 19 subtable" i.sc
Substitution2: "'aalt' Access All Alternates in Latin lookup 0 subtable" i.sc
EndChar

StartChar: J
Encoding: 74 74 79
Width: 1202
GlyphClass: 2
Flags: W
AnchorPoint: "Anchor-2" 601 0 basechar 0
AnchorPoint: "Anchor-0" 1109 1364 basechar 0
LayerCount: 2
Fore
SplineSet
549 -21 m 0,0,1
 397 -21 397 -21 291.5 30.5 c 128,-1,2
 186 82 186 82 140 188 c 0,3,4
 109 259 109 259 108 355 c 0,5,6
 108 403 108 403 116 457 c 1,7,-1
 119 463 l 1,8,-1
 393 463 l 1,9,10
 388 424 388 424 388 392 c 0,11,12
 388 306 388 306 422 264 c 0,13,14
 468 208 468 208 560 207 c 0,15,16
 620 207 620 207 670.5 233 c 128,-1,17
 721 259 721 259 756.5 310.5 c 128,-1,18
 792 362 792 362 805 437 c 2,19,-1
 948 1250 l 1,20,-1
 758 1280 l 1,21,-1
 789 1456 l 1,22,-1
 1432 1456 l 1,23,-1
 1401 1280 l 1,24,-1
 1239 1250 l 1,25,-1
 1096 437 l 2,26,27
 1071 297 1071 297 999 194 c 128,-1,28
 927 91 927 91 813 35 c 128,-1,29
 699 -21 699 -21 549 -21 c 0,0,1
EndSplineSet
Substitution2: "'c2sc' Capitals to Small Capitals in Latin lookup 19 subtable" j.sc
Substitution2: "'aalt' Access All Alternates in Latin lookup 0 subtable" j.sc
EndChar

StartChar: K
Encoding: 75 75 81
Width: 1545
GlyphClass: 2
Flags: W
AnchorPoint: "Anchor-2" 771 0 basechar 0
AnchorPoint: "Anchor-0" 1012 1364 basechar 0
LayerCount: 2
Fore
SplineSet
505 357 m 1,0,-1
 384 530 l 1,1,-1
 1227 1265 l 1,2,-1
 1230 1268 l 1,3,-1
 1088 1280 l 1,4,-1
 1119 1456 l 1,5,-1
 1718 1456 l 1,6,-1
 1687 1280 l 1,7,-1
 1545 1253 l 1,8,-1
 505 357 l 1,0,-1
56 0 m 1,9,-1
 87 175 l 1,10,-1
 247 205 l 1,11,-1
 431 1250 l 1,12,-1
 282 1280 l 1,13,-1
 313 1456 l 1,14,-1
 908 1456 l 1,15,-1
 877 1280 l 1,16,-1
 723 1250 l 1,17,-1
 539 205 l 1,18,-1
 682 175 l 1,19,-1
 651 0 l 1,20,-1
 56 0 l 1,9,-1
894 0 m 1,21,-1
 925 175 l 1,22,-1
 1063 187 l 1,23,-1
 1064 187 l 1,24,-1
 784 697 l 1,25,-1
 1011 890 l 1,26,-1
 1405 200 l 1,27,-1
 1544 175 l 1,28,-1
 1513 0 l 1,29,-1
 894 0 l 1,21,-1
EndSplineSet
Substitution2: "'ss05' Style Set 5 in Latin lookup 27 subtable" K.ss05
Substitution2: "'c2sc' Capitals to Small Capitals in Latin lookup 19 subtable" k.sc
AlternateSubs2: "'aalt' Access All Alternates in Latin lookup 1 subtable" K.ss05 k.sc
EndChar

StartChar: L
Encoding: 76 76 83
Width: 1200
GlyphClass: 2
Flags: W
AnchorPoint: "Anchor-4" 528 762 basechar 0
AnchorPoint: "Anchor-2" 600 0 basechar 0
AnchorPoint: "Anchor-1" 1276 1456 basechar 0
AnchorPoint: "Anchor-0" 613 1364 basechar 0
LayerCount: 2
Fore
SplineSet
56 0 m 1,0,-1
 87 175 l 1,1,-1
 247 205 l 1,2,-1
 431 1250 l 1,3,-1
 282 1280 l 1,4,-1
 313 1456 l 1,5,-1
 468 1456 l 1,6,-1
 760 1456 l 1,7,-1
 936 1456 l 1,8,-1
 905 1280 l 1,9,-1
 723 1250 l 1,10,-1
 542 224 l 1,11,-1
 953 224 l 1,12,-1
 1005 437 l 1,13,-1
 1228 437 l 1,14,-1
 1151 0 l 1,15,-1
 56 0 l 1,0,-1
EndSplineSet
Substitution2: "'c2sc' Capitals to Small Capitals in Latin lookup 19 subtable" l.sc
Substitution2: "'aalt' Access All Alternates in Latin lookup 0 subtable" l.sc
EndChar

StartChar: M
Encoding: 77 77 89
Width: 2066
GlyphClass: 2
Flags: W
AnchorPoint: "Anchor-2" 1033 0 basechar 0
AnchorPoint: "Anchor-0" 1274 1364 basechar 0
LayerCount: 2
Fore
SplineSet
56 0 m 1,0,-1
 87 175 l 1,1,-1
 247 205 l 1,2,-1
 431 1250 l 1,3,-1
 282 1280 l 1,4,-1
 313 1456 l 1,5,-1
 468 1456 l 1,6,-1
 900 1456 l 1,7,-1
 1118 441 l 1,8,-1
 1124 441 l 1,9,-1
 1687 1456 l 1,10,-1
 2275 1456 l 1,11,-1
 2244 1280 l 1,12,-1
 2082 1250 l 1,13,-1
 1898 205 l 1,14,-1
 2049 175 l 1,15,-1
 2018 0 l 1,16,-1
 1415 0 l 1,17,-1
 1446 175 l 1,18,-1
 1614 205 l 1,19,-1
 1663 484 l 1,20,-1
 1784 1141 l 1,21,-1
 1778 1142 l 1,22,-1
 1146 20 l 1,23,-1
 925 20 l 1,24,-1
 676 1133 l 1,25,-1
 670 1132 l 1,26,-1
 578 514 l 1,27,-1
 523 205 l 1,28,-1
 690 175 l 1,29,-1
 659 0 l 1,30,-1
 56 0 l 1,0,-1
EndSplineSet
Substitution2: "'c2sc' Capitals to Small Capitals in Latin lookup 19 subtable" m.sc
Substitution2: "'aalt' Access All Alternates in Latin lookup 0 subtable" m.sc
EndChar

StartChar: N
Encoding: 78 78 91
Width: 1604
GlyphClass: 2
Flags: W
AnchorPoint: "Anchor-2" 802 0 basechar 0
AnchorPoint: "Anchor-0" 1043 1364 basechar 0
LayerCount: 2
Fore
SplineSet
56 0 m 1,0,-1
 87 175 l 1,1,-1
 247 205 l 1,2,-1
 431 1250 l 1,3,-1
 282 1280 l 1,4,-1
 313 1456 l 1,5,-1
 468 1456 l 1,6,-1
 764 1456 l 1,7,-1
 1220 446 l 1,8,-1
 1226 447 l 1,9,-1
 1367 1250 l 1,10,-1
 1187 1280 l 1,11,-1
 1218 1456 l 1,12,-1
 1665 1456 l 1,13,-1
 1821 1456 l 1,14,-1
 1790 1280 l 1,15,-1
 1628 1250 l 1,16,-1
 1408 0 l 1,17,-1
 1126 0 l 1,18,-1
 654 1000 l 1,19,-1
 648 999 l 1,20,-1
 508 205 l 1,21,-1
 690 175 l 1,22,-1
 659 0 l 1,23,-1
 56 0 l 1,0,-1
EndSplineSet
Substitution2: "'c2sc' Capitals to Small Capitals in Latin lookup 19 subtable" n.sc
Substitution2: "'aalt' Access All Alternates in Latin lookup 0 subtable" n.sc
EndChar

StartChar: Eng
Encoding: 330 330 96
Width: 1584
GlyphClass: 1
Flags: W
LayerCount: 2
Fore
SplineSet
942 -437 m 0,0,1
 901 -437 901 -437 868.5 -433 c 128,-1,2
 836 -429 836 -429 801 -420 c 1,3,-1
 854 -199 l 1,4,5
 876 -205 876 -205 899.5 -208.5 c 128,-1,6
 923 -212 923 -212 947 -212 c 0,7,8
 1007 -212 1007 -212 1047 -167 c 128,-1,9
 1087 -122 1087 -122 1102 -40 c 2,10,-1
 1109 0 l 1,11,-1
 695 982 l 1,12,-1
 689 981 l 1,13,-1
 552 205 l 1,14,-1
 702 175 l 1,15,-1
 671 0 l 1,16,-1
 68 0 l 1,17,-1
 99 175 l 1,18,-1
 260 205 l 1,19,-1
 444 1250 l 1,20,-1
 294 1280 l 1,21,-1
 325 1456 l 1,22,-1
 773 1456 l 1,23,-1
 1187 475 l 1,24,-1
 1193 476 l 1,25,-1
 1329 1250 l 1,26,-1
 1180 1280 l 1,27,-1
 1211 1456 l 1,28,-1
 1813 1456 l 1,29,-1
 1782 1280 l 1,30,-1
 1621 1250 l 1,31,-1
 1394 -40 l 2,32,33
 1360 -230 1360 -230 1241 -333.5 c 128,-1,34
 1122 -437 1122 -437 942 -437 c 0,0,1
EndSplineSet
Substitution2: "'c2sc' Capitals to Small Capitals in Latin lookup 19 subtable" eng.sc
Substitution2: "'aalt' Access All Alternates in Latin lookup 0 subtable" eng.sc
EndChar

StartChar: O
Encoding: 79 79 97
Width: 1446
GlyphClass: 2
Flags: W
AnchorPoint: "Anchor-4" 851 728 basechar 0
AnchorPoint: "Anchor-3" 1016 0 basechar 0
AnchorPoint: "Anchor-2" 723 0 basechar 0
AnchorPoint: "Anchor-1" 1307 1364 basechar 0
AnchorPoint: "Anchor-0" 964 1364 basechar 0
LayerCount: 2
Fore
SplineSet
719 -21 m 0,0,1
 572 -21 572 -21 461 34 c 128,-1,2
 350 89 350 89 280 188.5 c 128,-1,3
 210 288 210 288 186 422 c 0,4,5
 175 483 175 483 176 551 c 0,6,7
 176 630 176 630 191 717 c 2,8,-1
 195 739 l 2,9,10
 223 898 223 898 294 1032.5 c 128,-1,11
 365 1167 365 1167 469.5 1267 c 128,-1,12
 574 1367 574 1367 704.5 1422 c 128,-1,13
 835 1477 835 1477 982 1477 c 0,14,15
 1130 1477 1130 1477 1242.5 1422 c 128,-1,16
 1355 1367 1355 1367 1425.5 1267 c 0,17,18
 1496 1166 1496 1166 1520 1032 c 0,19,20
 1531 971 1531 971 1530 905 c 0,21,22
 1530 826 1530 826 1515 739 c 2,23,-1
 1511 717 l 2,24,25
 1483 557 1483 557 1412 422.5 c 128,-1,26
 1341 288 1341 288 1235.5 188.5 c 128,-1,27
 1130 89 1130 89 998.5 34 c 128,-1,28
 867 -21 867 -21 719 -21 c 0,0,1
759 206 m 0,29,30
 883 206 883 206 976.5 270 c 128,-1,31
 1070 334 1070 334 1131.5 449 c 128,-1,32
 1193 564 1193 564 1220 717 c 2,33,-1
 1225 741 l 2,34,35
 1240 824 1240 824 1240 896 c 0,36,37
 1240 954 1240 954 1230 1006 c 0,38,39
 1208 1120 1208 1120 1136.5 1184.5 c 128,-1,40
 1065 1249 1065 1249 942 1249 c 0,41,42
 820 1249 820 1249 728 1185.5 c 128,-1,43
 636 1122 636 1122 575.5 1008 c 128,-1,44
 515 894 515 894 488 741 c 2,45,-1
 483 717 l 2,46,47
 468 631 468 631 468 557 c 0,48,49
 468 499 468 499 477 449 c 0,50,51
 498 334 498 334 567.5 270 c 128,-1,52
 637 206 637 206 759 206 c 0,29,30
EndSplineSet
Substitution2: "'ss04' Style Set 4 in Latin lookup 26 subtable" O.ss04
Substitution2: "'c2sc' Capitals to Small Capitals in Latin lookup 19 subtable" o.sc
Substitution2: "Single Substitution lookup 17 subtable" ordmasculine
AlternateSubs2: "'aalt' Access All Alternates in Latin lookup 1 subtable" O.ss04 o.sc ordmasculine
EndChar

StartChar: OE
Encoding: 338 338 121
Width: 2029
GlyphClass: 2
Flags: W
AnchorPoint: "Anchor-2" 993 0 basechar 0
AnchorPoint: "Anchor-0" 1275 1364 basechar 0
LayerCount: 2
Fore
SplineSet
747 -21 m 0,0,1
 591 -21 591 -21 474.5 34 c 128,-1,2
 358 89 358 89 285 188.5 c 128,-1,3
 212 288 212 288 188 422 c 0,4,5
 177 485 177 485 176 554 c 0,6,7
 176 632 176 632 191 717 c 2,8,-1
 195 739 l 2,9,10
 223 898 223 898 295 1032.5 c 128,-1,11
 367 1167 367 1167 474.5 1267 c 128,-1,12
 582 1367 582 1367 717.5 1422 c 128,-1,13
 853 1477 853 1477 1010 1477 c 0,14,15
 1093 1477 1093 1477 1176 1463.5 c 128,-1,16
 1259 1450 1259 1450 1338 1424 c 1,17,-1
 1288 1142 l 1,18,19
 1225 1193 1225 1193 1142.5 1221 c 128,-1,20
 1060 1249 1060 1249 970 1249 c 0,21,22
 835 1249 835 1249 737 1185.5 c 128,-1,23
 639 1122 639 1122 577 1008 c 128,-1,24
 515 894 515 894 488 741 c 2,25,-1
 483 717 l 2,26,27
 468 634 468 634 468 561 c 0,28,29
 468 501 468 501 478 449 c 0,30,31
 500 334 500 334 576.5 270 c 128,-1,32
 653 206 653 206 787 206 c 0,33,34
 876 206 876 206 967 232 c 128,-1,35
 1058 258 1058 258 1141 304 c 1,36,-1
 1092 31 l 1,37,38
 1004 6 1004 6 916.5 -7.5 c 128,-1,39
 829 -21 829 -21 747 -21 c 0,0,1
864 0 m 1,40,-1
 964 191 l 1,41,-1
 1153 1264 l 1,42,-1
 1121 1456 l 1,43,-1
 2182 1456 l 1,44,-1
 2111 1057 l 1,45,-1
 1887 1057 l 1,46,-1
 1905 1231 l 1,47,-1
 1439 1231 l 1,48,-1
 1375 865 l 1,49,-1
 1868 865 l 1,50,-1
 1828 640 l 1,51,-1
 1335 640 l 1,52,-1
 1261 224 l 1,53,-1
 1731 224 l 1,54,-1
 1775 398 l 1,55,-1
 1997 398 l 1,56,-1
 1927 0 l 1,57,-1
 864 0 l 1,40,-1
EndSplineSet
Substitution2: "'ss05' Style Set 5 in Latin lookup 27 subtable" OE.ss05
Substitution2: "'c2sc' Capitals to Small Capitals in Latin lookup 19 subtable" oe.sc
AlternateSubs2: "'aalt' Access All Alternates in Latin lookup 1 subtable" OE.ss05 oe.sc
EndChar

StartChar: P
Encoding: 80 80 122
Width: 1325
GlyphClass: 2
Flags: W
AnchorPoint: "Anchor-2" 479 0 basechar 0
AnchorPoint: "Anchor-0" 904 1364 basechar 0
LayerCount: 2
Fore
SplineSet
56 0 m 1,0,-1
 87 175 l 1,1,-1
 247 205 l 1,2,-1
 431 1250 l 1,3,-1
 282 1280 l 1,4,-1
 313 1456 l 1,5,-1
 468 1456 l 1,6,-1
 1006 1456 l 2,7,8
 1173 1456 1173 1456 1283.5 1397.5 c 0,9,10
 1394 1338 1394 1338 1440 1234 c 0,11,12
 1471 1165 1471 1165 1471 1082 c 0,13,14
 1471 1039 1471 1039 1463 991 c 256,15,16
 1438 852 1438 852 1354.5 747.5 c 128,-1,17
 1271 643 1271 643 1140 585.5 c 128,-1,18
 1009 528 1009 528 842 528 c 2,19,-1
 596 528 l 1,20,-1
 539 205 l 1,21,-1
 690 175 l 1,22,-1
 659 0 l 1,23,-1
 56 0 l 1,0,-1
636 753 m 1,24,-1
 882 753 l 2,25,26
 1004 753 1004 753 1078 819.5 c 128,-1,27
 1152 886 1152 886 1170 989 c 0,28,29
 1175 1018 1175 1018 1175 1044 c 0,30,31
 1174 1112 1174 1112 1138 1162 c 0,32,33
 1088 1230 1088 1230 966 1231 c 2,34,-1
 720 1231 l 1,35,-1
 636 753 l 1,24,-1
EndSplineSet
Substitution2: "'c2sc' Capitals to Small Capitals in Latin lookup 19 subtable" p.sc
Substitution2: "'aalt' Access All Alternates in Latin lookup 0 subtable" p.sc
EndChar

StartChar: Thorn
Encoding: 222 222 123
Width: 1291
GlyphClass: 2
Flags: W
AnchorPoint: "Anchor-2" 381 0 basechar 0
AnchorPoint: "Anchor-0" 622 1364 basechar 0
LayerCount: 2
Fore
SplineSet
67 0 m 1,0,-1
 98 175 l 1,1,-1
 259 205 l 1,2,-1
 443 1250 l 1,3,-1
 293 1280 l 1,4,-1
 324 1456 l 1,5,-1
 772 1456 l 1,6,-1
 928 1456 l 1,7,-1
 897 1280 l 1,8,-1
 735 1250 l 1,9,-1
 720 1161 l 1,10,-1
 928 1161 l 2,11,12
 1178 1162 1178 1162 1296 1044 c 0,13,14
 1389 952 1389 952 1389 816 c 0,15,16
 1389 778 1389 778 1382 737 c 0,17,18
 1348 547 1348 547 1188 430 c 128,-1,19
 1028 313 1028 313 778 313 c 2,20,-1
 570 313 l 1,21,-1
 551 205 l 1,22,-1
 702 175 l 1,23,-1
 671 0 l 1,24,-1
 67 0 l 1,0,-1
609 532 m 1,25,-1
 817 532 l 2,26,27
 897 532 897 532 953.5 558.5 c 128,-1,28
 1010 585 1010 585 1045 631.5 c 128,-1,29
 1080 678 1080 678 1090 735 c 0,30,31
 1094 755 1094 755 1094 774 c 0,32,33
 1094 809 1094 809 1082 840 c 0,34,35
 1064 887 1064 887 1016.5 914.5 c 128,-1,36
 969 942 969 942 889 942 c 2,37,-1
 681 942 l 1,38,-1
 609 532 l 1,25,-1
EndSplineSet
Substitution2: "'c2sc' Capitals to Small Capitals in Latin lookup 19 subtable" thorn.sc
Substitution2: "'aalt' Access All Alternates in Latin lookup 0 subtable" thorn.sc
EndChar

StartChar: Q
Encoding: 81 81 124
Width: 1449
GlyphClass: 2
Flags: W
AnchorPoint: "Anchor-2" 728 0 basechar 0
AnchorPoint: "Anchor-0" 969 1364 basechar 0
LayerCount: 2
Fore
SplineSet
1243 -281 m 1,0,-1
 881 -3 l 1,1,2
 841 -11 841 -11 800.5 -16 c 128,-1,3
 760 -21 760 -21 721 -21 c 0,4,5
 574 -21 574 -21 462.5 34 c 128,-1,6
 351 89 351 89 281.5 188 c 128,-1,7
 212 287 212 287 188 422 c 0,8,9
 177 484 177 484 178 550 c 0,10,11
 178 630 178 630 193 717 c 2,12,-1
 197 739 l 2,13,14
 225 898 225 898 296 1033 c 128,-1,15
 367 1168 367 1168 471.5 1267.5 c 128,-1,16
 576 1367 576 1367 706.5 1422 c 128,-1,17
 837 1477 837 1477 984 1477 c 0,18,19
 1132 1477 1132 1477 1244 1422 c 128,-1,20
 1356 1367 1356 1367 1427 1267.5 c 128,-1,21
 1498 1168 1498 1168 1522 1033 c 0,22,23
 1533 971 1533 971 1532 905 c 0,24,25
 1532 826 1532 826 1517 739 c 2,26,-1
 1513 717 l 2,27,28
 1479 527 1479 527 1383.5 370 c 128,-1,29
 1288 213 1288 213 1147 114 c 1,30,-1
 1423 -79 l 1,31,-1
 1243 -281 l 1,0,-1
761 206 m 0,32,33
 885 206 885 206 979 270 c 128,-1,34
 1073 334 1073 334 1134 449 c 128,-1,35
 1195 564 1195 564 1222 717 c 2,36,-1
 1227 741 l 2,37,38
 1242 824 1242 824 1242 896 c 0,39,40
 1242 954 1242 954 1232 1006 c 0,41,42
 1210 1120 1210 1120 1138.5 1184.5 c 128,-1,43
 1067 1249 1067 1249 944 1249 c 256,44,45
 821 1249 821 1249 729 1185.5 c 128,-1,46
 637 1122 637 1122 577 1008 c 128,-1,47
 517 894 517 894 490 741 c 2,48,-1
 485 717 l 2,49,50
 470 630 470 630 470 555 c 0,51,52
 470 498 470 498 478 449 c 0,53,54
 498 334 498 334 569 270 c 128,-1,55
 640 206 640 206 761 206 c 0,32,33
EndSplineSet
Substitution2: "'c2sc' Capitals to Small Capitals in Latin lookup 19 subtable" q.sc
Substitution2: "'aalt' Access All Alternates in Latin lookup 0 subtable" q.sc
EndChar

StartChar: R
Encoding: 82 82 125
Width: 1408
GlyphClass: 2
Flags: W
AnchorPoint: "Anchor-2" 704 0 basechar 0
AnchorPoint: "Anchor-0" 941 1364 basechar 0
LayerCount: 2
Fore
SplineSet
56 0 m 1,0,-1
 87 175 l 1,1,-1
 247 205 l 1,2,-1
 431 1250 l 1,3,-1
 282 1280 l 1,4,-1
 313 1456 l 1,5,-1
 1003 1456 l 2,6,7
 1171 1456 1171 1456 1281.5 1404 c 128,-1,8
 1392 1352 1392 1352 1440 1255 c 0,9,10
 1472 1191 1472 1191 1471 1109 c 0,11,12
 1471 1068 1471 1068 1463 1022 c 0,13,14
 1440 894 1440 894 1358.5 793 c 128,-1,15
 1277 692 1277 692 1153 634 c 128,-1,16
 1029 576 1029 576 879 575 c 2,17,-1
 604 575 l 1,18,-1
 539 205 l 1,19,-1
 690 175 l 1,20,-1
 659 0 l 1,21,-1
 56 0 l 1,0,-1
993 0 m 1,22,-1
 859 629 l 1,23,-1
 1133 694 l 1,24,-1
 1259 204 l 1,25,-1
 1378 175 l 1,26,-1
 1347 0 l 1,27,-1
 993 0 l 1,22,-1
644 800 m 1,28,-1
 882 800 l 2,29,30
 1008 800 1008 800 1080 853.5 c 128,-1,31
 1152 907 1152 907 1170 1009 c 0,32,33
 1175 1035 1175 1035 1175 1059 c 0,34,35
 1174 1126 1174 1126 1136 1170 c 0,36,37
 1084 1230 1084 1230 963 1231 c 2,38,-1
 720 1231 l 1,39,-1
 644 800 l 1,28,-1
EndSplineSet
Substitution2: "'ss05' Style Set 5 in Latin lookup 27 subtable" R.ss05
Substitution2: "'c2sc' Capitals to Small Capitals in Latin lookup 19 subtable" r.sc
AlternateSubs2: "'aalt' Access All Alternates in Latin lookup 1 subtable" R.ss05 r.sc
EndChar

StartChar: S
Encoding: 83 83 129
Width: 1247
GlyphClass: 2
Flags: W
AnchorPoint: "Anchor-2" 623 0 basechar 0
AnchorPoint: "Anchor-0" 864 1364 basechar 0
LayerCount: 2
Fore
SplineSet
646 -21 m 0,0,1
 485 -21 485 -21 359.5 15 c 128,-1,2
 234 51 234 51 122 140 c 1,3,-1
 184 492 l 1,4,-1
 410 492 l 1,5,-1
 404 285 l 1,6,7
 442 247 442 247 517 223.5 c 128,-1,8
 592 200 592 200 685 200 c 0,9,10
 764 200 764 200 822.5 222 c 128,-1,11
 881 244 881 244 916.5 284.5 c 128,-1,12
 952 325 952 325 962 380 c 0,13,14
 965 397 965 397 965 413 c 0,15,16
 964 444 964 444 952 472 c 0,17,18
 934 512 934 512 881.5 546 c 128,-1,19
 829 580 829 580 735 611 c 0,20,21
 571 662 571 662 468 722.5 c 0,22,23
 366 784 366 784 324 868 c 0,24,25
 296 924 296 924 296 995 c 0,26,27
 296 1031 296 1031 303 1071 c 0,28,29
 324 1189 324 1189 405.5 1279.5 c 128,-1,30
 487 1370 487 1370 612 1422 c 128,-1,31
 737 1474 737 1474 889 1476 c 0,32,33
 897 1476 897 1476 904 1476 c 0,34,35
 1062 1476 1062 1476 1180 1436 c 0,36,37
 1302 1394 1302 1394 1383 1319 c 1,38,-1
 1325 991 l 1,39,-1
 1106 991 l 1,40,-1
 1103 1191 l 1,41,42
 1069 1215 1069 1215 1008 1233 c 128,-1,43
 947 1251 947 1251 865 1251 c 0,44,45
 795 1251 795 1251 737.5 1230 c 128,-1,46
 680 1209 680 1209 642 1169 c 128,-1,47
 604 1129 604 1129 594 1072 c 0,48,49
 591 1057 591 1057 591 1044 c 0,50,51
 591 1012 591 1012 606 986 c 0,52,53
 627 950 627 950 684.5 917.5 c 128,-1,54
 742 885 742 885 848 848 c 1,55,56
 1077 781 1077 781 1182 671 c 0,57,58
 1262 587 1262 587 1262 462 c 0,59,60
 1262 424 1262 424 1255 382 c 0,61,62
 1233 258 1233 258 1150.5 167.5 c 128,-1,63
 1068 77 1068 77 938 28 c 128,-1,64
 808 -21 808 -21 646 -21 c 0,0,1
EndSplineSet
Substitution2: "'ss03' Style Set 3 in Latin lookup 25 subtable" S.ss03
Substitution2: "'c2sc' Capitals to Small Capitals in Latin lookup 19 subtable" s.sc
AlternateSubs2: "'aalt' Access All Alternates in Latin lookup 1 subtable" S.ss03 s.sc
EndChar

StartChar: uni1E9E
Encoding: 7838 7838 135
Width: 1475
GlyphClass: 2
Flags: W
AnchorPoint: "Anchor-2" 748 0 basechar 0
AnchorPoint: "Anchor-0" 986 1364 basechar 0
LayerCount: 2
Fore
SplineSet
56 0 m 1,0,-1
 87 175 l 1,1,-1
 247 205 l 1,2,-1
 431 1250 l 1,3,-1
 282 1280 l 1,4,-1
 313 1456 l 1,5,-1
 1632 1456 l 1,6,-1
 1592 1232 l 1,7,-1
 720 1232 l 1,8,-1
 539 205 l 1,9,-1
 689 175 l 1,10,-1
 658 0 l 1,11,-1
 56 0 l 1,0,-1
948 -21 m 0,12,13
 898 -21 898 -21 852 -14.5 c 128,-1,14
 806 -8 806 -8 770 2 c 1,15,-1
 877 226 l 1,16,17
 900 215 900 215 927.5 209 c 128,-1,18
 955 203 955 203 986 203 c 0,19,20
 1084 203 1084 203 1153 265.5 c 128,-1,21
 1222 328 1222 328 1243 447 c 0,22,23
 1250 484 1250 484 1250 516 c 0,24,25
 1250 591 1250 591 1214 638 c 0,26,27
 1162 705 1162 705 1046 705 c 2,28,-1
 894 705 l 1,29,-1
 926 887 l 1,30,-1
 1378 1332 l 1,31,-1
 1592 1232 l 1,32,-1
 1203 857 l 1,33,-1
 1137 896 l 1,34,35
 1142 896 1142 896 1146 896 c 0,36,37
 1286 896 1286 896 1379 838 c 0,38,39
 1475 778 1475 778 1515 673 c 0,40,41
 1540 607 1540 607 1540 528 c 0,42,43
 1540 481 1540 481 1531 430 c 0,44,45
 1506 289 1506 289 1425.5 188 c 128,-1,46
 1345 87 1345 87 1222.5 33 c 128,-1,47
 1100 -21 1100 -21 948 -21 c 0,12,13
EndSplineSet
Substitution2: "'c2sc' Capitals to Small Capitals in Latin lookup 19 subtable" germandbls.sc
Substitution2: "'aalt' Access All Alternates in Latin lookup 0 subtable" germandbls.sc
EndChar

StartChar: T
Encoding: 84 84 136
Width: 1389
GlyphClass: 2
Flags: W
AnchorPoint: "Anchor-4" 824 730 basechar 0
AnchorPoint: "Anchor-2" 695 0 basechar 0
AnchorPoint: "Anchor-0" 936 1364 basechar 0
LayerCount: 2
Fore
SplineSet
391 0 m 1,0,-1
 422 175 l 1,1,-1
 583 205 l 1,2,-1
 764 1231 l 1,3,-1
 499 1231 l 1,4,-1
 452 1057 l 1,5,-1
 231 1057 l 1,6,-1
 302 1456 l 1,7,-1
 1601 1456 l 1,8,-1
 1530 1057 l 1,9,-1
 1308 1057 l 1,10,-1
 1323 1231 l 1,11,-1
 1056 1231 l 1,12,-1
 875 205 l 1,13,-1
 1027 175 l 1,14,-1
 996 0 l 1,15,-1
 391 0 l 1,0,-1
EndSplineSet
Substitution2: "'c2sc' Capitals to Small Capitals in Latin lookup 19 subtable" t.sc
Substitution2: "'aalt' Access All Alternates in Latin lookup 0 subtable" t.sc
EndChar

StartChar: U
Encoding: 85 85 141
Width: 1555
GlyphClass: 2
Flags: W
AnchorPoint: "Anchor-3" 945 0 basechar 0
AnchorPoint: "Anchor-2" 778 0 basechar 0
AnchorPoint: "Anchor-1" 1786 1425 basechar 0
AnchorPoint: "Anchor-0" 1019 1364 basechar 0
LayerCount: 2
Fore
SplineSet
772 -21 m 0,0,1
 599 -21 599 -21 478 39 c 0,2,3
 356 99 356 99 304 213 c 0,4,5
 270 287 270 287 270 383 c 0,6,7
 270 434 270 434 280 490 c 2,8,-1
 414 1250 l 1,9,-1
 265 1280 l 1,10,-1
 296 1456 l 1,11,-1
 899 1456 l 1,12,-1
 868 1280 l 1,13,-1
 706 1250 l 1,14,-1
 572 490 l 2,15,16
 565 450 565 450 565 416 c 0,17,18
 565 368 565 368 579 330 c 0,19,20
 603 266 603 266 662.5 234.5 c 128,-1,21
 722 203 722 203 812 203 c 0,22,23
 904 203 904 203 975 234.5 c 128,-1,24
 1046 266 1046 266 1092 330 c 128,-1,25
 1138 394 1138 394 1155 490 c 2,26,-1
 1289 1250 l 1,27,-1
 1140 1280 l 1,28,-1
 1171 1456 l 1,29,-1
 1774 1456 l 1,30,-1
 1743 1280 l 1,31,-1
 1581 1250 l 1,32,-1
 1447 490 l 2,33,34
 1418 327 1418 327 1324.5 212.5 c 128,-1,35
 1231 98 1231 98 1089 38.5 c 128,-1,36
 947 -21 947 -21 772 -21 c 0,0,1
EndSplineSet
Substitution2: "'c2sc' Capitals to Small Capitals in Latin lookup 19 subtable" u.sc
Substitution2: "'aalt' Access All Alternates in Latin lookup 0 subtable" u.sc
EndChar

StartChar: Uhorn
Encoding: 431 431 149
Width: 1774
GlyphClass: 2
Flags: W
AnchorPoint: "Anchor-2" 778 0 basechar 0
AnchorPoint: "Anchor-0" 1018 1364 basechar 0
LayerCount: 2
Fore
SplineSet
773 -21 m 256,0,1
 599 -21 599 -21 478 38.5 c 0,2,3
 356 98 356 98 304 212 c 0,4,5
 270 287 270 287 270 382 c 0,6,7
 270 433 270 433 280 490 c 2,8,-1
 414 1250 l 1,9,-1
 265 1280 l 1,10,-1
 296 1456 l 1,11,-1
 899 1456 l 1,12,-1
 868 1280 l 1,13,-1
 707 1250 l 1,14,-1
 573 490 l 2,15,16
 566 450 566 450 566 416 c 0,17,18
 566 368 566 368 580 330 c 0,19,20
 604 266 604 266 663.5 234.5 c 128,-1,21
 723 203 723 203 813 203 c 0,22,23
 904 203 904 203 975 234.5 c 128,-1,24
 1046 266 1046 266 1092 330 c 128,-1,25
 1138 394 1138 394 1155 490 c 2,26,-1
 1289 1250 l 1,27,-1
 1140 1280 l 1,28,-1
 1171 1456 l 1,29,-1
 1620 1456 l 1,30,-1
 1449 490 l 2,31,32
 1420 327 1420 327 1326 212.5 c 128,-1,33
 1232 98 1232 98 1089.5 38.5 c 128,-1,34
 947 -21 947 -21 773 -21 c 256,0,1
1511 1021 m 1,35,-1
 1549 1206 l 1,36,37
 1554 1206 1554 1206 1558 1206 c 0,38,39
 1663 1206 1663 1206 1709 1271 c 0,40,41
 1757 1339 1757 1339 1784 1492 c 1,42,-1
 2018 1492 l 1,43,-1
 2017 1487 l 2,44,45
 1980 1258 1980 1258 1863.5 1141.5 c 128,-1,46
 1747 1025 1747 1025 1511 1021 c 1,35,-1
EndSplineSet
Substitution2: "'c2sc' Capitals to Small Capitals in Latin lookup 19 subtable" uhorn.sc
Substitution2: "'aalt' Access All Alternates in Latin lookup 0 subtable" uhorn.sc
EndChar

StartChar: V
Encoding: 86 86 160
Width: 1535
GlyphClass: 2
Flags: W
AnchorPoint: "Anchor-2" 783 0 basechar 0
AnchorPoint: "Anchor-0" 1024 1364 basechar 0
LayerCount: 2
Fore
SplineSet
632 0 m 1,0,-1
 387 1264 l 1,1,-1
 260 1280 l 1,2,-1
 291 1456 l 1,3,-1
 870 1456 l 1,4,-1
 839 1280 l 1,5,-1
 704 1260 l 1,6,-1
 839 401 l 1,7,-1
 847 321 l 1,8,-1
 853 321 l 1,9,-1
 887 399 l 1,10,-1
 1325 1260 l 1,11,-1
 1176 1280 l 1,12,-1
 1207 1456 l 1,13,-1
 1759 1456 l 1,14,-1
 1728 1280 l 1,15,-1
 1593 1264 l 1,16,-1
 931 0 l 1,17,-1
 632 0 l 1,0,-1
EndSplineSet
Substitution2: "'c2sc' Capitals to Small Capitals in Latin lookup 19 subtable" v.sc
Substitution2: "'aalt' Access All Alternates in Latin lookup 0 subtable" v.sc
EndChar

StartChar: W
Encoding: 87 87 161
Width: 2202
GlyphClass: 2
Flags: W
AnchorPoint: "Anchor-2" 1101 0 basechar 0
AnchorPoint: "Anchor-0" 1342 1364 basechar 0
LayerCount: 2
Fore
SplineSet
521 0 m 1,0,-1
 406 1265 l 1,1,-1
 260 1280 l 1,2,-1
 291 1456 l 1,3,-1
 878 1456 l 1,4,-1
 847 1280 l 1,5,-1
 685 1257 l 1,6,-1
 731 549 l 1,7,-1
 739 419 l 1,8,-1
 745 419 l 1,9,-1
 805 549 l 1,10,-1
 1253 1456 l 1,11,-1
 1468 1456 l 1,12,-1
 1602 524 l 1,13,-1
 1617 409 l 1,14,-1
 1623 409 l 1,15,-1
 1673 524 l 1,16,-1
 1980 1257 l 1,17,-1
 1818 1280 l 1,18,-1
 1849 1456 l 1,19,-1
 2424 1456 l 1,20,-1
 2393 1280 l 1,21,-1
 2251 1265 l 1,22,-1
 1686 0 l 1,23,-1
 1422 0 l 1,24,-1
 1296 851 l 1,25,-1
 1282 971 l 1,26,-1
 1276 971 l 1,27,-1
 1215 847 l 1,28,-1
 788 0 l 1,29,-1
 521 0 l 1,0,-1
EndSplineSet
Substitution2: "'c2sc' Capitals to Small Capitals in Latin lookup 19 subtable" w.sc
Substitution2: "'aalt' Access All Alternates in Latin lookup 0 subtable" w.sc
EndChar

StartChar: X
Encoding: 88 88 166
Width: 1514
GlyphClass: 2
Flags: W
AnchorPoint: "Anchor-2" 758 0 basechar 0
AnchorPoint: "Anchor-0" 999 1364 basechar 0
LayerCount: 2
Fore
SplineSet
36 0 m 1,0,-1
 67 175 l 1,1,-1
 198 199 l 1,2,-1
 702 721 l 1,3,-1
 408 1255 l 1,4,-1
 295 1280 l 1,5,-1
 326 1456 l 1,6,-1
 895 1456 l 1,7,-1
 864 1280 l 1,8,-1
 722 1267 l 1,9,-1
 911 917 l 1,10,-1
 1221 1267 l 1,11,-1
 1089 1280 l 1,12,-1
 1120 1456 l 1,13,-1
 1681 1456 l 1,14,-1
 1650 1280 l 1,15,-1
 1516 1255 l 1,16,-1
 1054 747 l 1,17,-1
 1375 200 l 1,18,-1
 1510 175 l 1,19,-1
 1479 0 l 1,20,-1
 896 0 l 1,21,-1
 927 175 l 1,22,-1
 1054 187 l 1,23,-1
 849 557 l 1,24,-1
 508 187 l 1,25,-1
 628 175 l 1,26,-1
 597 0 l 1,27,-1
 36 0 l 1,0,-1
EndSplineSet
Substitution2: "'c2sc' Capitals to Small Capitals in Latin lookup 19 subtable" x.sc
Substitution2: "'aalt' Access All Alternates in Latin lookup 0 subtable" x.sc
EndChar

StartChar: Y
Encoding: 89 89 167
Width: 1508
GlyphClass: 2
Flags: W
AnchorPoint: "Anchor-2" 754 0 basechar 0
AnchorPoint: "Anchor-0" 995 1364 basechar 0
LayerCount: 2
Fore
SplineSet
452 0 m 1,0,-1
 483 175 l 1,1,-1
 644 205 l 1,2,-1
 696 499 l 1,3,-1
 398 1260 l 1,4,-1
 262 1280 l 1,5,-1
 293 1456 l 1,6,-1
 874 1456 l 1,7,-1
 843 1280 l 1,8,-1
 721 1263 l 1,9,-1
 881 798 l 1,10,-1
 894 751 l 1,11,-1
 901 752 l 1,12,-1
 930 796 l 1,13,-1
 1282 1263 l 1,14,-1
 1125 1280 l 1,15,-1
 1156 1456 l 1,16,-1
 1726 1456 l 1,17,-1
 1695 1280 l 1,18,-1
 1547 1260 l 1,19,-1
 991 522 l 1,20,-1
 935 205 l 1,21,-1
 1086 175 l 1,22,-1
 1055 0 l 1,23,-1
 452 0 l 1,0,-1
EndSplineSet
Substitution2: "'c2sc' Capitals to Small Capitals in Latin lookup 19 subtable" y.sc
Substitution2: "'aalt' Access All Alternates in Latin lookup 0 subtable" y.sc
EndChar

StartChar: Z
Encoding: 90 90 175
Width: 1226
GlyphClass: 2
Flags: W
AnchorPoint: "Anchor-2" 613 0 basechar 0
AnchorPoint: "Anchor-0" 849 1364 basechar 0
LayerCount: 2
Fore
SplineSet
74 0 m 1,0,-1
 108 192 l 1,1,-1
 1001 1231 l 1,2,-1
 558 1231 l 1,3,-1
 502 1045 l 1,4,-1
 279 1045 l 1,5,-1
 364 1456 l 1,6,-1
 1400 1456 l 1,7,-1
 1367 1270 l 1,8,-1
 469 224 l 1,9,-1
 976 224 l 1,10,-1
 1033 410 l 1,11,-1
 1255 410 l 1,12,-1
 1165 0 l 1,13,-1
 74 0 l 1,0,-1
EndSplineSet
Substitution2: "'c2sc' Capitals to Small Capitals in Latin lookup 19 subtable" z.sc
Substitution2: "'aalt' Access All Alternates in Latin lookup 0 subtable" z.sc
EndChar

StartChar: C.ss03
Encoding: 65537 -1 179
Width: 1280
GlyphClass: 1
Flags: W
LayerCount: 2
Fore
SplineSet
676 -21 m 0,0,1
 501 -21 501 -21 381 56 c 0,2,3
 261 134 261 134 211 270 c 0,4,5
 180 354 180 354 180 453 c 0,6,7
 180 515 180 515 192 583 c 2,8,-1
 243 872 l 2,9,10
 274 1049 274 1049 373.5 1185.5 c 128,-1,11
 473 1322 473 1322 620.5 1399.5 c 128,-1,12
 768 1477 768 1477 945 1477 c 0,13,14
 1116 1477 1116 1477 1242.5 1415.5 c 128,-1,15
 1369 1354 1369 1354 1441 1253 c 1,16,-1
 1381 912 l 1,17,-1
 1161 912 l 1,18,-1
 1141 1178 l 1,19,20
 1109 1212 1109 1212 1055.5 1232 c 128,-1,21
 1002 1252 1002 1252 926 1252 c 0,22,23
 826 1252 826 1252 744.5 1203.5 c 128,-1,24
 663 1155 663 1155 608.5 1069.5 c 128,-1,25
 554 984 554 984 534 874 c 2,26,-1
 483 583 l 2,27,28
 474 531 474 531 474 484 c 0,29,30
 474 432 474 432 486 386 c 0,31,32
 508 300 508 300 570 251.5 c 128,-1,33
 632 203 632 203 731 203 c 0,34,35
 805 203 805 203 870.5 221.5 c 128,-1,36
 936 240 936 240 976 270 c 1,37,-1
 1086 523 l 1,38,-1
 1302 523 l 1,39,-1
 1246 202 l 1,40,41
 1140 100 1140 100 992.5 39.5 c 128,-1,42
 845 -21 845 -21 676 -21 c 0,0,1
EndSplineSet
EndChar

StartChar: G.ss03
Encoding: 65538 -1 180
Width: 1335
GlyphClass: 1
Flags: W
LayerCount: 2
Fore
SplineSet
690 -21 m 0,0,1
 512 -21 512 -21 389 54.5 c 128,-1,2
 266 130 266 130 213 265 c 0,3,4
 180 350 180 350 180 452 c 0,5,6
 180 511 180 511 191 576 c 2,7,-1
 244 880 l 2,8,9
 275 1056 275 1056 374.5 1190.5 c 128,-1,10
 474 1325 474 1325 621 1401 c 128,-1,11
 768 1477 768 1477 943 1477 c 0,12,13
 1112 1477 1112 1477 1240.5 1422.5 c 128,-1,14
 1369 1368 1369 1368 1442 1268 c 1,15,-1
 1411 962 l 1,16,-1
 1160 962 l 1,17,-1
 1119 1193 l 1,18,19
 1092 1220 1092 1220 1042.5 1236 c 128,-1,20
 993 1252 993 1252 924 1252 c 0,21,22
 828 1252 828 1252 746.5 1205 c 128,-1,23
 665 1158 665 1158 610 1074.5 c 128,-1,24
 555 991 555 991 536 882 c 2,25,-1
 482 576 l 2,26,27
 474 527 474 527 474 484 c 0,28,29
 474 429 474 429 487 382 c 0,30,31
 511 298 511 298 573 250.5 c 128,-1,32
 635 203 635 203 730 203 c 0,33,34
 832 203 832 203 896.5 220.5 c 128,-1,35
 961 238 961 238 998 263 c 1,36,-1
 1039 493 l 1,37,-1
 834 510 l 1,38,-1
 870 715 l 1,39,-1
 1371 715 l 1,40,-1
 1276 173 l 1,41,42
 1223 123 1223 123 1139 78.5 c 128,-1,43
 1055 34 1055 34 942.5 6.5 c 128,-1,44
 830 -21 830 -21 690 -21 c 0,0,1
EndSplineSet
EndChar

StartChar: S.ss03
Encoding: 65539 -1 181
Width: 1242
GlyphClass: 1
Flags: W
LayerCount: 2
Fore
SplineSet
641 -21 m 0,0,1
 483 -21 483 -21 358 34 c 0,2,3
 233 90 233 90 171 194 c 0,4,5
 128 266 128 266 128 358 c 0,6,7
 128 400 128 400 137 445 c 1,8,-1
 141 451 l 1,9,-1
 424 451 l 1,10,11
 419 420 419 420 419 392 c 0,12,13
 419 346 419 346 435 310 c 0,14,15
 461 254 461 254 523.5 227 c 128,-1,16
 586 200 586 200 680 200 c 0,17,18
 760 200 760 200 818.5 222 c 128,-1,19
 877 244 877 244 912 284.5 c 128,-1,20
 947 325 947 325 957 380 c 0,21,22
 961 400 961 400 961 417 c 0,23,24
 960 450 960 450 948 477 c 0,25,26
 930 518 930 518 877.5 550 c 128,-1,27
 825 582 825 582 730 611 c 0,28,29
 567 662 567 662 460.5 722.5 c 0,30,31
 354 784 354 784 310 868 c 0,32,33
 280 925 280 925 279 998 c 0,34,35
 279 1033 279 1033 286 1071 c 0,36,37
 307 1191 307 1191 392.5 1282.5 c 128,-1,38
 478 1374 478 1374 609.5 1425.5 c 128,-1,39
 741 1477 741 1477 898 1477 c 0,40,41
 1059 1477 1059 1477 1171 1418.5 c 0,42,43
 1284 1360 1284 1360 1334 1260 c 0,44,45
 1367 1195 1367 1195 1366 1119 c 0,46,47
 1366 1078 1366 1078 1357 1035 c 1,48,-1
 1354 1029 l 1,49,-1
 1072 1029 l 1,50,51
 1076 1053 1076 1053 1076 1075 c 0,52,53
 1076 1116 1076 1116 1062 1148 c 0,54,55
 1040 1198 1040 1198 988.5 1226.5 c 128,-1,56
 937 1255 937 1255 855 1255 c 0,57,58
 777 1255 777 1255 718 1231.5 c 128,-1,59
 659 1208 659 1208 622.5 1166 c 128,-1,60
 586 1124 586 1124 577 1070 c 0,61,62
 574 1056 574 1056 574 1043 c 0,63,64
 574 1010 574 1010 591 984 c 0,65,66
 614 948 614 948 676 915.5 c 128,-1,67
 738 883 738 883 843 848 c 0,68,69
 1072 781 1072 781 1177 671 c 0,70,71
 1257 587 1257 587 1257 462 c 0,72,73
 1257 424 1257 424 1250 382 c 0,74,75
 1228 258 1228 258 1145 167.5 c 128,-1,76
 1062 77 1062 77 932.5 28 c 128,-1,77
 803 -21 803 -21 641 -21 c 0,0,1
EndSplineSet
EndChar

StartChar: C.ss04
Encoding: 65540 -1 182
Width: 1280
GlyphClass: 1
Flags: W
LayerCount: 2
Fore
SplineSet
683 -21 m 0,0,1
 504 -21 504 -21 383 56 c 0,2,3
 262 134 262 134 212 270 c 0,4,5
 181 355 181 355 180 454 c 0,6,7
 180 515 180 515 192 583 c 2,8,-1
 243 872 l 2,9,10
 274 1049 274 1049 371.5 1185.5 c 128,-1,11
 469 1322 469 1322 613.5 1399.5 c 128,-1,12
 758 1477 758 1477 933 1477 c 0,13,14
 1192 1478 1192 1478 1310 1342 c 0,15,16
 1408 1230 1408 1230 1408 1043 c 0,17,18
 1408 1004 1408 1004 1404 961 c 1,19,-1
 1401 955 l 1,20,-1
 1117 955 l 1,21,22
 1120 987 1120 987 1120 1016 c 0,23,24
 1120 1120 1120 1120 1081 1178 c 0,25,26
 1031 1252 1031 1252 894 1252 c 0,27,28
 803 1252 803 1252 729 1203.5 c 128,-1,29
 655 1155 655 1155 604.5 1069.5 c 128,-1,30
 554 984 554 984 534 874 c 2,31,-1
 483 583 l 2,32,33
 473 530 473 530 473 483 c 0,34,35
 473 431 473 431 485 386 c 0,36,37
 507 300 507 300 567.5 251.5 c 128,-1,38
 628 203 628 203 723 203 c 0,39,40
 852 203 852 203 924.5 274.5 c 128,-1,41
 997 346 997 346 1035 495 c 1,42,-1
 1318 495 l 1,43,-1
 1319 489 l 1,44,45
 1283 330 1283 330 1197 215.5 c 128,-1,46
 1111 101 1111 101 981.5 40 c 128,-1,47
 852 -21 852 -21 683 -21 c 0,0,1
EndSplineSet
EndChar

StartChar: G.ss04
Encoding: 65541 -1 183
Width: 1335
GlyphClass: 1
Flags: W
LayerCount: 2
Fore
SplineSet
690 -21 m 0,0,1
 512 -21 512 -21 389 54.5 c 128,-1,2
 266 130 266 130 213 265 c 0,3,4
 180 350 180 350 180 452 c 0,5,6
 180 511 180 511 191 576 c 2,7,-1
 244 880 l 2,8,9
 275 1056 275 1056 373.5 1190.5 c 128,-1,10
 472 1325 472 1325 616.5 1401 c 128,-1,11
 761 1477 761 1477 931 1477 c 0,12,13
 1200 1477 1200 1477 1316 1350 c 0,14,15
 1417 1239 1417 1239 1417 1061 c 0,16,17
 1417 1035 1417 1035 1415 1007 c 1,18,-1
 1412 1001 l 1,19,-1
 1137 1001 l 1,20,21
 1138 1121 1138 1121 1084.5 1186.5 c 128,-1,22
 1031 1252 1031 1252 899 1252 c 0,23,24
 810 1252 810 1252 734.5 1205 c 128,-1,25
 659 1158 659 1158 607 1074.5 c 128,-1,26
 555 991 555 991 536 882 c 2,27,-1
 482 576 l 2,28,29
 474 527 474 527 474 484 c 0,30,31
 474 429 474 429 487 382 c 0,32,33
 511 298 511 298 573 250.5 c 128,-1,34
 635 203 635 203 730 203 c 0,35,36
 832 203 832 203 896.5 220.5 c 128,-1,37
 961 238 961 238 998 263 c 1,38,-1
 1044 519 l 1,39,-1
 861 536 l 1,40,-1
 893 721 l 1,41,-1
 1372 721 l 1,42,-1
 1276 173 l 1,43,44
 1223 123 1223 123 1139 78.5 c 128,-1,45
 1055 34 1055 34 942.5 6.5 c 128,-1,46
 830 -21 830 -21 690 -21 c 0,0,1
EndSplineSet
EndChar

StartChar: O.ss04
Encoding: 65542 -1 184
Width: 1384
GlyphClass: 1
Flags: W
LayerCount: 2
Fore
SplineSet
691 -21 m 0,0,1
 511 -21 511 -21 389 59 c 0,2,3
 267 138 267 138 215 278 c 0,4,5
 182 365 182 365 182 469 c 0,6,7
 182 530 182 530 194 597 c 2,8,-1
 240 859 l 2,9,10
 271 1037 271 1037 372 1176.5 c 128,-1,11
 473 1316 473 1316 623.5 1396.5 c 128,-1,12
 774 1477 774 1477 953 1477 c 0,13,14
 1134 1477 1134 1477 1257.5 1396.5 c 128,-1,15
 1381 1316 1381 1316 1434 1176 c 0,16,17
 1467 1089 1467 1089 1467 988 c 0,18,19
 1467 926 1467 926 1455 859 c 2,20,-1
 1409 597 l 2,21,22
 1377 418 1377 418 1276 278.5 c 128,-1,23
 1175 139 1175 139 1023.5 59 c 128,-1,24
 872 -21 872 -21 691 -21 c 0,0,1
731 206 m 0,25,26
 831 206 831 206 911.5 255.5 c 128,-1,27
 992 305 992 305 1045 393.5 c 128,-1,28
 1098 482 1098 482 1118 597 c 2,29,-1
 1165 861 l 2,30,31
 1174 914 1174 914 1174 962 c 0,32,33
 1174 1016 1174 1016 1162 1062 c 0,34,35
 1140 1150 1140 1150 1076.5 1199.5 c 128,-1,36
 1013 1249 1013 1249 913 1249 c 0,37,38
 815 1249 815 1249 736 1199 c 128,-1,39
 657 1149 657 1149 604.5 1061.5 c 128,-1,40
 552 974 552 974 532 861 c 2,41,-1
 485 597 l 2,42,43
 475 542 475 542 475 494 c 0,44,45
 475 440 475 440 487 394 c 0,46,47
 509 306 509 306 570.5 256 c 128,-1,48
 632 206 632 206 731 206 c 0,25,26
EndSplineSet
EndChar

StartChar: D.ss05
Encoding: 65543 -1 185
Width: 1411
GlyphClass: 1
Flags: W
LayerCount: 2
Fore
SplineSet
56 0 m 1,0,-1
 87 175 l 1,1,-1
 247 205 l 1,2,-1
 431 1250 l 1,3,-1
 282 1280 l 1,4,-1
 313 1456 l 1,5,-1
 468 1456 l 1,6,-1
 968 1456 l 2,7,8
 1146 1456 1146 1456 1270.5 1378 c 128,-1,9
 1395 1300 1395 1300 1450 1163 c 0,10,11
 1485 1075 1485 1075 1485 971 c 0,12,13
 1485 912 1485 912 1474 848 c 2,14,-1
 1431 607 l 2,15,16
 1400 429 1400 429 1296.5 292 c 128,-1,17
 1193 155 1193 155 1041 77.5 c 128,-1,18
 889 0 889 0 711 0 c 2,19,-1
 56 0 l 1,0,-1
542 224 m 1,20,-1
 735 224 l 2,21,22
 840 224 840 224 924 272.5 c 128,-1,23
 1008 321 1008 321 1063 407 c 128,-1,24
 1118 493 1118 493 1138 607 c 2,25,-1
 1181 850 l 2,26,27
 1190 900 1190 900 1190 945 c 0,28,29
 1190 1001 1190 1001 1176 1049 c 0,30,31
 1151 1135 1151 1135 1084.5 1183 c 128,-1,32
 1018 1231 1018 1231 913 1231 c 2,33,-1
 720 1231 l 1,34,-1
 542 224 l 1,20,-1
EndSplineSet
EndChar

StartChar: Dcroat.ss05
Encoding: 65544 -1 186
Width: 1441
GlyphClass: 1
Flags: W
LayerCount: 2
Fore
SplineSet
86 0 m 1,0,-1
 117 175 l 1,1,-1
 277 205 l 1,2,-1
 358 665 l 1,3,-1
 163 665 l 1,4,-1
 191 820 l 1,5,-1
 386 820 l 1,6,-1
 461 1250 l 1,7,-1
 312 1280 l 1,8,-1
 343 1456 l 1,9,-1
 998 1456 l 2,10,11
 1177 1456 1177 1456 1301 1378 c 128,-1,12
 1425 1300 1425 1300 1480 1164 c 0,13,14
 1515 1077 1515 1077 1515 972 c 0,15,16
 1515 913 1515 913 1504 848 c 2,17,-1
 1461 607 l 2,18,19
 1429 428 1429 428 1326 291.5 c 128,-1,20
 1223 155 1223 155 1071.5 77.5 c 128,-1,21
 920 0 920 0 741 0 c 2,22,-1
 86 0 l 1,0,-1
572 224 m 1,23,-1
 765 224 l 2,24,25
 870 224 870 224 953.5 272 c 128,-1,26
 1037 320 1037 320 1092.5 406.5 c 128,-1,27
 1148 493 1148 493 1168 607 c 2,28,-1
 1211 850 l 2,29,30
 1220 900 1220 900 1220 945 c 0,31,32
 1220 1001 1220 1001 1206 1049 c 0,33,34
 1181 1135 1181 1135 1114.5 1183 c 128,-1,35
 1048 1231 1048 1231 943 1231 c 2,36,-1
 750 1231 l 1,37,-1
 678 820 l 1,38,-1
 892 820 l 1,39,-1
 864 665 l 1,40,-1
 650 665 l 1,41,-1
 572 224 l 1,23,-1
EndSplineSet
EndChar

StartChar: K.ss05
Encoding: 65545 -1 187
Width: 1565
GlyphClass: 1
Flags: W
LayerCount: 2
Fore
SplineSet
63 0 m 1,0,-1
 94 175 l 1,1,-1
 257 208 l 1,2,-1
 440 1246 l 1,3,-1
 289 1280 l 1,4,-1
 320 1456 l 1,5,-1
 921 1456 l 1,6,-1
 890 1280 l 1,7,-1
 732 1246 l 1,8,-1
 663 856 l 1,9,-1
 809 856 l 1,10,-1
 1219 1262 l 1,11,-1
 1222 1266 l 1,12,-1
 1099 1280 l 1,13,-1
 1130 1456 l 1,14,-1
 1696 1456 l 1,15,-1
 1665 1280 l 1,16,-1
 1518 1250 l 1,17,-1
 1040 770 l 1,18,-1
 1412 203 l 1,19,-1
 1551 175 l 1,20,-1
 1520 0 l 1,21,-1
 901 0 l 1,22,-1
 932 175 l 1,23,-1
 1060 189 l 1,24,-1
 1059 189 l 1,25,-1
 783 617 l 1,26,-1
 621 617 l 1,27,-1
 549 208 l 1,28,-1
 695 175 l 1,29,-1
 664 0 l 1,30,-1
 63 0 l 1,0,-1
EndSplineSet
EndChar

StartChar: OE.ss05
Encoding: 65546 -1 188
Width: 1996
GlyphClass: 1
Flags: W
LayerCount: 2
Fore
SplineSet
706 -21 m 0,0,1
 526 -21 526 -21 403 54.5 c 128,-1,2
 280 130 280 130 227 265 c 0,3,4
 194 350 194 350 194 452 c 0,5,6
 194 511 194 511 205 576 c 2,7,-1
 258 880 l 2,8,9
 289 1057 289 1057 389.5 1191.5 c 128,-1,10
 490 1326 490 1326 639 1401.5 c 128,-1,11
 788 1477 788 1477 968 1477 c 0,12,13
 1037 1477 1037 1477 1107 1471 c 128,-1,14
 1177 1465 1177 1465 1255 1456 c 1,15,-1
 2191 1456 l 1,16,-1
 2120 1057 l 1,17,-1
 1896 1057 l 1,18,-1
 1914 1231 l 1,19,-1
 1448 1231 l 1,20,-1
 1384 865 l 1,21,-1
 1877 865 l 1,22,-1
 1837 640 l 1,23,-1
 1344 640 l 1,24,-1
 1270 224 l 1,25,-1
 1740 224 l 1,26,-1
 1784 398 l 1,27,-1
 2006 398 l 1,28,-1
 1936 0 l 1,29,-1
 998 0 l 1,30,31
 904 -10 904 -10 838.5 -15.5 c 128,-1,32
 773 -21 773 -21 706 -21 c 0,0,1
746 204 m 0,33,34
 804 204 804 204 862.5 208.5 c 128,-1,35
 921 213 921 213 978 222 c 1,36,-1
 1156 1233 l 1,37,38
 1099 1242 1099 1242 1042.5 1247 c 128,-1,39
 986 1252 986 1252 929 1252 c 0,40,41
 830 1252 830 1252 752.5 1210 c 128,-1,42
 675 1168 675 1168 623 1085.5 c 128,-1,43
 571 1003 571 1003 550 882 c 2,44,-1
 496 576 l 2,45,46
 486 518 486 518 486 469 c 0,47,48
 486 415 486 415 498 372 c 0,49,50
 521 289 521 289 584 246.5 c 128,-1,51
 647 204 647 204 746 204 c 0,33,34
EndSplineSet
EndChar

StartChar: R.ss05
Encoding: 65547 -1 189
Width: 1410
GlyphClass: 1
Flags: W
LayerCount: 2
Fore
SplineSet
63 0 m 1,0,-1
 94 175 l 1,1,-1
 257 209 l 1,2,-1
 440 1247 l 1,3,-1
 289 1280 l 1,4,-1
 320 1456 l 1,5,-1
 980 1456 l 2,6,7
 1228 1456 1228 1456 1346 1344 c 0,8,9
 1437 1257 1437 1257 1437 1118 c 0,10,11
 1437 1077 1437 1077 1429 1031 c 0,12,13
 1410 925 1410 925 1340 846.5 c 128,-1,14
 1270 768 1270 768 1151 716 c 1,15,16
 1265 677 1265 677 1303 588 c 0,17,18
 1327 533 1327 533 1327 462 c 0,19,20
 1327 419 1327 419 1318 370 c 2,21,-1
 1304 291 l 2,22,23
 1300 270 1300 270 1300 253 c 0,24,25
 1300 230 1300 230 1307 215 c 0,26,27
 1319 189 1319 189 1358 183 c 2,28,-1
 1395 177 l 1,29,-1
 1364 0 l 1,30,-1
 1216 0 l 2,31,32
 1077 0 1077 0 1033 80 c 0,33,34
 1004 133 1004 133 1004 206 c 0,35,36
 1004 242 1004 242 1011 283 c 2,37,-1
 1026 368 l 2,38,39
 1032 400 1032 400 1032 427 c 0,40,41
 1032 490 1032 490 1001 534 c 0,42,43
 957 596 957 596 862 598 c 2,44,-1
 617 598 l 1,45,-1
 549 209 l 1,46,-1
 701 175 l 1,47,-1
 670 0 l 1,48,-1
 63 0 l 1,0,-1
657 822 m 1,49,-1
 859 822 l 2,50,51
 982 822 982 822 1050.5 872 c 128,-1,52
 1119 922 1119 922 1136 1022 c 0,53,54
 1140 1047 1140 1047 1140 1069 c 0,55,56
 1140 1132 1140 1132 1105 1174 c 0,57,58
 1057 1232 1057 1232 940 1232 c 2,59,-1
 729 1232 l 1,60,-1
 657 822 l 1,49,-1
EndSplineSet
EndChar

StartChar: a
Encoding: 97 97 190
Width: 1154
GlyphClass: 2
Flags: W
AnchorPoint: "Anchor-3" 1113 0 basechar 0
AnchorPoint: "Anchor-2" 571 0 basechar 0
AnchorPoint: "Anchor-0" 738 1082 basechar 0
LayerCount: 2
Fore
SplineSet
421 -21 m 0,0,1
 260 -20 260 -20 180 66 c 0,2,3
 120 131 120 131 121 231 c 0,4,5
 121 264 121 264 127 301 c 0,6,7
 154 454 154 454 295 549.5 c 128,-1,8
 436 645 436 645 675 645 c 2,9,-1
 818 645 l 1,10,-1
 832 725 l 2,11,12
 836 746 836 746 836 766 c 0,13,14
 836 818 836 818 809 852 c 0,15,16
 772 900 772 900 681 900 c 0,17,18
 634 900 634 900 595 888.5 c 128,-1,19
 556 877 556 877 521 856 c 1,20,-1
 473 713 l 1,21,-1
 263 713 l 1,22,-1
 308 994 l 1,23,24
 401 1042 401 1042 505.5 1072 c 128,-1,25
 610 1102 610 1102 732 1102 c 0,26,27
 944 1102 944 1102 1050 1004 c 0,28,29
 1131 929 1131 929 1131 804 c 0,30,31
 1131 765 1131 765 1123 722 c 2,32,-1
 1045 276 l 2,33,34
 1041 254 1041 254 1037.5 232.5 c 128,-1,35
 1034 211 1034 211 1034 191 c 1,36,-1
 1144 175 l 1,37,-1
 1113 0 l 1,38,-1
 751 0 l 1,39,40
 746 28 746 28 740 60 c 0,41,42
 735 87 735 87 735 114 c 0,43,44
 735 119 735 119 735 124 c 1,45,46
 671 58 671 58 593.5 18.5 c 128,-1,47
 516 -21 516 -21 421 -21 c 0,0,1
537 195 m 0,48,49
 598 195 598 195 658 222.5 c 128,-1,50
 718 250 718 250 756 295 c 1,51,-1
 786 466 l 1,52,-1
 642 466 l 2,53,54
 546 466 546 466 489 422 c 128,-1,55
 432 378 432 378 421 316 c 0,56,57
 419 302 419 302 419 289 c 0,58,59
 420 250 420 250 442 226 c 0,60,61
 472 194 472 194 537 195 c 0,48,49
EndSplineSet
Substitution2: "'ss03' Style Set 3 in Latin lookup 25 subtable" a.ss03
Substitution2: "'smcp' Lowercase to Small Capitals in Latin lookup 20 subtable" a.sc
Substitution2: "Single Substitution lookup 17 subtable" ordfeminine
AlternateSubs2: "'aalt' Access All Alternates in Latin lookup 1 subtable" a.ss03 a.sc ordfeminine
EndChar

StartChar: ae
Encoding: 230 230 214
Width: 1720
GlyphClass: 2
Flags: W
AnchorPoint: "Anchor-2" 850 0 basechar 0
AnchorPoint: "Anchor-0" 1065 1082 basechar 0
LayerCount: 2
Fore
SplineSet
444 -21 m 0,0,1
 266 -22 266 -22 184 66 c 0,2,3
 122 132 122 132 121 234 c 0,4,5
 121 267 121 267 128 304 c 0,6,7
 146 405 146 405 215 482.5 c 128,-1,8
 284 560 284 560 400 603.5 c 128,-1,9
 516 647 516 647 675 647 c 2,10,-1
 819 647 l 1,11,-1
 833 725 l 2,12,13
 837 746 837 746 837 765 c 0,14,15
 838 816 838 816 810 852 c 0,16,17
 772 900 772 900 682 900 c 0,18,19
 635 900 635 900 595.5 888.5 c 128,-1,20
 556 877 556 877 521 856 c 1,21,-1
 474 713 l 1,22,-1
 263 713 l 1,23,-1
 309 994 l 1,24,25
 402 1042 402 1042 506.5 1072 c 128,-1,26
 611 1102 611 1102 733 1102 c 0,27,28
 843 1102 843 1102 922 1068 c 128,-1,29
 1001 1034 1001 1034 1042 964 c 1,30,31
 1093 1010 1093 1010 1148 1040.5 c 128,-1,32
 1203 1071 1203 1071 1263.5 1086.5 c 128,-1,33
 1324 1102 1324 1102 1388 1102 c 0,34,35
 1530 1102 1530 1102 1621 1042.5 c 128,-1,36
 1712 983 1712 983 1748 873 c 0,37,38
 1768 811 1768 811 1768 735 c 0,39,40
 1768 677 1768 677 1756 612 c 2,41,-1
 1728 454 l 1,42,-1
 1078 454 l 1,43,-1
 1075 448 l 1,44,45
 1071 422 1071 422 1071 398 c 0,46,47
 1070 321 1070 321 1110 270 c 0,48,49
 1162 203 1162 203 1288 203 c 0,50,51
 1377 203 1377 203 1442 223.5 c 128,-1,52
 1507 244 1507 244 1592 284 c 1,53,-1
 1637 100 l 1,54,55
 1567 52 1567 52 1453 15.5 c 128,-1,56
 1339 -21 1339 -21 1213 -21 c 0,57,58
 962 -21 962 -21 852 144 c 1,59,60
 766 64 766 64 665.5 21.5 c 128,-1,61
 565 -21 565 -21 444 -21 c 0,0,1
538 195 m 0,62,63
 581 195 581 195 626 210.5 c 128,-1,64
 671 226 671 226 710.5 253 c 128,-1,65
 750 280 750 280 779 315 c 1,66,67
 777 338 777 338 777 361 c 0,68,69
 777 376 777 376 778 390 c 0,70,71
 780 426 780 426 786 461 c 2,72,-1
 788 468 l 1,73,-1
 644 468 l 2,74,75
 548 468 548 468 490 424.5 c 128,-1,76
 432 381 432 381 421 319 c 0,77,78
 419 305 419 305 419 293 c 0,79,80
 420 256 420 256 442 230 c 0,81,82
 472 196 472 196 538 195 c 0,62,63
1113 644 m 1,83,-1
 1476 644 l 1,84,-1
 1480 672 l 2,85,86
 1486 703 1486 703 1486 729 c 0,87,88
 1486 784 1486 784 1462 822 c 0,89,90
 1427 878 1427 878 1341 877 c 0,91,92
 1286 877 1286 877 1240.5 849 c 128,-1,93
 1195 821 1195 821 1162 770 c 128,-1,94
 1129 719 1129 719 1111 649 c 1,95,-1
 1113 644 l 1,83,-1
EndSplineSet
Substitution2: "'ss03' Style Set 3 in Latin lookup 25 subtable" ae.ss03
Substitution2: "'smcp' Lowercase to Small Capitals in Latin lookup 20 subtable" ae.sc
AlternateSubs2: "'aalt' Access All Alternates in Latin lookup 1 subtable" ae.ss03 ae.sc
EndChar

StartChar: b
Encoding: 98 98 216
Width: 1181
GlyphClass: 2
Flags: W
AnchorPoint: "Anchor-2" 596 0 basechar 0
AnchorPoint: "Anchor-0" 537 1456 basechar 0
LayerCount: 2
Fore
SplineSet
693 -21 m 0,0,1
 592 -21 592 -21 528 18.5 c 128,-1,2
 464 58 464 58 429 133 c 1,3,-1
 385 0 l 1,4,-1
 133 0 l 1,5,-1
 372 1354 l 1,6,-1
 222 1384 l 1,7,-1
 253 1560 l 1,8,-1
 699 1560 l 1,9,-1
 595 967 l 1,10,11
 653 1032 653 1032 727.5 1067 c 128,-1,12
 802 1102 802 1102 893 1102 c 0,13,14
 1024 1102 1024 1102 1103 1031.5 c 128,-1,15
 1182 961 1182 961 1208 833 c 0,16,17
 1220 774 1220 774 1219 706 c 0,18,19
 1219 626 1219 626 1203 532 c 2,20,-1
 1199 511 l 2,21,22
 1171 350 1171 350 1102 230.5 c 128,-1,23
 1033 111 1033 111 929 45 c 128,-1,24
 825 -21 825 -21 693 -21 c 0,0,1
644 206 m 0,25,26
 756 206 756 206 819 285.5 c 128,-1,27
 882 365 882 365 908 511 c 2,28,-1
 912 532 l 2,29,30
 925 605 925 605 925 664 c 0,31,32
 924 690 924 690 922 714 c 0,33,34
 914 790 914 790 876 832.5 c 128,-1,35
 838 875 838 875 765 875 c 0,36,37
 699 875 699 875 646.5 844 c 128,-1,38
 594 813 594 813 558 760 c 1,39,-1
 478 308 l 1,40,41
 499 258 499 258 541 232 c 128,-1,42
 583 206 583 206 644 206 c 0,25,26
EndSplineSet
Substitution2: "'smcp' Lowercase to Small Capitals in Latin lookup 20 subtable" b.sc
Substitution2: "'aalt' Access All Alternates in Latin lookup 0 subtable" b.sc
EndChar

StartChar: c
Encoding: 99 99 217
Width: 1082
GlyphClass: 2
Flags: W
AnchorPoint: "Anchor-2" 555 0 basechar 0
AnchorPoint: "Anchor-0" 746 1082 basechar 0
LayerCount: 2
Fore
SplineSet
568 -21 m 0,0,1
 412 -21 412 -21 311 49 c 0,2,3
 210 118 210 118 171 242 c 0,4,5
 148 314 148 314 148 398 c 0,6,7
 148 458 148 458 160 525 c 2,8,-1
 165 555 l 2,9,10
 193 715 193 715 276.5 838 c 128,-1,11
 360 961 360 961 485.5 1031.5 c 128,-1,12
 611 1102 611 1102 764 1102 c 0,13,14
 910 1102 910 1102 1007.5 1056.5 c 128,-1,15
 1105 1011 1105 1011 1161 951 c 1,16,-1
 1104 641 l 1,17,-1
 884 641 l 1,18,-1
 879 834 l 1,19,20
 859 858 859 858 825 873 c 128,-1,21
 791 888 791 888 753 888 c 0,22,23
 673 888 673 888 613 848 c 128,-1,24
 553 808 553 808 514 734 c 128,-1,25
 475 660 475 660 457 555 c 2,26,-1
 452 525 l 2,27,28
 441 464 441 464 441 415 c 0,29,30
 440 374 440 374 448 342 c 0,31,32
 464 270 464 270 507 236.5 c 128,-1,33
 550 203 550 203 610 203 c 0,34,35
 687 203 687 203 740.5 243.5 c 128,-1,36
 794 284 794 284 824 358 c 1,37,-1
 1074 358 l 1,38,-1
 1076 352 l 1,39,40
 1039 237 1039 237 973.5 153 c 128,-1,41
 908 69 908 69 808.5 24 c 128,-1,42
 709 -21 709 -21 568 -21 c 0,0,1
EndSplineSet
Substitution2: "'ss03' Style Set 3 in Latin lookup 25 subtable" c.ss03
Substitution2: "'smcp' Lowercase to Small Capitals in Latin lookup 20 subtable" c.sc
AlternateSubs2: "'aalt' Access All Alternates in Latin lookup 1 subtable" c.ss03 c.sc
EndChar

StartChar: d
Encoding: 100 100 223
Width: 1212
GlyphClass: 2
Flags: W
AnchorPoint: "Anchor-4" 1083 1211 basechar 0
AnchorPoint: "Anchor-2" 595 -13 basechar 0
AnchorPoint: "Anchor-1" 1533 1560 basechar 0
AnchorPoint: "Anchor-0" 1116 1456 basechar 0
LayerCount: 2
Fore
SplineSet
475 -21 m 0,0,1
 346 -21 346 -21 265.5 45.5 c 128,-1,2
 185 112 185 112 157 232 c 0,3,4
 143 292 143 292 143 361.5 c 128,-1,5
 143 431 143 431 157 511 c 2,6,-1
 161 532 l 2,7,8
 191 703 191 703 263 831 c 128,-1,9
 335 959 335 959 439.5 1030.5 c 128,-1,10
 544 1102 544 1102 672 1102 c 0,11,12
 761 1102 761 1102 822 1066.5 c 128,-1,13
 883 1031 883 1031 920 966 c 1,14,-1
 989 1354 l 1,15,-1
 838 1384 l 1,16,-1
 869 1560 l 1,17,-1
 1025 1560 l 1,18,-1
 1317 1560 l 1,19,-1
 1078 205 l 1,20,-1
 1213 175 l 1,21,-1
 1182 0 l 1,22,-1
 789 0 l 1,23,-1
 790 132 l 1,24,25
 726 57 726 57 648.5 18 c 128,-1,26
 571 -21 571 -21 475 -21 c 0,0,1
602 206 m 0,27,28
 663 206 663 206 713.5 232 c 128,-1,29
 764 258 764 258 804 307 c 1,30,-1
 885 766 l 1,31,32
 864 818 864 818 823 846.5 c 128,-1,33
 782 875 782 875 722 875 c 0,34,35
 649 875 649 875 595 831.5 c 128,-1,36
 541 788 541 788 506 711 c 128,-1,37
 471 634 471 634 453 532 c 2,38,-1
 449 511 l 2,39,40
 438 450 438 450 438 401 c 0,41,42
 438 334 438 334 458 288 c 0,43,44
 492 206 492 206 602 206 c 0,27,28
EndSplineSet
Substitution2: "'smcp' Lowercase to Small Capitals in Latin lookup 20 subtable" d.sc
Substitution2: "'aalt' Access All Alternates in Latin lookup 0 subtable" d.sc
EndChar

StartChar: eth
Encoding: 240 240 226
Width: 1217
GlyphClass: 1
Flags: W
LayerCount: 2
Fore
SplineSet
594 -21 m 0,0,1
 435 -21 435 -21 325 44 c 0,2,3
 215 110 215 110 167 222 c 0,4,5
 135 296 135 296 135 383 c 0,6,7
 135 428 135 428 144 477 c 0,8,9
 170 624 170 624 250 734 c 128,-1,10
 330 844 330 844 452 905.5 c 128,-1,11
 574 967 574 967 725 967 c 0,12,13
 804 967 804 967 868.5 945 c 128,-1,14
 933 923 933 923 976 884 c 1,15,-1
 981 888 l 1,16,17
 974 963 974 963 946.5 1028 c 128,-1,18
 919 1093 919 1093 875 1146 c 1,19,-1
 622 1018 l 1,20,-1
 563 1131 l 1,21,-1
 772 1236 l 1,22,23
 741 1256 741 1256 707 1271 c 128,-1,24
 673 1286 673 1286 638 1299 c 1,25,-1
 768 1517 l 1,26,27
 850 1496 850 1496 921.5 1461 c 128,-1,28
 993 1426 993 1426 1053 1377 c 1,29,-1
 1281 1493 l 1,30,-1
 1338 1380 l 1,31,-1
 1144 1282 l 1,32,33
 1234 1166 1234 1166 1266 1008 c 0,34,35
 1282 930 1282 930 1282 843 c 128,-1,36
 1282 756 1282 756 1265 661 c 2,37,-1
 1251 585 l 2,38,39
 1220 407 1220 407 1123.5 270.5 c 128,-1,40
 1027 134 1027 134 889 56.5 c 128,-1,41
 751 -21 751 -21 594 -21 c 0,0,1
632 203 m 0,42,43
 713 203 713 203 780 252 c 128,-1,44
 847 301 847 301 893 387 c 128,-1,45
 939 473 939 473 959 585 c 2,46,-1
 967 632 l 1,47,-1
 973 663 l 1,48,49
 946 703 946 703 886 729 c 128,-1,50
 826 755 826 755 741 755 c 0,51,52
 659 755 659 755 595.5 719.5 c 128,-1,53
 532 684 532 684 490.5 621 c 128,-1,54
 449 558 449 558 435 475 c 0,55,56
 429 443 429 443 429 414 c 0,57,58
 429 372 429 372 441 336 c 0,59,60
 461 274 461 274 510 238.5 c 128,-1,61
 559 203 559 203 632 203 c 0,42,43
EndSplineSet
Substitution2: "'smcp' Lowercase to Small Capitals in Latin lookup 20 subtable" eth.sc
Substitution2: "'aalt' Access All Alternates in Latin lookup 0 subtable" eth.sc
EndChar

StartChar: e
Encoding: 101 101 227
Width: 1078
GlyphClass: 2
Flags: W
AnchorPoint: "Anchor-3" 887 0 basechar 0
AnchorPoint: "Anchor-2" 556 0 basechar 0
AnchorPoint: "Anchor-0" 741 1082 basechar 0
LayerCount: 2
Fore
SplineSet
577 -21 m 0,0,1
 422 -21 422 -21 318 47.5 c 128,-1,2
 214 116 214 116 172 236 c 0,3,4
 146 309 146 309 146 395 c 0,5,6
 146 450 146 450 157 510 c 2,7,-1
 164 550 l 2,8,9
 192 711 192 711 274 835.5 c 128,-1,10
 356 960 356 960 478 1031 c 128,-1,11
 600 1102 600 1102 749 1102 c 0,12,13
 896 1102 896 1102 986 1044 c 128,-1,14
 1076 986 1076 986 1108 877 c 0,15,16
 1126 817 1126 817 1126 744 c 0,17,18
 1126 683 1126 683 1114 613 c 2,19,-1
 1086 454 l 1,20,-1
 450 454 l 1,21,-1
 447 448 l 1,22,23
 445 430 445 430 445 412 c 0,24,25
 445 362 445 362 460 322 c 0,26,27
 480 266 480 266 528.5 234.5 c 128,-1,28
 577 203 577 203 654 203 c 0,29,30
 734 203 734 203 807 223.5 c 128,-1,31
 880 244 880 244 953 284 c 1,32,-1
 1000 104 l 1,33,34
 923 50 923 50 815.5 14.5 c 128,-1,35
 708 -21 708 -21 577 -21 c 0,0,1
486 647 m 1,36,-1
 847 647 l 1,37,-1
 852 673 l 2,38,39
 859 710 859 710 859 741 c 0,40,41
 858 766 858 766 854 786 c 0,42,43
 844 834 844 834 810.5 860 c 128,-1,44
 777 886 777 886 716 886 c 0,45,46
 658 886 658 886 612.5 855.5 c 128,-1,47
 567 825 567 825 535.5 772 c 128,-1,48
 504 719 504 719 484 652 c 1,49,-1
 486 647 l 1,36,-1
EndSplineSet
Substitution2: "'smcp' Lowercase to Small Capitals in Latin lookup 20 subtable" e.sc
Substitution2: "'aalt' Access All Alternates in Latin lookup 0 subtable" e.sc
EndChar

StartChar: uni0259
Encoding: 601 601 245
Width: 1119
GlyphClass: 1
Flags: W
LayerCount: 2
Fore
SplineSet
551 -19 m 0,0,1
 404 -19 404 -19 311.5 40.5 c 0,2,3
 220 100 220 100 184 210 c 0,4,5
 164 272 164 272 163 347 c 0,6,7
 163 404 163 404 175 469 c 2,8,-1
 203 628 l 1,9,-1
 851 628 l 1,10,11
 851 630 851 630 851.5 631.5 c 128,-1,12
 852 633 852 633 852 634 c 0,13,14
 854 654 854 654 854 672 c 0,15,16
 854 720 854 720 839 760 c 0,17,18
 818 816 818 816 769 847.5 c 128,-1,19
 720 879 720 879 644 879 c 0,20,21
 561 879 561 879 489.5 859 c 128,-1,22
 418 839 418 839 337 798 c 1,23,-1
 288 978 l 1,24,25
 363 1031 363 1031 477 1067.5 c 128,-1,26
 591 1104 591 1104 722 1104 c 0,27,28
 878 1104 878 1104 981 1035 c 128,-1,29
 1084 966 1084 966 1126 846 c 0,30,31
 1152 773 1152 773 1152 687 c 0,32,33
 1152 632 1152 632 1142 572 c 2,34,-1
 1135 532 l 2,35,36
 1107 371 1107 371 1025 246.5 c 128,-1,37
 943 122 943 122 821 51.5 c 128,-1,38
 699 -19 699 -19 551 -19 c 0,0,1
588 205 m 0,39,40
 642 205 642 205 686 233 c 128,-1,41
 730 261 730 261 762.5 312 c 128,-1,42
 795 363 795 363 815 430 c 1,43,-1
 813 435 l 1,44,-1
 456 435 l 1,45,-1
 451 409 l 2,46,47
 445 377 445 377 445.5 350 c 0,48,49
 446 322 446 322 451 300 c 0,50,51
 462 254 462 254 496 229.5 c 128,-1,52
 530 205 530 205 588 205 c 0,39,40
EndSplineSet
EndChar

StartChar: f
Encoding: 102 102 246
Width: 799
GlyphClass: 2
Flags: W
AnchorPoint: "Anchor-2" 400 0 basechar 0
AnchorPoint: "Anchor-0" 839 1456 basechar 0
LayerCount: 2
Fore
SplineSet
79 0 m 1,0,-1
 110 175 l 1,1,-1
 256 205 l 1,2,-1
 375 877 l 1,3,-1
 214 877 l 1,4,-1
 250 1082 l 1,5,-1
 411 1082 l 1,6,-1
 432 1202 l 2,7,8
 464 1384 464 1384 586 1482.5 c 128,-1,9
 708 1581 708 1581 896 1581 c 0,10,11
 943 1581 943 1581 993.5 1573.5 c 128,-1,12
 1044 1566 1044 1566 1079 1556 c 1,13,-1
 1016 1339 l 1,14,15
 993 1346 993 1346 963 1349.5 c 128,-1,16
 933 1353 933 1353 901 1353 c 0,17,18
 825 1353 825 1353 781 1314 c 128,-1,19
 737 1275 737 1275 724 1202 c 2,20,-1
 703 1082 l 1,21,-1
 948 1082 l 1,22,-1
 912 877 l 1,23,-1
 667 877 l 1,24,-1
 548 205 l 1,25,-1
 734 175 l 1,26,-1
 703 0 l 1,27,-1
 79 0 l 1,0,-1
EndSplineSet
Substitution2: "'smcp' Lowercase to Small Capitals in Latin lookup 20 subtable" f.sc
Substitution2: "'aalt' Access All Alternates in Latin lookup 0 subtable" f.sc
EndChar

StartChar: g
Encoding: 103 103 247
Width: 1198
GlyphClass: 2
Flags: W
AnchorPoint: "Anchor-2" 491 -502 basechar 0
AnchorPoint: "Anchor-0" 783 1082 basechar 0
LayerCount: 2
Fore
SplineSet
463 -437 m 0,0,1
 381 -437 381 -437 282.5 -416 c 128,-1,2
 184 -395 184 -395 113 -356 c 1,3,-1
 204 -148 l 1,4,5
 269 -178 269 -178 344 -195.5 c 128,-1,6
 419 -213 419 -213 487 -213 c 0,7,8
 604 -213 604 -213 670 -148 c 128,-1,9
 736 -83 736 -83 757 33 c 2,10,-1
 769 104 l 1,11,12
 710 43 710 43 639.5 11 c 128,-1,13
 569 -21 569 -21 485 -21 c 0,14,15
 353 -21 353 -21 270 45.5 c 128,-1,16
 187 112 187 112 158 232 c 0,17,18
 143 293 143 293 143 364 c 0,19,20
 143 433 143 433 157 511 c 2,21,-1
 161 532 l 2,22,23
 191 703 191 703 263.5 831 c 128,-1,24
 336 959 336 959 441.5 1030.5 c 128,-1,25
 547 1102 547 1102 677 1102 c 0,26,27
 774 1102 774 1102 837 1061.5 c 128,-1,28
 900 1021 900 1021 936 946 c 1,29,-1
 981 1082 l 1,30,-1
 1235 1082 l 1,31,-1
 1050 32 l 2,32,33
 1025 -111 1025 -111 945.5 -216 c 128,-1,34
 866 -321 866 -321 743 -379 c 128,-1,35
 620 -437 620 -437 463 -437 c 0,0,1
607 206 m 0,36,37
 669 206 669 206 718.5 230.5 c 128,-1,38
 768 255 768 255 804 302 c 1,39,-1
 887 772 l 1,40,41
 868 821 868 821 827 848 c 128,-1,42
 786 875 786 875 726 875 c 0,43,44
 651 875 651 875 596.5 831.5 c 128,-1,45
 542 788 542 788 506.5 711.5 c 128,-1,46
 471 635 471 635 453 532 c 2,47,-1
 449 511 l 2,48,49
 438 451 438 451 438 402 c 0,50,51
 438 334 438 334 458 288 c 0,52,53
 492 206 492 206 607 206 c 0,36,37
1161 871 m 1,54,-1
 1071 1082 l 1,55,-1
 1362 1082 l 1,56,-1
 1331 906 l 1,57,-1
 1161 871 l 1,54,-1
EndSplineSet
Substitution2: "'ss01' Style Set 1 in Latin lookup 23 subtable" g.ss01
Substitution2: "'smcp' Lowercase to Small Capitals in Latin lookup 20 subtable" g.sc
AlternateSubs2: "'aalt' Access All Alternates in Latin lookup 1 subtable" g.ss01 g.sc
EndChar

StartChar: h
Encoding: 104 104 252
Width: 1302
GlyphClass: 2
Flags: W
AnchorPoint: "Anchor-4" 575 1211 basechar 0
AnchorPoint: "Anchor-2" 651 0 basechar 0
AnchorPoint: "Anchor-0" 596 1456 basechar 0
LayerCount: 2
Fore
SplineSet
47 0 m 1,0,-1
 78 175 l 1,1,-1
 224 205 l 1,2,-1
 427 1354 l 1,3,-1
 276 1384 l 1,4,-1
 307 1560 l 1,5,-1
 754 1560 l 1,6,-1
 645 944 l 1,7,8
 709 1019 709 1019 792 1060.5 c 128,-1,9
 875 1102 875 1102 971 1102 c 0,10,11
 1134 1102 1134 1102 1210 994 c 0,12,13
 1260 923 1260 923 1261 800 c 0,14,15
 1261 736 1261 736 1247 658 c 2,16,-1
 1167 205 l 1,17,-1
 1302 175 l 1,18,-1
 1271 0 l 1,19,-1
 713 0 l 1,20,-1
 744 175 l 1,21,-1
 875 205 l 1,22,-1
 955 660 l 2,23,24
 963 703 963 703 963 738 c 0,25,26
 962 796 962 796 940 826 c 0,27,28
 904 875 904 875 820 875 c 0,29,30
 761 875 761 875 708.5 850.5 c 128,-1,31
 656 826 656 826 616 779 c 1,32,-1
 515 205 l 1,33,-1
 636 175 l 1,34,-1
 605 0 l 1,35,-1
 47 0 l 1,0,-1
EndSplineSet
Substitution2: "'smcp' Lowercase to Small Capitals in Latin lookup 20 subtable" h.sc
Substitution2: "'aalt' Access All Alternates in Latin lookup 0 subtable" h.sc
EndChar

StartChar: dotlessi
Encoding: 305 305 256
Width: 661
GlyphClass: 2
Flags: W
AnchorPoint: "Anchor-3" 627 0 basechar 0
AnchorPoint: "Anchor-2" 338 0 basechar 0
AnchorPoint: "Anchor-0" 527 1082 basechar 0
LayerCount: 2
Fore
SplineSet
54 0 m 1,0,-1
 85 175 l 1,1,-1
 231 205 l 1,2,-1
 349 876 l 1,3,-1
 199 906 l 1,4,-1
 230 1082 l 1,5,-1
 678 1082 l 1,6,-1
 523 205 l 1,7,-1
 658 175 l 1,8,-1
 627 0 l 1,9,-1
 54 0 l 1,0,-1
EndSplineSet
Substitution2: "'smcp' Lowercase to Small Capitals in Latin lookup 20 subtable" i.sc
Substitution2: "'aalt' Access All Alternates in Latin lookup 0 subtable" i.sc
EndChar

StartChar: uni0237
Encoding: 567 567 269
Width: 600
GlyphClass: 2
Flags: W
AnchorPoint: "Anchor-2" 193 -555 basechar 0
AnchorPoint: "Anchor-0" 524 1082 basechar 0
LayerCount: 2
Fore
SplineSet
28 -437 m 0,0,1
 -13 -437 -13 -437 -46 -433 c 128,-1,2
 -79 -429 -79 -429 -113 -420 c 1,3,-1
 -59 -199 l 1,4,5
 -38 -205 -38 -205 -14 -208.5 c 128,-1,6
 10 -212 10 -212 37 -212 c 0,7,8
 94 -212 94 -212 133.5 -167 c 128,-1,9
 173 -122 173 -122 188 -40 c 2,10,-1
 349 876 l 1,11,-1
 199 906 l 1,12,-1
 230 1082 l 1,13,-1
 677 1082 l 1,14,-1
 479 -40 l 2,15,16
 445 -231 445 -231 327 -334 c 128,-1,17
 209 -437 209 -437 28 -437 c 0,0,1
EndSplineSet
Substitution2: "'smcp' Lowercase to Small Capitals in Latin lookup 20 subtable" j.sc
Substitution2: "'aalt' Access All Alternates in Latin lookup 0 subtable" j.sc
EndChar

StartChar: k
Encoding: 107 107 272
Width: 1316
GlyphClass: 2
Flags: W
AnchorPoint: "Anchor-2" 658 0 basechar 0
AnchorPoint: "Anchor-0" 595 1456 basechar 0
LayerCount: 2
Fore
SplineSet
47 0 m 1,0,-1
 78 175 l 1,1,-1
 224 205 l 1,2,-1
 427 1354 l 1,3,-1
 276 1384 l 1,4,-1
 307 1560 l 1,5,-1
 754 1560 l 1,6,-1
 515 205 l 1,7,-1
 636 175 l 1,8,-1
 605 0 l 1,9,-1
 47 0 l 1,0,-1
736 0 m 1,10,-1
 765 166 l 1,11,-1
 851 185 l 1,12,-1
 849 189 l 1,13,-1
 687 480 l 1,14,-1
 906 671 l 1,15,-1
 1179 206 l 1,16,-1
 1308 175 l 1,17,-1
 1277 0 l 1,18,-1
 736 0 l 1,10,-1
500 296 m 1,19,-1
 389 459 l 1,20,-1
 935 889 l 1,21,-1
 937 892 l 1,22,-1
 829 908 l 1,23,-1
 860 1082 l 1,24,-1
 1423 1082 l 1,25,-1
 1392 906 l 1,26,-1
 1246 871 l 1,27,-1
 500 296 l 1,19,-1
EndSplineSet
Substitution2: "'ss05' Style Set 5 in Latin lookup 27 subtable" k.ss05
Substitution2: "'smcp' Lowercase to Small Capitals in Latin lookup 20 subtable" k.sc
AlternateSubs2: "'aalt' Access All Alternates in Latin lookup 1 subtable" k.ss05 k.sc
EndChar

StartChar: kgreenlandic
Encoding: 312 312 274
Width: 1303
GlyphClass: 2
Flags: W
AnchorPoint: "Anchor-2" 656 0 basechar 0
AnchorPoint: "Anchor-0" 843 1082 basechar 0
LayerCount: 2
Fore
SplineSet
513 293 m 1,0,-1
 411 469 l 1,1,-1
 922 887 l 1,2,-1
 926 890 l 1,3,-1
 827 907 l 1,4,-1
 858 1082 l 1,5,-1
 1409 1082 l 1,6,-1
 1378 906 l 1,7,-1
 1233 873 l 1,8,-1
 513 293 l 1,0,-1
51 0 m 1,9,-1
 82 175 l 1,10,-1
 234 208 l 1,11,-1
 351 872 l 1,12,-1
 200 906 l 1,13,-1
 231 1082 l 1,14,-1
 680 1082 l 1,15,-1
 526 208 l 1,16,-1
 658 175 l 1,17,-1
 627 0 l 1,18,-1
 51 0 l 1,9,-1
913 0 m 1,19,-1
 666 476 l 1,20,-1
 896 687 l 1,21,-1
 1154 206 l 1,22,-1
 1274 175 l 1,23,-1
 1243 0 l 1,24,-1
 913 0 l 1,19,-1
EndSplineSet
Substitution2: "'ss05' Style Set 5 in Latin lookup 27 subtable" kgreenlandic.ss05
Substitution2: "'aalt' Access All Alternates in Latin lookup 0 subtable" kgreenlandic.ss05
EndChar

StartChar: l
Encoding: 108 108 275
Width: 653
GlyphClass: 2
Flags: W
AnchorPoint: "Anchor-4" 471 763 basechar 0
AnchorPoint: "Anchor-2" 336 0 basechar 0
AnchorPoint: "Anchor-1" 971 1560 basechar 0
AnchorPoint: "Anchor-0" 593 1456 basechar 0
LayerCount: 2
Fore
SplineSet
47 0 m 1,0,-1
 78 175 l 1,1,-1
 224 205 l 1,2,-1
 427 1354 l 1,3,-1
 276 1384 l 1,4,-1
 307 1560 l 1,5,-1
 755 1560 l 1,6,-1
 516 205 l 1,7,-1
 652 175 l 1,8,-1
 621 0 l 1,9,-1
 47 0 l 1,0,-1
EndSplineSet
Substitution2: "'smcp' Lowercase to Small Capitals in Latin lookup 20 subtable" l.sc
Substitution2: "'aalt' Access All Alternates in Latin lookup 0 subtable" l.sc
EndChar

StartChar: m
Encoding: 109 109 281
Width: 1917
GlyphClass: 2
Flags: W
AnchorPoint: "Anchor-2" 961 0 basechar 0
AnchorPoint: "Anchor-0" 1152 1082 basechar 0
LayerCount: 2
Fore
SplineSet
52 0 m 1,0,-1
 83 175 l 1,1,-1
 229 205 l 1,2,-1
 347 876 l 1,3,-1
 197 906 l 1,4,-1
 228 1082 l 1,5,-1
 655 1082 l 1,6,-1
 642 939 l 1,7,8
 708 1017 708 1017 793.5 1059.5 c 128,-1,9
 879 1102 879 1102 982 1102 c 0,10,11
 1086 1102 1086 1102 1152.5 1056 c 128,-1,12
 1219 1010 1219 1010 1240 917 c 1,13,14
 1305 1004 1305 1004 1393.5 1053 c 128,-1,15
 1482 1102 1482 1102 1590 1102 c 0,16,17
 1750 1102 1750 1102 1824 993 c 0,18,19
 1872 922 1872 922 1872 802 c 0,20,21
 1872 738 1872 738 1858 661 c 2,22,-1
 1777 205 l 1,23,-1
 1913 175 l 1,24,-1
 1882 0 l 1,25,-1
 1323 0 l 1,26,-1
 1354 175 l 1,27,-1
 1485 205 l 1,28,-1
 1566 662 l 2,29,30
 1574 710 1574 710 1574 746 c 0,31,32
 1574 800 1574 800 1556 828 c 0,33,34
 1524 874 1524 874 1449 875 c 0,35,36
 1381 875 1381 875 1327.5 836.5 c 128,-1,37
 1274 798 1274 798 1242 735 c 1,38,-1
 1148 205 l 1,39,-1
 1261 175 l 1,40,-1
 1230 0 l 1,41,-1
 703 0 l 1,42,-1
 734 175 l 1,43,-1
 857 205 l 1,44,-1
 938 662 l 2,45,46
 946 709 946 709 946 745 c 0,47,48
 946 799 946 799 928 827 c 0,49,50
 896 875 896 875 819 875 c 0,51,52
 757 875 757 875 707.5 850 c 128,-1,53
 658 825 658 825 621 778 c 1,54,-1
 520 205 l 1,55,-1
 641 175 l 1,56,-1
 610 0 l 1,57,-1
 52 0 l 1,0,-1
EndSplineSet
Substitution2: "'smcp' Lowercase to Small Capitals in Latin lookup 20 subtable" m.sc
Substitution2: "'aalt' Access All Alternates in Latin lookup 0 subtable" m.sc
EndChar

StartChar: n
Encoding: 110 110 283
Width: 1307
GlyphClass: 2
Flags: W
AnchorPoint: "Anchor-2" 655 0 basechar 0
AnchorPoint: "Anchor-0" 846 1082 basechar 0
LayerCount: 2
Fore
SplineSet
52 0 m 1,0,-1
 83 175 l 1,1,-1
 228 205 l 1,2,-1
 346 876 l 1,3,-1
 197 906 l 1,4,-1
 228 1082 l 1,5,-1
 655 1082 l 1,6,-1
 640 927 l 1,7,8
 709 1010 709 1010 796.5 1056 c 128,-1,9
 884 1102 884 1102 986 1102 c 0,10,11
 1147 1102 1147 1102 1220 999 c 0,12,13
 1268 932 1268 932 1268 815 c 0,14,15
 1268 753 1268 753 1254 676 c 2,16,-1
 1171 205 l 1,17,-1
 1306 175 l 1,18,-1
 1275 0 l 1,19,-1
 717 0 l 1,20,-1
 748 175 l 1,21,-1
 878 205 l 1,22,-1
 961 675 l 2,23,24
 968 713 968 713 968 744 c 0,25,26
 968 800 968 800 945 830 c 0,27,28
 910 876 910 876 825 875 c 0,29,30
 762 875 762 875 711 848.5 c 128,-1,31
 660 822 660 822 620 773 c 1,32,-1
 520 205 l 1,33,-1
 633 175 l 1,34,-1
 602 0 l 1,35,-1
 52 0 l 1,0,-1
EndSplineSet
Substitution2: "'smcp' Lowercase to Small Capitals in Latin lookup 20 subtable" n.sc
Substitution2: "'aalt' Access All Alternates in Latin lookup 0 subtable" n.sc
EndChar

StartChar: eng
Encoding: 331 331 289
Width: 1282
GlyphClass: 1
Flags: W
LayerCount: 2
Fore
SplineSet
715 -437 m 0,0,1
 674 -437 674 -437 640.5 -433 c 128,-1,2
 607 -429 607 -429 573 -420 c 1,3,-1
 626 -196 l 1,4,5
 647 -201 647 -201 671 -204.5 c 128,-1,6
 695 -208 695 -208 721 -208 c 0,7,8
 781 -208 781 -208 820 -165 c 128,-1,9
 859 -122 859 -122 874 -40 c 2,10,-1
 998 662 l 2,11,12
 1006 707 1006 707 1006 741 c 0,13,14
 1006 796 1006 796 986 826 c 0,15,16
 954 874 954 874 871 875 c 0,17,18
 808 875 808 875 755 848 c 128,-1,19
 702 821 702 821 661 774 c 1,20,-1
 561 205 l 1,21,-1
 696 175 l 1,22,-1
 665 0 l 1,23,-1
 93 0 l 1,24,-1
 124 175 l 1,25,-1
 269 205 l 1,26,-1
 387 876 l 1,27,-1
 238 906 l 1,28,-1
 269 1082 l 1,29,-1
 695 1082 l 1,30,-1
 682 930 l 1,31,32
 749 1011 749 1011 837 1056.5 c 128,-1,33
 925 1102 925 1102 1025 1102 c 0,34,35
 1184 1102 1184 1102 1257 996 c 0,36,37
 1304 928 1304 928 1304 809 c 0,38,39
 1304 744 1304 744 1290 663 c 2,40,-1
 1166 -40 l 2,41,42
 1132 -230 1132 -230 1013 -333.5 c 128,-1,43
 894 -437 894 -437 715 -437 c 0,0,1
EndSplineSet
Substitution2: "'smcp' Lowercase to Small Capitals in Latin lookup 20 subtable" eng.sc
Substitution2: "'aalt' Access All Alternates in Latin lookup 0 subtable" eng.sc
EndChar

StartChar: o
Encoding: 111 111 290
Width: 1155
GlyphClass: 2
Flags: W
AnchorPoint: "Anchor-4" 673 541 basechar 0
AnchorPoint: "Anchor-3" 843 0 basechar 0
AnchorPoint: "Anchor-2" 578 0 basechar 0
AnchorPoint: "Anchor-1" 1205 1082 basechar 0
AnchorPoint: "Anchor-0" 769 1082 basechar 0
LayerCount: 2
Fore
SplineSet
575 -21 m 0,0,1
 415 -21 415 -21 312.5 49 c 0,2,3
 210 120 210 120 171 244 c 0,4,5
 148 316 148 316 148 401 c 0,6,7
 148 462 148 462 160 530 c 2,8,-1
 164 551 l 2,9,10
 192 712 192 712 275 836.5 c 128,-1,11
 358 961 358 961 485 1031.5 c 128,-1,12
 612 1102 612 1102 771 1102 c 0,13,14
 932 1102 932 1102 1033.5 1031.5 c 0,15,16
 1134 961 1134 961 1174 837 c 0,17,18
 1197 765 1197 765 1197 681 c 0,19,20
 1197 619 1197 619 1185 551 c 2,21,-1
 1181 530 l 2,22,23
 1152 368 1152 368 1069.5 243.5 c 128,-1,24
 987 119 987 119 860.5 49 c 128,-1,25
 734 -21 734 -21 575 -21 c 0,0,1
615 203 m 0,26,27
 691 203 691 203 746 244 c 128,-1,28
 801 285 801 285 837 358.5 c 128,-1,29
 873 432 873 432 890 530 c 2,30,-1
 894 551 l 2,31,32
 905 611 905 611 905 663 c 0,33,34
 905 692 905 692 901 720 c 0,35,36
 891 794 891 794 850 835.5 c 128,-1,37
 809 877 809 877 732 877 c 0,38,39
 657 877 657 877 600.5 835.5 c 128,-1,40
 544 794 544 794 508.5 720.5 c 128,-1,41
 473 647 473 647 456 551 c 2,42,-1
 452 530 l 2,43,44
 441 467 441 467 441 414 c 0,45,46
 440 384 440 384 444 358 c 0,47,48
 454 284 454 284 496 243.5 c 128,-1,49
 538 203 538 203 615 203 c 0,26,27
EndSplineSet
Substitution2: "'smcp' Lowercase to Small Capitals in Latin lookup 20 subtable" o.sc
Substitution2: "Single Substitution lookup 17 subtable" ordmasculine
AlternateSubs2: "'aalt' Access All Alternates in Latin lookup 1 subtable" o.sc ordmasculine
EndChar

StartChar: oe
Encoding: 339 339 314
Width: 1828
GlyphClass: 2
Flags: W
AnchorPoint: "Anchor-2" 920 0 basechar 0
AnchorPoint: "Anchor-0" 1115 1082 basechar 0
LayerCount: 2
Fore
SplineSet
575 -21 m 0,0,1
 415 -21 415 -21 312.5 49 c 0,2,3
 210 120 210 120 171 244 c 0,4,5
 148 316 148 316 148 401 c 0,6,7
 148 462 148 462 160 530 c 2,8,-1
 164 551 l 2,9,10
 192 712 192 712 275 836.5 c 128,-1,11
 358 961 358 961 485 1031.5 c 128,-1,12
 612 1102 612 1102 771 1102 c 0,13,14
 886 1102 886 1102 972 1059.5 c 128,-1,15
 1058 1017 1058 1017 1112 939 c 1,16,17
 1190 1019 1190 1019 1285.5 1060.5 c 128,-1,18
 1381 1102 1381 1102 1489 1102 c 0,19,20
 1635 1102 1635 1102 1727.5 1042.5 c 128,-1,21
 1820 983 1820 983 1856 873 c 0,22,23
 1876 811 1876 811 1876 735 c 0,24,25
 1876 678 1876 678 1864 613 c 2,26,-1
 1836 454 l 1,27,-1
 1188 454 l 1,28,-1
 1186 448 l 1,29,30
 1184 428 1184 428 1184 410 c 0,31,32
 1184 362 1184 362 1199 322 c 0,33,34
 1220 266 1220 266 1267 234.5 c 128,-1,35
 1314 203 1314 203 1388 203 c 0,36,37
 1453 203 1453 203 1503 211.5 c 128,-1,38
 1553 220 1553 220 1600 238 c 128,-1,39
 1647 256 1647 256 1702 284 c 1,40,-1
 1750 104 l 1,41,42
 1675 51 1675 51 1561.5 15 c 128,-1,43
 1448 -21 1448 -21 1317 -21 c 0,44,45
 1239 -21 1239 -21 1174 -2.5 c 128,-1,46
 1109 16 1109 16 1058.5 52 c 128,-1,47
 1008 88 1008 88 972 140 c 1,48,49
 893 61 893 61 792 20 c 128,-1,50
 691 -21 691 -21 575 -21 c 0,0,1
615 203 m 0,51,52
 690 203 690 203 745 244 c 128,-1,53
 800 285 800 285 836.5 358.5 c 128,-1,54
 873 432 873 432 890 530 c 2,55,-1
 894 551 l 2,56,57
 905 610 905 610 905 661 c 0,58,59
 904 692 904 692 900 720 c 0,60,61
 890 794 890 794 849 835.5 c 128,-1,62
 808 877 808 877 732 877 c 256,63,64
 656 877 656 877 600 835.5 c 128,-1,65
 544 794 544 794 508.5 720.5 c 128,-1,66
 473 647 473 647 456 551 c 2,67,-1
 452 530 l 2,68,69
 441 467 441 467 441 414 c 0,70,71
 440 384 440 384 444 358 c 0,72,73
 454 284 454 284 496 243.5 c 128,-1,74
 538 203 538 203 615 203 c 0,51,52
1225 647 m 1,75,-1
 1584 647 l 1,76,-1
 1589 673 l 2,77,78
 1594 704 1594 704 1594 730 c 0,79,80
 1594 758 1594 758 1588 782 c 0,81,82
 1576 828 1576 828 1542.5 852.5 c 128,-1,83
 1509 877 1509 877 1450 877 c 0,84,85
 1396 877 1396 877 1352 849 c 128,-1,86
 1308 821 1308 821 1275.5 770 c 128,-1,87
 1243 719 1243 719 1224 652 c 1,88,-1
 1225 647 l 1,75,-1
EndSplineSet
Substitution2: "'smcp' Lowercase to Small Capitals in Latin lookup 20 subtable" oe.sc
Substitution2: "'aalt' Access All Alternates in Latin lookup 0 subtable" oe.sc
EndChar

StartChar: p
Encoding: 112 112 315
Width: 1240
GlyphClass: 2
Flags: W
AnchorPoint: "Anchor-2" 620 0 basechar 0
AnchorPoint: "Anchor-0" 811 1082 basechar 0
LayerCount: 2
Fore
SplineSet
-17 -416 m 1,0,-1
 14 -240 l 1,1,-1
 160 -210 l 1,2,-1
 351 876 l 1,3,-1
 201 906 l 1,4,-1
 232 1082 l 1,5,-1
 656 1082 l 1,6,-1
 648 956 l 1,7,8
 708 1026 708 1026 782.5 1064 c 128,-1,9
 857 1102 857 1102 951 1102 c 0,10,11
 1082 1102 1082 1102 1162.5 1030.5 c 128,-1,12
 1243 959 1243 959 1270 831 c 0,13,14
 1283 770 1283 770 1283 700 c 0,15,16
 1283 622 1283 622 1267 532 c 2,17,-1
 1263 511 l 2,18,19
 1235 351 1235 351 1164.5 231.5 c 128,-1,20
 1094 112 1094 112 988.5 45.5 c 128,-1,21
 883 -21 883 -21 751 -21 c 0,22,23
 664 -21 664 -21 603 10.5 c 128,-1,24
 542 42 542 42 506 103 c 1,25,-1
 451 -210 l 1,26,-1
 587 -240 l 1,27,-1
 556 -416 l 1,28,-1
 -17 -416 l 1,0,-1
704 203 m 0,29,30
 816 203 816 203 881 286 c 128,-1,31
 946 369 946 369 971 511 c 2,32,-1
 975 532 l 2,33,34
 987 599 987 599 987 655 c 0,35,36
 988 686 988 686 984 712 c 0,37,38
 974 788 974 788 934 831.5 c 128,-1,39
 894 875 894 875 820 875 c 0,40,41
 760 875 760 875 710 848 c 128,-1,42
 660 821 660 821 624 771 c 1,43,-1
 540 297 l 1,44,45
 559 251 559 251 600.5 227 c 128,-1,46
 642 203 642 203 704 203 c 0,29,30
EndSplineSet
Substitution2: "'smcp' Lowercase to Small Capitals in Latin lookup 20 subtable" p.sc
Substitution2: "'aalt' Access All Alternates in Latin lookup 0 subtable" p.sc
EndChar

StartChar: thorn
Encoding: 254 254 316
Width: 1233
GlyphClass: 2
Flags: W
AnchorPoint: "Anchor-2" 466 -159 basechar 0
AnchorPoint: "Anchor-0" 710 1225 basechar 0
LayerCount: 2
Fore
SplineSet
-24 -416 m 1,0,-1
 7 -240 l 1,1,-1
 153 -210 l 1,2,-1
 429 1354 l 1,3,-1
 278 1384 l 1,4,-1
 309 1560 l 1,5,-1
 756 1560 l 1,6,-1
 652 969 l 1,7,8
 710 1033 710 1033 782 1067.5 c 128,-1,9
 854 1102 854 1102 945 1102 c 0,10,11
 1075 1102 1075 1102 1155.5 1030.5 c 128,-1,12
 1236 959 1236 959 1263 831 c 0,13,14
 1276 770 1276 770 1276 700 c 0,15,16
 1276 622 1276 622 1260 532 c 2,17,-1
 1256 511 l 2,18,19
 1228 351 1228 351 1157.5 231.5 c 128,-1,20
 1087 112 1087 112 981.5 45.5 c 128,-1,21
 876 -21 876 -21 745 -21 c 0,22,23
 657 -21 657 -21 596 10.5 c 128,-1,24
 535 42 535 42 499 103 c 1,25,-1
 444 -210 l 1,26,-1
 580 -240 l 1,27,-1
 549 -416 l 1,28,-1
 -24 -416 l 1,0,-1
696 203 m 0,29,30
 809 203 809 203 874 286 c 128,-1,31
 939 369 939 369 964 511 c 2,32,-1
 968 532 l 2,33,34
 980 599 980 599 980 655 c 0,35,36
 980 686 980 686 976 712 c 0,37,38
 966 788 966 788 926 831.5 c 128,-1,39
 886 875 886 875 812 875 c 0,40,41
 753 875 753 875 703 848 c 128,-1,42
 653 821 653 821 617 771 c 1,43,-1
 533 297 l 1,44,45
 552 251 552 251 593.5 227 c 128,-1,46
 635 203 635 203 696 203 c 0,29,30
EndSplineSet
Substitution2: "'smcp' Lowercase to Small Capitals in Latin lookup 20 subtable" thorn.sc
Substitution2: "'aalt' Access All Alternates in Latin lookup 0 subtable" thorn.sc
EndChar

StartChar: q
Encoding: 113 113 317
Width: 1156
GlyphClass: 2
Flags: W
AnchorPoint: "Anchor-2" 670 -159 basechar 0
AnchorPoint: "Anchor-0" 769 1082 basechar 0
LayerCount: 2
Fore
SplineSet
503 -416 m 1,0,-1
 533 -244 l 1,1,-1
 710 -210 l 1,2,-1
 765 100 l 1,3,4
 705 40 705 40 635 9.5 c 128,-1,5
 565 -21 565 -21 479 -21 c 0,6,7
 348 -21 348 -21 267 45.5 c 128,-1,8
 186 112 186 112 158 232 c 0,9,10
 144 292 144 292 143 362 c 0,11,12
 143 431 143 431 157 511 c 2,13,-1
 161 532 l 2,14,15
 191 703 191 703 263 831 c 128,-1,16
 335 959 335 959 440.5 1030.5 c 128,-1,17
 546 1102 546 1102 676 1102 c 0,18,19
 771 1102 771 1102 833 1063 c 128,-1,20
 895 1024 895 1024 931 952 c 1,21,-1
 976 1082 l 1,22,-1
 1230 1082 l 1,23,-1
 1002 -210 l 1,24,-1
 1128 -239 l 1,25,-1
 1097 -416 l 1,26,-1
 503 -416 l 1,0,-1
604 203 m 0,27,28
 663 203 663 203 712.5 226.5 c 128,-1,29
 762 250 762 250 799 296 c 1,30,-1
 884 777 l 1,31,32
 863 825 863 825 823.5 851 c 128,-1,33
 784 877 784 877 725 877 c 0,34,35
 651 877 651 877 596 833.5 c 128,-1,36
 541 790 541 790 506 712.5 c 128,-1,37
 471 635 471 635 453 532 c 2,38,-1
 449 511 l 2,39,40
 438 450 438 450 438 400 c 0,41,42
 438 334 438 334 458 286 c 0,43,44
 492 204 492 204 604 203 c 0,27,28
EndSplineSet
Substitution2: "'smcp' Lowercase to Small Capitals in Latin lookup 20 subtable" q.sc
Substitution2: "'aalt' Access All Alternates in Latin lookup 0 subtable" q.sc
EndChar

StartChar: r
Encoding: 114 114 318
Width: 886
GlyphClass: 2
Flags: W
AnchorPoint: "Anchor-2" 410 0 basechar 0
AnchorPoint: "Anchor-0" 643 1082 basechar 0
LayerCount: 2
Fore
SplineSet
85 0 m 1,0,-1
 116 175 l 1,1,-1
 261 205 l 1,2,-1
 379 876 l 1,3,-1
 230 906 l 1,4,-1
 261 1082 l 1,5,-1
 688 1082 l 1,6,-1
 675 948 l 1,7,-1
 673 924 l 1,8,9
 729 1012 729 1012 795.5 1057 c 128,-1,10
 862 1102 862 1102 944 1102 c 0,11,12
 970 1102 970 1102 1000.5 1097.5 c 128,-1,13
 1031 1093 1031 1093 1053 1086 c 1,14,-1
 975 817 l 1,15,-1
 831 825 l 2,16,17
 824 825 824 825 818 825 c 0,18,19
 766 825 766 825 728 804 c 0,20,21
 686 780 686 780 647 735 c 1,22,-1
 553 205 l 1,23,-1
 688 175 l 1,24,-1
 657 0 l 1,25,-1
 85 0 l 1,0,-1
EndSplineSet
Substitution2: "'smcp' Lowercase to Small Capitals in Latin lookup 20 subtable" r.sc
Substitution2: "'aalt' Access All Alternates in Latin lookup 0 subtable" r.sc
EndChar

StartChar: s
Encoding: 115 115 322
Width: 1034
GlyphClass: 2
Flags: W
AnchorPoint: "Anchor-2" 517 0 basechar 0
AnchorPoint: "Anchor-0" 708 1082 basechar 0
LayerCount: 2
Fore
SplineSet
523 -21 m 0,0,1
 402 -21 402 -21 301.5 2 c 128,-1,2
 201 25 201 25 113 68 c 1,3,-1
 164 374 l 1,4,-1
 367 374 l 1,5,-1
 378 218 l 1,6,7
 409 201 409 201 448 191 c 128,-1,8
 487 181 487 181 539 181 c 0,9,10
 637 181 637 181 682.5 213 c 128,-1,11
 728 245 728 245 737 293 c 0,12,13
 738 301 738 301 738 309 c 0,14,15
 738 344 738 344 708 372 c 0,16,17
 672 406 672 406 549 433 c 0,18,19
 364 473 364 473 288 557 c 0,20,21
 230 621 230 621 230 714 c 0,22,23
 230 742 230 742 235 772 c 0,24,25
 251 862 251 862 309.5 936 c 128,-1,26
 368 1010 368 1010 469.5 1055 c 128,-1,27
 571 1100 571 1100 717 1100 c 0,28,29
 839 1100 839 1100 936.5 1076.5 c 128,-1,30
 1034 1053 1034 1053 1096 1015 c 1,31,-1
 1047 719 l 1,32,-1
 845 719 l 1,33,-1
 839 861 l 1,34,35
 816 881 816 881 781 891 c 128,-1,36
 746 901 746 901 700 901 c 0,37,38
 623 901 623 901 576.5 870 c 128,-1,39
 530 839 530 839 521 790 c 0,40,41
 516 762 516 762 526.5 738 c 128,-1,42
 537 714 537 714 576 693 c 128,-1,43
 615 672 615 672 694 653 c 0,44,45
 888 606 888 606 966 530 c 0,46,47
 1026 471 1026 471 1026 377 c 0,48,49
 1026 348 1026 348 1020 316 c 0,50,51
 993 165 993 165 867 72 c 128,-1,52
 741 -21 741 -21 523 -21 c 0,0,1
EndSplineSet
Substitution2: "'ss03' Style Set 3 in Latin lookup 25 subtable" s.ss03
Substitution2: "'smcp' Lowercase to Small Capitals in Latin lookup 20 subtable" s.sc
AlternateSubs2: "'aalt' Access All Alternates in Latin lookup 1 subtable" s.ss03 s.sc
EndChar

StartChar: germandbls
Encoding: 223 223 328
Width: 1321
GlyphClass: 2
Flags: W
AnchorPoint: "Anchor-2" 661 0 basechar 0
AnchorPoint: "Anchor-0" 877 1225 basechar 0
LayerCount: 2
Fore
SplineSet
835 -21 m 0,0,1
 784 -21 784 -21 734 -14.5 c 128,-1,2
 684 -8 684 -8 644 5 c 128,-1,3
 604 18 604 18 582 35 c 1,4,-1
 675 258 l 1,5,6
 707 236 707 236 758 219.5 c 128,-1,7
 809 203 809 203 869 203 c 0,8,9
 945 203 945 203 994.5 241 c 128,-1,10
 1044 279 1044 279 1056 344 c 0,11,12
 1058 357 1058 357 1058 369 c 0,13,14
 1058 404 1058 404 1042 438 c 0,15,16
 1020 484 1020 484 983 528.5 c 128,-1,17
 946 573 946 573 910 621 c 0,18,19
 874 668 874 668 853 722 c 0,20,21
 839 757 839 757 839 796 c 0,22,23
 839 816 839 816 843 838 c 0,24,25
 851 884 851 884 875.5 930 c 128,-1,26
 900 976 900 976 930.5 1023.5 c 128,-1,27
 961 1071 961 1071 985.5 1118 c 128,-1,28
 1010 1165 1010 1165 1019 1211 c 0,29,30
 1022 1228 1022 1228 1022 1243 c 0,31,32
 1022 1286 1022 1286 1000 1316 c 0,33,34
 970 1358 970 1358 902 1357 c 0,35,36
 820 1357 820 1357 761.5 1293 c 128,-1,37
 703 1229 703 1229 683 1118 c 2,38,-1
 486 0 l 1,39,-1
 39 0 l 1,40,-1
 70 175 l 1,41,-1
 230 205 l 1,42,-1
 391 1116 l 2,43,44
 417 1265 417 1265 493 1369 c 128,-1,45
 569 1473 569 1473 684 1527 c 128,-1,46
 799 1581 799 1581 941 1581 c 0,47,48
 1068 1581 1068 1581 1157 1537 c 0,49,50
 1246 1494 1246 1494 1287 1412 c 0,51,52
 1315 1357 1315 1357 1315 1288 c 0,53,54
 1315 1254 1315 1254 1308 1217 c 0,55,56
 1297 1157 1297 1157 1271.5 1106 c 128,-1,57
 1246 1055 1246 1055 1218 1011 c 128,-1,58
 1190 967 1190 967 1166.5 928 c 128,-1,59
 1143 889 1143 889 1137 854 c 0,60,61
 1135 842 1135 842 1135 831 c 0,62,63
 1135 798 1135 798 1152 768 c 0,64,65
 1175 728 1175 728 1212.5 688 c 128,-1,66
 1250 648 1250 648 1286.5 599.5 c 128,-1,67
 1323 551 1323 551 1342 489 c 0,68,69
 1353 453 1353 453 1353 411 c 0,70,71
 1353 380 1353 380 1347 344 c 0,72,73
 1326 224 1326 224 1260 142.5 c 128,-1,74
 1194 61 1194 61 1087 20 c 128,-1,75
 980 -21 980 -21 835 -21 c 0,0,1
EndSplineSet
Substitution2: "'smcp' Lowercase to Small Capitals in Latin lookup 20 subtable" germandbls.sc
Substitution2: "'aalt' Access All Alternates in Latin lookup 0 subtable" germandbls.sc
EndChar

StartChar: longs
Encoding: 383 383 329
Width: 753
GlyphClass: 2
Flags: W
AnchorPoint: "Anchor-2" 362 0 basechar 0
AnchorPoint: "Anchor-0" 647 1225 basechar 0
LayerCount: 2
Fore
SplineSet
44 0 m 1,0,-1
 75 175 l 1,1,-1
 220 205 l 1,2,-1
 396 1202 l 2,3,4
 428 1384 428 1384 551 1482.5 c 128,-1,5
 674 1581 674 1581 859 1581 c 0,6,7
 901 1581 901 1581 940.5 1575.5 c 128,-1,8
 980 1570 980 1570 1019 1560 c 1,9,-1
 957 1345 l 1,10,11
 933 1351 933 1351 910.5 1353.5 c 128,-1,12
 888 1356 888 1356 865 1356 c 0,13,14
 792 1356 792 1356 746.5 1315.5 c 128,-1,15
 701 1275 701 1275 688 1202 c 2,16,-1
 512 205 l 1,17,-1
 662 175 l 1,18,-1
 631 0 l 1,19,-1
 44 0 l 1,0,-1
EndSplineSet
EndChar

StartChar: t
Encoding: 116 116 330
Width: 735
GlyphClass: 2
Flags: W
AnchorPoint: "Anchor-4" 463 674 basechar 0
AnchorPoint: "Anchor-2" 373 0 basechar 0
AnchorPoint: "Anchor-1" 968 1560 basechar 0
AnchorPoint: "Anchor-0" 558 1281 basechar 0
LayerCount: 2
Fore
SplineSet
484 -21 m 0,0,1
 332 -21 332 -21 266 62 c 0,2,3
 221 119 221 119 221 220 c 0,4,5
 221 267 221 267 231 325 c 2,6,-1
 329 877 l 1,7,-1
 180 877 l 1,8,-1
 216 1082 l 1,9,-1
 365 1082 l 1,10,-1
 412 1347 l 1,11,-1
 703 1347 l 1,12,-1
 656 1082 l 1,13,-1
 855 1082 l 1,14,-1
 819 877 l 1,15,-1
 620 877 l 1,16,-1
 522 326 l 2,17,18
 518 305 518 305 518 288 c 0,19,20
 518 254 518 254 533 236 c 0,21,22
 555 209 555 209 601 209 c 0,23,24
 626 209 626 209 654 213 c 128,-1,25
 682 217 682 217 703 220 c 1,26,-1
 691 9 l 1,27,28
 644 -4 644 -4 589.5 -12.5 c 128,-1,29
 535 -21 535 -21 484 -21 c 0,0,1
EndSplineSet
Substitution2: "'smcp' Lowercase to Small Capitals in Latin lookup 20 subtable" t.sc
Substitution2: "'aalt' Access All Alternates in Latin lookup 0 subtable" t.sc
EndChar

StartChar: u
Encoding: 117 117 335
Width: 1275
GlyphClass: 2
Flags: W
AnchorPoint: "Anchor-3" 1230 0 basechar 0
AnchorPoint: "Anchor-2" 636 0 basechar 0
AnchorPoint: "Anchor-1" 1406 1082 basechar 0
AnchorPoint: "Anchor-0" 820 1082 basechar 0
LayerCount: 2
Fore
SplineSet
518 -21 m 0,0,1
 347 -20 347 -20 269 88 c 0,2,3
 217 160 217 160 217 284 c 0,4,5
 217 348 217 348 231 425 c 2,6,-1
 310 876 l 1,7,-1
 197 906 l 1,8,-1
 228 1082 l 1,9,-1
 347 1082 l 1,10,-1
 639 1082 l 1,11,-1
 523 423 l 2,12,13
 515 378 515 378 515 342 c 0,14,15
 515 286 515 286 534 256 c 0,16,17
 565 206 565 206 647 206 c 0,18,19
 712 206 712 206 766.5 231.5 c 128,-1,20
 821 257 821 257 862 304 c 1,21,-1
 962 876 l 1,22,-1
 839 906 l 1,23,-1
 870 1082 l 1,24,-1
 999 1082 l 1,25,-1
 1291 1082 l 1,26,-1
 1136 205 l 1,27,-1
 1261 175 l 1,28,-1
 1230 0 l 1,29,-1
 844 0 l 1,30,-1
 848 137 l 1,31,32
 784 61 784 61 699.5 20 c 128,-1,33
 615 -21 615 -21 518 -21 c 0,0,1
EndSplineSet
Substitution2: "'smcp' Lowercase to Small Capitals in Latin lookup 20 subtable" u.sc
Substitution2: "'aalt' Access All Alternates in Latin lookup 0 subtable" u.sc
EndChar

StartChar: v
Encoding: 118 118 354
Width: 1247
GlyphClass: 2
Flags: W
AnchorPoint: "Anchor-2" 623 0 basechar 0
AnchorPoint: "Anchor-0" 814 1082 basechar 0
LayerCount: 2
Fore
SplineSet
466 0 m 1,0,-1
 296 888 l 1,1,-1
 182 906 l 1,2,-1
 213 1082 l 1,3,-1
 738 1082 l 1,4,-1
 707 907 l 1,5,-1
 589 887 l 1,6,-1
 666 396 l 1,7,-1
 676 312 l 1,8,-1
 682 312 l 1,9,-1
 725 396 l 1,10,-1
 990 886 l 1,11,-1
 861 907 l 1,12,-1
 892 1082 l 1,13,-1
 1416 1082 l 1,14,-1
 1385 906 l 1,15,-1
 1261 886 l 1,16,-1
 763 0 l 1,17,-1
 466 0 l 1,0,-1
EndSplineSet
Substitution2: "'smcp' Lowercase to Small Capitals in Latin lookup 20 subtable" v.sc
Substitution2: "'aalt' Access All Alternates in Latin lookup 0 subtable" v.sc
EndChar

StartChar: w
Encoding: 119 119 355
Width: 1822
GlyphClass: 2
Flags: W
AnchorPoint: "Anchor-2" 911 0 basechar 0
AnchorPoint: "Anchor-0" 1102 1082 basechar 0
LayerCount: 2
Fore
SplineSet
417 0 m 1,0,-1
 321 882 l 1,1,-1
 193 906 l 1,2,-1
 224 1082 l 1,3,-1
 747 1082 l 1,4,-1
 716 907 l 1,5,-1
 598 885 l 1,6,-1
 624 464 l 1,7,-1
 629 381 l 1,8,-1
 635 381 l 1,9,-1
 677 464 l 1,10,-1
 1008 1082 l 1,11,-1
 1204 1082 l 1,12,-1
 1308 456 l 1,13,-1
 1321 368 l 1,14,-1
 1327 368 l 1,15,-1
 1368 456 l 1,16,-1
 1562 884 l 1,17,-1
 1440 907 l 1,18,-1
 1471 1082 l 1,19,-1
 1983 1082 l 1,20,-1
 1952 906 l 1,21,-1
 1822 882 l 1,22,-1
 1391 0 l 1,23,-1
 1145 0 l 1,24,-1
 1042 536 l 1,25,-1
 1027 655 l 1,26,-1
 1021 655 l 1,27,-1
 965 535 l 1,28,-1
 676 0 l 1,29,-1
 417 0 l 1,0,-1
EndSplineSet
Substitution2: "'smcp' Lowercase to Small Capitals in Latin lookup 20 subtable" w.sc
Substitution2: "'aalt' Access All Alternates in Latin lookup 0 subtable" w.sc
EndChar

StartChar: x
Encoding: 120 120 360
Width: 1319
GlyphClass: 2
Flags: W
AnchorPoint: "Anchor-2" 660 0 basechar 0
AnchorPoint: "Anchor-0" 851 1082 basechar 0
LayerCount: 2
Fore
SplineSet
30 0 m 1,0,-1
 61 175 l 1,1,-1
 203 193 l 1,2,-1
 575 542 l 1,3,-1
 343 889 l 1,4,-1
 215 906 l 1,5,-1
 246 1082 l 1,6,-1
 782 1082 l 1,7,-1
 752 914 l 1,8,-1
 666 901 l 1,9,-1
 787 695 l 1,10,-1
 980 901 l 1,11,-1
 889 914 l 1,12,-1
 919 1082 l 1,13,-1
 1436 1082 l 1,14,-1
 1405 906 l 1,15,-1
 1281 889 l 1,16,-1
 945 554 l 1,17,-1
 1190 193 l 1,18,-1
 1320 175 l 1,19,-1
 1289 0 l 1,20,-1
 734 0 l 1,21,-1
 763 167 l 1,22,-1
 860 180 l 1,23,-1
 729 387 l 1,24,-1
 530 179 l 1,25,-1
 619 167 l 1,26,-1
 590 0 l 1,27,-1
 30 0 l 1,0,-1
EndSplineSet
Substitution2: "'smcp' Lowercase to Small Capitals in Latin lookup 20 subtable" x.sc
Substitution2: "'aalt' Access All Alternates in Latin lookup 0 subtable" x.sc
EndChar

StartChar: y
Encoding: 121 121 361
Width: 1285
GlyphClass: 2
Flags: W
AnchorPoint: "Anchor-2" 989 0 basechar 0
AnchorPoint: "Anchor-0" 838 1082 basechar 0
LayerCount: 2
Fore
SplineSet
286 -437 m 0,0,1
 248 -437 248 -437 206.5 -430.5 c 128,-1,2
 165 -424 165 -424 129 -413 c 1,3,-1
 200 -199 l 1,4,5
 218 -203 218 -203 241 -205 c 128,-1,6
 264 -207 264 -207 280 -207 c 0,7,8
 343 -207 343 -207 395 -174 c 128,-1,9
 447 -141 447 -141 479 -79 c 2,10,-1
 515 -12 l 1,11,-1
 311 887 l 1,12,-1
 182 906 l 1,13,-1
 213 1082 l 1,14,-1
 787 1082 l 1,15,-1
 756 906 l 1,16,-1
 620 886 l 1,17,-1
 706 409 l 1,18,-1
 717 350 l 1,19,-1
 723 350 l 1,20,-1
 1019 888 l 1,21,-1
 893 906 l 1,22,-1
 924 1082 l 1,23,-1
 1459 1082 l 1,24,-1
 1428 906 l 1,25,-1
 1303 889 l 1,26,-1
 705 -161 l 2,27,28
 662 -236 662 -236 604 -298.5 c 128,-1,29
 546 -361 546 -361 468 -399 c 128,-1,30
 390 -437 390 -437 286 -437 c 0,0,1
EndSplineSet
Substitution2: "'smcp' Lowercase to Small Capitals in Latin lookup 20 subtable" y.sc
Substitution2: "'aalt' Access All Alternates in Latin lookup 0 subtable" y.sc
EndChar

StartChar: z
Encoding: 122 122 369
Width: 1107
GlyphClass: 2
Flags: W
AnchorPoint: "Anchor-2" 554 0 basechar 0
AnchorPoint: "Anchor-0" 745 1082 basechar 0
LayerCount: 2
Fore
SplineSet
88 0 m 1,0,-1
 118 172 l 1,1,-1
 806 878 l 1,2,-1
 514 878 l 1,3,-1
 448 693 l 1,4,-1
 234 693 l 1,5,-1
 303 1082 l 1,6,-1
 1192 1082 l 1,7,-1
 1159 895 l 1,8,-1
 507 209 l 1,9,-1
 813 209 l 1,10,-1
 891 408 l 1,11,-1
 1096 408 l 1,12,-1
 1024 0 l 1,13,-1
 88 0 l 1,0,-1
EndSplineSet
Substitution2: "'smcp' Lowercase to Small Capitals in Latin lookup 20 subtable" z.sc
Substitution2: "'aalt' Access All Alternates in Latin lookup 0 subtable" z.sc
EndChar

StartChar: g.ss01
Encoding: 65548 -1 373
Width: 1150
GlyphClass: 2
Flags: W
AnchorPoint: "Anchor-2" 490 -416 basechar 0
AnchorPoint: "Anchor-0" 766 1082 basechar 0
LayerCount: 2
Fore
SplineSet
452 -438 m 0,0,1
 225 -438 225 -438 110 -357 c 0,2,3
 13 -289 13 -289 13 -193 c 0,4,5
 13 -176 13 -176 16 -157 c 0,6,7
 30 -75 30 -75 91 -13.5 c 128,-1,8
 152 48 152 48 240 86 c 1,9,10
 218 109 218 109 210 140 c 0,11,12
 206 157 206 157 206 176 c 0,13,14
 206 193 206 193 209 211 c 0,15,16
 220 275 220 275 259.5 322.5 c 128,-1,17
 299 370 299 370 358 406 c 1,18,19
 271 456 271 456 232 538 c 0,20,21
 205 595 205 595 205 659 c 0,22,23
 205 687 205 687 210 717 c 2,24,-1
 213 731 l 2,25,26
 232 841 232 841 306 924.5 c 128,-1,27
 380 1008 380 1008 494 1055 c 128,-1,28
 608 1102 608 1102 749 1102 c 0,29,30
 794 1102 794 1102 835.5 1096.5 c 128,-1,31
 877 1091 877 1091 915 1082 c 1,32,-1
 1287 1082 l 1,33,-1
 1260 928 l 1,34,-1
 1118 928 l 1,35,36
 1145 886 1145 886 1155 836 c 0,37,38
 1160 811 1160 811 1160 784.5 c 128,-1,39
 1160 758 1160 758 1155 731 c 2,40,-1
 1152 717 l 2,41,42
 1133 612 1133 612 1059 528 c 128,-1,43
 985 444 985 444 870.5 395 c 128,-1,44
 756 346 756 346 616 346 c 0,45,46
 589 346 589 346 560 348.5 c 128,-1,47
 531 351 531 351 502 356 c 1,48,49
 488 344 488 344 477.5 329 c 128,-1,50
 467 314 467 314 464 295 c 0,51,52
 458 261 458 261 488.5 246 c 128,-1,53
 519 231 519 231 579 231 c 2,54,-1
 745 231 l 2,55,56
 928 232 928 232 1016 152 c 0,57,58
 1083 91 1083 91 1083 -9 c 0,59,60
 1083 -38 1083 -38 1077 -71 c 0,61,62
 1059 -173 1059 -173 974 -256 c 128,-1,63
 889 -339 889 -339 754.5 -388.5 c 128,-1,64
 620 -438 620 -438 452 -438 c 0,0,1
494 -230 m 0,65,66
 578 -230 578 -230 641 -210 c 128,-1,67
 704 -190 704 -190 740.5 -159 c 128,-1,68
 777 -128 777 -128 784 -93 c 0,69,70
 786 -83 786 -83 786 -74 c 0,71,72
 786 -42 786 -42 764 -21 c 0,73,74
 736 6 736 6 660 6 c 2,75,-1
 460 6 l 2,76,77
 436 6 436 6 415 7.5 c 128,-1,78
 394 9 394 9 375 13 c 1,79,80
 357 1 357 1 341.5 -16 c 128,-1,81
 326 -33 326 -33 316 -53 c 128,-1,82
 306 -73 306 -73 302 -95 c 0,83,84
 300 -105 300 -105 300 -115 c 0,85,86
 300 -161 300 -161 340 -192 c 0,87,88
 388 -230 388 -230 494 -230 c 0,65,66
654 557 m 256,89,90
 709 557 709 557 753 578.5 c 128,-1,91
 797 600 797 600 826 636.5 c 128,-1,92
 855 673 855 673 862 717 c 2,93,-1
 865 731 l 2,94,95
 868 746 868 746 868 761 c 0,96,97
 868 789 868 789 857 813 c 0,98,99
 841 849 841 849 804 869.5 c 128,-1,100
 767 890 767 890 712 890 c 256,101,102
 657 890 657 890 612.5 869 c 128,-1,103
 568 848 568 848 539.5 812 c 128,-1,104
 511 776 511 776 503 731 c 2,105,-1
 500 717 l 2,106,107
 497 703 497 703 497 689 c 0,108,109
 496 660 496 660 508 636 c 0,110,111
 524 600 524 600 561.5 578.5 c 128,-1,112
 599 557 599 557 654 557 c 256,89,90
EndSplineSet
EndChar

StartChar: a.ss03
Encoding: 65549 -1 374
Width: 1134
GlyphClass: 1
Flags: W
LayerCount: 2
Fore
SplineSet
420 -21 m 0,0,1
 258 -20 258 -20 180 68 c 0,2,3
 122 134 122 134 122 234 c 0,4,5
 122 267 122 267 128 305 c 0,6,7
 147 412 147 412 214.5 486.5 c 128,-1,8
 282 561 282 561 396 600 c 128,-1,9
 510 639 510 639 667 639 c 2,10,-1
 816 639 l 1,11,-1
 831 725 l 2,12,13
 835 748 835 748 835 768 c 0,14,15
 835 815 835 815 812 846 c 0,16,17
 779 889 779 889 701 889 c 0,18,19
 657 889 657 889 618.5 873.5 c 128,-1,20
 580 858 580 858 555 829 c 128,-1,21
 530 800 530 800 523 760 c 1,22,-1
 242 760 l 1,23,-1
 241 766 l 1,24,25
 253 858 253 858 322.5 934 c 128,-1,26
 392 1010 392 1010 503 1056 c 128,-1,27
 614 1102 614 1102 750 1102 c 0,28,29
 946 1102 946 1102 1051 1004 c 0,30,31
 1131 929 1131 929 1131 805 c 0,32,33
 1131 766 1131 766 1123 723 c 2,34,-1
 1045 276 l 2,35,36
 1041 251 1041 251 1037.5 229.5 c 128,-1,37
 1034 208 1034 208 1033 188 c 1,38,-1
 1135 175 l 1,39,-1
 1104 0 l 1,40,-1
 752 0 l 1,41,42
 745 27 745 27 741 55.5 c 128,-1,43
 737 84 737 84 737 113 c 1,44,45
 674 53 674 53 593.5 16 c 128,-1,46
 513 -21 513 -21 420 -21 c 0,0,1
537 195 m 0,47,48
 600 195 600 195 658.5 223.5 c 128,-1,49
 717 252 717 252 755 295 c 1,50,-1
 787 474 l 1,51,-1
 638 474 l 2,52,53
 544 474 544 474 488.5 429 c 128,-1,54
 433 384 433 384 422 322 c 0,55,56
 419 307 419 307 419 293 c 0,57,58
 419 254 419 254 441 229 c 0,59,60
 470 195 470 195 537 195 c 0,47,48
EndSplineSet
EndChar

StartChar: ae.ss03
Encoding: 65550 -1 375
Width: 1784
GlyphClass: 2
Flags: W
AnchorPoint: "Anchor-2" 906 0 basechar 0
AnchorPoint: "Anchor-0" 1097 1082 basechar 0
LayerCount: 2
Fore
SplineSet
470 -21 m 0,0,1
 278 -20 278 -20 190 70 c 0,2,3
 123 139 123 139 122 244 c 0,4,5
 122 278 122 278 129 315 c 0,6,7
 157 476 157 476 299 562 c 128,-1,8
 441 648 441 648 684 648 c 2,9,-1
 865 648 l 1,10,-1
 876 707 l 2,11,12
 880 730 880 730 880 750 c 0,13,14
 880 800 880 800 856 832 c 0,15,16
 822 878 822 878 742 877 c 0,17,18
 667 877 667 877 615 839.5 c 128,-1,19
 563 802 563 802 554 746 c 1,20,-1
 274 764 l 1,21,-1
 273 770 l 1,22,23
 286 866 286 866 355.5 941 c 128,-1,24
 425 1016 425 1016 538 1059 c 128,-1,25
 651 1102 651 1102 792 1102 c 0,26,27
 893 1102 893 1102 970.5 1068 c 128,-1,28
 1048 1034 1048 1034 1096 970 c 1,29,30
 1168 1034 1168 1034 1256 1068 c 128,-1,31
 1344 1102 1344 1102 1444 1102 c 0,32,33
 1586 1102 1586 1102 1677 1042.5 c 128,-1,34
 1768 983 1768 983 1804 873 c 0,35,36
 1824 811 1824 811 1824 735 c 0,37,38
 1824 677 1824 677 1812 612 c 2,39,-1
 1784 454 l 1,40,-1
 1134 454 l 1,41,-1
 1131 448 l 1,42,43
 1127 421 1127 421 1127 397 c 0,44,45
 1127 321 1127 321 1166 270 c 0,46,47
 1217 203 1217 203 1344 203 c 0,48,49
 1433 203 1433 203 1498 223.5 c 128,-1,50
 1563 244 1563 244 1648 284 c 1,51,-1
 1693 100 l 1,52,53
 1623 52 1623 52 1509 15.5 c 128,-1,54
 1395 -21 1395 -21 1269 -21 c 0,55,56
 1141 -21 1141 -21 1048.5 21 c 128,-1,57
 956 63 956 63 903 142 c 1,58,59
 829 71 829 71 719 25 c 128,-1,60
 609 -21 609 -21 470 -21 c 0,0,1
554 185 m 0,61,62
 597 185 597 185 643.5 199 c 128,-1,63
 690 213 690 213 731.5 236.5 c 128,-1,64
 773 260 773 260 802 288 c 1,65,-1
 833 464 l 1,66,-1
 654 464 l 2,67,68
 556 464 556 464 494 421 c 128,-1,69
 432 378 432 378 420 314 c 0,70,71
 418 301 418 301 418 289 c 0,72,73
 418 248 418 248 444 220 c 0,74,75
 478 184 478 184 554 185 c 0,61,62
1170 644 m 1,76,-1
 1532 644 l 1,77,-1
 1536 672 l 2,78,79
 1542 703 1542 703 1542 729 c 0,80,81
 1542 784 1542 784 1518 822 c 0,82,83
 1483 878 1483 878 1397 877 c 0,84,85
 1343 877 1343 877 1297 849 c 128,-1,86
 1251 821 1251 821 1218.5 770 c 128,-1,87
 1186 719 1186 719 1168 649 c 1,88,-1
 1170 644 l 1,76,-1
EndSplineSet
EndChar

StartChar: c.ss03
Encoding: 65551 -1 376
Width: 1092
GlyphClass: 1
Flags: W
LayerCount: 2
Fore
SplineSet
580 -21 m 0,0,1
 418 -21 418 -21 318 49 c 128,-1,2
 218 119 218 119 181 242 c 0,3,4
 160 311 160 311 160 392 c 0,5,6
 160 455 160 455 173 525 c 2,7,-1
 178 555 l 2,8,9
 206 715 206 715 286 838 c 128,-1,10
 366 961 366 961 491 1031.5 c 128,-1,11
 616 1102 616 1102 776 1102 c 0,12,13
 910 1102 910 1102 1001 1050 c 128,-1,14
 1092 998 1092 998 1130 905 c 0,15,16
 1153 849 1153 849 1154 781 c 0,17,18
 1154 737 1154 737 1144 688 c 1,19,-1
 1141 682 l 1,20,-1
 875 682 l 1,21,22
 879 706 879 706 879 727 c 0,23,24
 880 756 880 756 872 782 c 0,25,26
 858 826 858 826 823 851.5 c 128,-1,27
 788 877 788 877 732 877 c 0,28,29
 658 877 658 877 604.5 836 c 128,-1,30
 551 795 551 795 518.5 722.5 c 128,-1,31
 486 650 486 650 469 555 c 2,32,-1
 464 525 l 2,33,34
 452 458 452 458 452 403 c 0,35,36
 452 378 452 378 454 356 c 0,37,38
 462 283 462 283 501 243 c 128,-1,39
 540 203 540 203 618 203 c 0,40,41
 669 203 669 203 711.5 224 c 128,-1,42
 754 245 754 245 782.5 282.5 c 128,-1,43
 811 320 811 320 820 370 c 1,44,-1
 1085 370 l 1,45,-1
 1087 364 l 1,46,47
 1071 255 1071 255 997.5 168 c 128,-1,48
 924 81 924 81 815 30 c 128,-1,49
 706 -21 706 -21 580 -21 c 0,0,1
EndSplineSet
EndChar

StartChar: s.ss03
Encoding: 65552 -1 377
Width: 1054
GlyphClass: 1
Flags: W
LayerCount: 2
Fore
SplineSet
526 -21 m 0,0,1
 374 -21 374 -21 278.5 30 c 0,2,3
 184 81 184 81 146 163 c 0,4,5
 122 216 122 216 121 273 c 0,6,7
 121 305 121 305 129 338 c 1,8,-1
 132 344 l 1,9,-1
 400 344 l 1,10,11
 398 327 398 327 398 313 c 0,12,13
 398 276 398 276 410 250 c 0,14,15
 428 214 428 214 467.5 196.5 c 128,-1,16
 507 179 507 179 562 179 c 0,17,18
 648 179 648 179 697 212 c 128,-1,19
 746 245 746 245 755 295 c 256,20,21
 757 304 757 304 757 313 c 0,22,23
 757 352 757 352 723 380 c 0,24,25
 682 416 682 416 561 443 c 0,26,27
 377 482 377 482 293 558 c 0,28,29
 227 618 227 618 227 712 c 0,30,31
 227 737 227 737 232 765 c 0,32,33
 249 860 249 860 315.5 936 c 128,-1,34
 382 1012 382 1012 487.5 1057 c 128,-1,35
 593 1102 593 1102 726 1102 c 0,36,37
 863 1102 863 1102 956 1057.5 c 128,-1,38
 1049 1013 1049 1013 1090 936 c 0,39,40
 1117 885 1117 885 1117 825 c 0,41,42
 1117 794 1117 794 1110 760 c 1,43,-1
 1107 754 l 1,44,-1
 824 754 l 1,45,46
 826 769 826 769 826 782 c 0,47,48
 826 828 826 828 798 860 c 0,49,50
 760 901 760 901 689 901 c 256,51,52
 618 901 618 901 570.5 866.5 c 128,-1,53
 523 832 523 832 514 780 c 0,54,55
 508 748 508 748 521.5 722.5 c 128,-1,56
 535 697 535 697 578 677.5 c 128,-1,57
 621 658 621 658 704 641 c 0,58,59
 898 601 898 601 982 524 c 0,60,61
 1047 464 1047 464 1046 371 c 0,62,63
 1046 344 1046 344 1041 314 c 0,64,65
 1024 215 1024 215 953.5 139.5 c 128,-1,66
 883 64 883 64 773 21.5 c 128,-1,67
 663 -21 663 -21 526 -21 c 0,0,1
EndSplineSet
EndChar

StartChar: k.ss05
Encoding: 65553 -1 378
Width: 1330
GlyphClass: 1
Flags: W
LayerCount: 2
Fore
SplineSet
51 0 m 1,0,-1
 82 175 l 1,1,-1
 234 208 l 1,2,-1
 435 1350 l 1,3,-1
 284 1384 l 1,4,-1
 315 1560 l 1,5,-1
 764 1560 l 1,6,-1
 606 663 l 1,7,-1
 694 663 l 1,8,-1
 936 887 l 1,9,-1
 940 890 l 1,10,-1
 839 907 l 1,11,-1
 870 1082 l 1,12,-1
 1418 1082 l 1,13,-1
 1387 906 l 1,14,-1
 1230 869 l 1,15,-1
 954 595 l 1,16,-1
 1187 208 l 1,17,-1
 1328 175 l 1,18,-1
 1297 0 l 1,19,-1
 739 0 l 1,20,-1
 769 168 l 1,21,-1
 858 187 l 1,22,-1
 856 191 l 1,23,-1
 699 455 l 1,24,-1
 569 455 l 1,25,-1
 526 208 l 1,26,-1
 654 175 l 1,27,-1
 623 0 l 1,28,-1
 51 0 l 1,0,-1
EndSplineSet
EndChar

StartChar: kgreenlandic.ss05
Encoding: 65554 -1 379
Width: 1270
GlyphClass: 1
Flags: W
LayerCount: 2
Fore
SplineSet
47 0 m 1,0,-1
 78 175 l 1,1,-1
 224 205 l 1,2,-1
 342 876 l 1,3,-1
 202 906 l 1,4,-1
 233 1082 l 1,5,-1
 670 1082 l 1,6,-1
 596 662 l 1,7,-1
 691 662 l 1,8,-1
 890 888 l 1,9,-1
 893 893 l 1,10,-1
 800 906 l 1,11,-1
 831 1082 l 1,12,-1
 1362 1082 l 1,13,-1
 1331 906 l 1,14,-1
 1199 877 l 1,15,-1
 936 603 l 1,16,-1
 1134 198 l 1,17,-1
 1241 175 l 1,18,-1
 1210 0 l 1,19,-1
 886 0 l 1,20,-1
 684 453 l 1,21,-1
 559 453 l 1,22,-1
 515 205 l 1,23,-1
 636 175 l 1,24,-1
 605 0 l 1,25,-1
 47 0 l 1,0,-1
EndSplineSet
EndChar

StartChar: fi
Encoding: 64257 64257 380
Width: 1337
GlyphClass: 3
LigCaretCntFixed: 1
Flags: W
LayerCount: 2
Fore
SplineSet
39 0 m 1,0,-1
 70 175 l 1,1,-1
 231 205 l 1,2,-1
 350 877 l 1,3,-1
 189 877 l 1,4,-1
 225 1082 l 1,5,-1
 386 1082 l 1,6,-1
 399 1156 l 2,7,8
 435 1360 435 1360 579 1470.5 c 128,-1,9
 723 1581 723 1581 949 1581 c 0,10,11
 1027 1581 1027 1581 1100 1565.5 c 128,-1,12
 1173 1550 1173 1550 1268 1521 c 1,13,-1
 1186 1291 l 1,14,15
 1121 1312 1121 1312 1060 1324.5 c 128,-1,16
 999 1337 999 1337 936 1337 c 0,17,18
 827 1337 827 1337 767 1291 c 128,-1,19
 707 1245 707 1245 691 1156 c 2,20,-1
 678 1082 l 1,21,-1
 1334 1082 l 1,22,-1
 1179 205 l 1,23,-1
 1329 175 l 1,24,-1
 1298 0 l 1,25,-1
 710 0 l 1,26,-1
 741 175 l 1,27,-1
 887 205 l 1,28,-1
 1006 877 l 1,29,-1
 642 877 l 1,30,-1
 523 205 l 1,31,-1
 659 175 l 1,32,-1
 628 0 l 1,33,-1
 39 0 l 1,0,-1
EndSplineSet
Ligature2: "'liga' Standard Ligatures in Latin lookup 22 subtable" f i
MultipleSubs2: "'ccmp' Glyph Composition/Decomposition in Latin lookup 9 subtable" f i
LCarets2: 1 669
EndChar

StartChar: fl
Encoding: 64258 64258 381
Width: 1421
GlyphClass: 3
LigCaretCntFixed: 1
Flags: W
LayerCount: 2
Fore
SplineSet
39 0 m 1,0,-1
 70 175 l 1,1,-1
 231 205 l 1,2,-1
 350 877 l 1,3,-1
 214 877 l 1,4,-1
 250 1082 l 1,5,-1
 386 1082 l 1,6,-1
 394 1129 l 2,7,8
 432 1346 432 1346 584 1463.5 c 128,-1,9
 736 1581 736 1581 974 1581 c 0,10,11
 1060 1581 1060 1581 1141 1565.5 c 128,-1,12
 1222 1550 1222 1550 1328 1521 c 1,13,-1
 1500 1521 l 1,14,-1
 1268 205 l 1,15,-1
 1404 175 l 1,16,-1
 1373 0 l 1,17,-1
 799 0 l 1,18,-1
 830 175 l 1,19,-1
 976 205 l 1,20,-1
 1173 1324 l 1,21,22
 1116 1336 1116 1336 1065 1343 c 128,-1,23
 1014 1350 1014 1350 961 1350 c 0,24,25
 841 1350 841 1350 773 1294 c 128,-1,26
 705 1238 705 1238 686 1129 c 2,27,-1
 678 1082 l 1,28,-1
 918 1082 l 1,29,-1
 882 877 l 1,30,-1
 642 877 l 1,31,-1
 523 205 l 1,32,-1
 659 175 l 1,33,-1
 628 0 l 1,34,-1
 39 0 l 1,0,-1
EndSplineSet
Ligature2: "'liga' Standard Ligatures in Latin lookup 22 subtable" f l
MultipleSubs2: "'ccmp' Glyph Composition/Decomposition in Latin lookup 9 subtable" f l
LCarets2: 1 723
EndChar

StartChar: a.sc
Encoding: 65555 -1 384
Width: 1326
GlyphClass: 2
Flags: W
AnchorPoint: "Anchor-3" 1280 0 basechar 0
AnchorPoint: "Anchor-2" 662 0 basechar 0
AnchorPoint: "Anchor-0" 853 1082 basechar 0
LayerCount: 2
Fore
SplineSet
45 0 m 1,0,-1
 76 175 l 1,1,-1
 159 188 l 1,2,-1
 709 1165 l 1,3,-1
 1025 1165 l 1,4,-1
 1230 189 l 1,5,-1
 1311 175 l 1,6,-1
 1280 0 l 1,7,-1
 830 0 l 1,8,-1
 859 162 l 1,9,-1
 931 178 l 1,10,-1
 911 298 l 1,11,-1
 518 298 l 1,12,-1
 454 178 l 1,13,-1
 523 162 l 1,14,-1
 494 0 l 1,15,-1
 45 0 l 1,0,-1
622 496 m 1,16,-1
 875 496 l 1,17,-1
 820 808 l 1,18,-1
 813 846 l 1,19,-1
 807 846 l 1,20,-1
 788 809 l 1,21,-1
 622 496 l 1,16,-1
EndSplineSet
EndChar

StartChar: ae.sc
Encoding: 65579 -1 408
Width: 1827
GlyphClass: 2
Flags: W
AnchorPoint: "Anchor-2" 988 0 basechar 0
AnchorPoint: "Anchor-0" 1188 1133 basechar 0
LayerCount: 2
Fore
SplineSet
45 0 m 1,0,-1
 75 170 l 1,1,-1
 199 187 l 1,2,-1
 923 1165 l 1,3,-1
 1860 1165 l 1,4,-1
 1804 844 l 1,5,-1
 1586 844 l 1,6,-1
 1593 939 l 1,7,-1
 1315 939 l 1,8,-1
 1287 707 l 1,9,-1
 1708 707 l 1,10,-1
 1668 481 l 1,11,-1
 1256 481 l 1,12,-1
 1224 225 l 1,13,-1
 1521 225 l 1,14,-1
 1547 320 l 1,15,-1
 1765 320 l 1,16,-1
 1709 0 l 1,17,-1
 766 0 l 1,18,-1
 796 170 l 1,19,-1
 928 195 l 1,20,-1
 938 280 l 1,21,-1
 598 280 l 1,22,-1
 522 182 l 1,23,-1
 593 170 l 1,24,-1
 563 0 l 1,25,-1
 45 0 l 1,0,-1
745 496 m 1,26,-1
 966 496 l 1,27,-1
 1012 859 l 1,28,-1
 1008 859 l 1,29,-1
 999 845 l 1,30,-1
 745 496 l 1,26,-1
EndSplineSet
EndChar

StartChar: b.sc
Encoding: 65581 -1 410
Width: 1235
GlyphClass: 2
Flags: W
AnchorPoint: "Anchor-2" 618 0 basechar 0
AnchorPoint: "Anchor-0" 809 1082 basechar 0
LayerCount: 2
Fore
SplineSet
43 0 m 1,0,-1
 74 175 l 1,1,-1
 235 205 l 1,2,-1
 368 959 l 1,3,-1
 217 989 l 1,4,-1
 248 1165 l 1,5,-1
 404 1165 l 1,6,-1
 868 1165 l 2,7,8
 1084 1164 1084 1164 1190 1084 c 0,9,10
 1275 1020 1275 1020 1275 909 c 0,11,12
 1275 881 1275 881 1270 849 c 0,13,14
 1255 763 1255 763 1195.5 698 c 128,-1,15
 1136 633 1136 633 1025 596 c 1,16,17
 1146 572 1146 572 1198 502 c 0,18,19
 1237 450 1237 450 1237 377 c 0,20,21
 1237 351 1237 351 1232 321 c 0,22,23
 1204 165 1204 165 1075 82.5 c 128,-1,24
 946 0 946 0 732 0 c 2,25,-1
 43 0 l 1,0,-1
529 222 m 1,26,-1
 771 222 l 2,27,28
 845 222 845 222 890 255 c 128,-1,29
 935 288 935 288 947 357 c 0,30,31
 950 375 950 375 950 391 c 0,32,33
 950 434 950 434 926 460 c 0,34,35
 893 495 893 495 819 495 c 2,36,-1
 577 495 l 1,37,-1
 529 222 l 1,26,-1
610 681 m 1,38,-1
 783 681 l 2,39,40
 949 681 949 681 972 813 c 0,41,42
 975 828 975 828 975 841 c 0,43,44
 976 884 976 884 948 906 c 0,45,46
 912 934 912 934 828 934 c 2,47,-1
 655 934 l 1,48,-1
 610 681 l 1,38,-1
EndSplineSet
EndChar

StartChar: c.sc
Encoding: 65582 -1 411
Width: 1179
GlyphClass: 2
Flags: W
AnchorPoint: "Anchor-2" 604 0 basechar 0
AnchorPoint: "Anchor-0" 800 1082 basechar 0
LayerCount: 2
Fore
SplineSet
644 -17 m 0,0,1
 528 -17 528 -17 433 21.5 c 128,-1,2
 338 60 338 60 273 134.5 c 0,3,4
 208 208 208 208 182 316 c 0,5,6
 169 371 169 371 169 435 c 0,7,8
 169 495 169 495 181 562 c 2,9,-1
 188 602 l 2,10,11
 218 772 218 772 312 902.5 c 128,-1,12
 406 1033 406 1033 544.5 1107.5 c 128,-1,13
 683 1182 683 1182 846 1182 c 0,14,15
 977 1182 977 1182 1083 1148.5 c 128,-1,16
 1189 1115 1189 1115 1260 1040 c 1,17,-1
 1207 735 l 1,18,-1
 995 735 l 1,19,-1
 995 907 l 1,20,21
 964 933 964 933 925 948 c 128,-1,22
 886 963 886 963 831 963 c 0,23,24
 750 963 750 963 677 920.5 c 128,-1,25
 604 878 604 878 552 798 c 128,-1,26
 500 718 500 718 480 604 c 2,27,-1
 472 562 l 2,28,29
 464 514 464 514 464 472 c 0,30,31
 464 418 464 418 477 373 c 0,32,33
 501 292 501 292 560 247 c 128,-1,34
 619 202 619 202 701 202 c 0,35,36
 744 202 744 202 789.5 212 c 128,-1,37
 835 222 835 222 876 238 c 1,38,-1
 933 397 l 1,39,-1
 1146 397 l 1,40,-1
 1093 99 l 1,41,42
 1029 52 1029 52 914.5 17.5 c 128,-1,43
 800 -17 800 -17 644 -17 c 0,0,1
EndSplineSet
Substitution2: "'ss05' Style Set 5 in Latin lookup 27 subtable" c.sc.ss05
Substitution2: "'aalt' Access All Alternates in Latin lookup 0 subtable" c.sc.ss05
EndChar

StartChar: d.sc
Encoding: 65588 -1 417
Width: 1285
GlyphClass: 2
Flags: W
AnchorPoint: "Anchor-4" 506 591 basechar 0
AnchorPoint: "Anchor-2" 638 0 basechar 0
AnchorPoint: "Anchor-0" 828 1082 basechar 0
LayerCount: 2
Fore
SplineSet
71 0 m 1,0,-1
 102 175 l 1,1,-1
 265 208 l 1,2,-1
 396 955 l 1,3,-1
 245 989 l 1,4,-1
 276 1165 l 1,5,-1
 433 1165 l 1,6,-1
 878 1165 l 2,7,8
 1034 1165 1034 1165 1144 1092.5 c 128,-1,9
 1254 1020 1254 1020 1302 893 c 0,10,11
 1332 814 1332 814 1332 720 c 0,12,13
 1332 663 1332 663 1321 601 c 2,14,-1
 1313 556 l 2,15,16
 1284 392 1284 392 1191.5 266.5 c 128,-1,17
 1099 141 1099 141 964 70.5 c 128,-1,18
 829 0 829 0 673 0 c 2,19,-1
 71 0 l 1,0,-1
558 221 m 1,20,-1
 712 221 l 2,21,22
 785 221 785 221 849 264 c 128,-1,23
 913 307 913 307 958 383 c 128,-1,24
 1003 459 1003 459 1020 556 c 2,25,-1
 1028 602 l 2,26,27
 1036 650 1036 650 1036 693 c 0,28,29
 1036 737 1036 737 1028 777 c 0,30,31
 1010 854 1010 854 961 898.5 c 128,-1,32
 912 943 912 943 839 943 c 2,33,-1
 685 943 l 1,34,-1
 558 221 l 1,20,-1
EndSplineSet
Substitution2: "'ss05' Style Set 5 in Latin lookup 27 subtable" d.sc.ss05
Substitution2: "'aalt' Access All Alternates in Latin lookup 0 subtable" d.sc.ss05
EndChar

StartChar: e.sc
Encoding: 65592 -1 421
Width: 1193
GlyphClass: 2
Flags: W
AnchorPoint: "Anchor-3" 1075 0 basechar 0
AnchorPoint: "Anchor-2" 597 0 basechar 0
AnchorPoint: "Anchor-0" 788 1082 basechar 0
LayerCount: 2
Fore
SplineSet
67 0 m 1,0,-1
 98 175 l 1,1,-1
 259 205 l 1,2,-1
 392 959 l 1,3,-1
 241 989 l 1,4,-1
 272 1165 l 1,5,-1
 1280 1165 l 1,6,-1
 1218 809 l 1,7,-1
 994 809 l 1,8,-1
 1006 942 l 1,9,-1
 680 942 l 1,10,-1
 635 686 l 1,11,-1
 1094 686 l 1,12,-1
 1061 501 l 1,13,-1
 602 501 l 1,14,-1
 553 222 l 1,15,-1
 880 222 l 1,16,-1
 915 355 l 1,17,-1
 1138 355 l 1,18,-1
 1075 0 l 1,19,-1
 67 0 l 1,0,-1
EndSplineSet
EndChar

StartChar: f.sc
Encoding: 65610 -1 439
Width: 1159
GlyphClass: 2
Flags: W
AnchorPoint: "Anchor-2" 579 0 basechar 0
AnchorPoint: "Anchor-0" 770 1082 basechar 0
LayerCount: 2
Fore
SplineSet
67 0 m 1,0,-1
 98 175 l 1,1,-1
 259 205 l 1,2,-1
 392 959 l 1,3,-1
 241 989 l 1,4,-1
 272 1165 l 1,5,-1
 1301 1165 l 1,6,-1
 1236 796 l 1,7,-1
 1013 796 l 1,8,-1
 1027 942 l 1,9,-1
 680 942 l 1,10,-1
 631 666 l 1,11,-1
 1111 666 l 1,12,-1
 1074 455 l 1,13,-1
 594 455 l 1,14,-1
 550 205 l 1,15,-1
 701 175 l 1,16,-1
 670 0 l 1,17,-1
 67 0 l 1,0,-1
EndSplineSet
EndChar

StartChar: g.sc
Encoding: 65611 -1 440
Width: 1223
GlyphClass: 2
Flags: W
AnchorPoint: "Anchor-2" 613 0 basechar 0
AnchorPoint: "Anchor-0" 808 1082 basechar 0
LayerCount: 2
Fore
SplineSet
648 -17 m 0,0,1
 476 -17 476 -17 359.5 54.5 c 128,-1,2
 243 126 243 126 194 252 c 0,3,4
 163 331 163 331 163 427 c 0,5,6
 163 483 163 483 174 545 c 2,7,-1
 181 585 l 2,8,9
 212 761 212 761 305.5 895.5 c 128,-1,10
 399 1030 399 1030 537.5 1106 c 128,-1,11
 676 1182 676 1182 844 1182 c 0,12,13
 976 1182 976 1182 1089.5 1146 c 128,-1,14
 1203 1110 1203 1110 1276 1033 c 1,15,-1
 1227 757 l 1,16,-1
 1013 757 l 1,17,-1
 1005 905 l 1,18,19
 979 932 979 932 933 947 c 128,-1,20
 887 962 887 962 825 962 c 0,21,22
 732 962 732 962 659.5 914.5 c 128,-1,23
 587 867 587 867 539.5 783 c 128,-1,24
 492 699 492 699 473 587 c 2,25,-1
 465 545 l 2,26,27
 456 494 456 494 456 449 c 0,28,29
 456 402 456 402 466 362 c 0,30,31
 486 284 486 284 545 242.5 c 128,-1,32
 604 201 604 201 700 201 c 0,33,34
 750 201 750 201 796.5 209 c 128,-1,35
 843 217 843 217 879 231 c 1,36,-1
 909 401 l 1,37,-1
 728 420 l 1,38,-1
 763 619 l 1,39,-1
 1235 619 l 1,40,-1
 1145 106 l 1,41,42
 1040 45 1040 45 914.5 14 c 128,-1,43
 789 -17 789 -17 648 -17 c 0,0,1
EndSplineSet
Substitution2: "'ss05' Style Set 5 in Latin lookup 27 subtable" g.sc.ss05
Substitution2: "'aalt' Access All Alternates in Latin lookup 0 subtable" g.sc.ss05
EndChar

StartChar: h.sc
Encoding: 65616 -1 445
Width: 1503
GlyphClass: 2
Flags: W
AnchorPoint: "Anchor-4" 897 826 basechar 0
AnchorPoint: "Anchor-2" 752 0 basechar 0
AnchorPoint: "Anchor-0" 943 1082 basechar 0
LayerCount: 2
Fore
SplineSet
71 0 m 1,0,-1
 102 175 l 1,1,-1
 263 205 l 1,2,-1
 396 959 l 1,3,-1
 245 989 l 1,4,-1
 276 1165 l 1,5,-1
 879 1165 l 1,6,-1
 848 989 l 1,7,-1
 687 959 l 1,8,-1
 638 682 l 1,9,-1
 1105 682 l 1,10,-1
 1154 959 l 1,11,-1
 1003 989 l 1,12,-1
 1034 1165 l 1,13,-1
 1190 1165 l 1,14,-1
 1482 1165 l 1,15,-1
 1638 1165 l 1,16,-1
 1607 989 l 1,17,-1
 1446 959 l 1,18,-1
 1313 205 l 1,19,-1
 1464 175 l 1,20,-1
 1433 0 l 1,21,-1
 829 0 l 1,22,-1
 860 175 l 1,23,-1
 1021 205 l 1,24,-1
 1066 458 l 1,25,-1
 599 458 l 1,26,-1
 554 205 l 1,27,-1
 705 175 l 1,28,-1
 674 0 l 1,29,-1
 71 0 l 1,0,-1
EndSplineSet
EndChar

StartChar: i.sc
Encoding: 65619 -1 448
Width: 718
GlyphClass: 2
Flags: W
AnchorPoint: "Anchor-3" 670 0 basechar 0
AnchorPoint: "Anchor-2" 360 0 basechar 0
AnchorPoint: "Anchor-0" 551 1082 basechar 0
LayerCount: 2
Fore
SplineSet
67 0 m 1,0,-1
 98 175 l 1,1,-1
 259 205 l 1,2,-1
 392 959 l 1,3,-1
 241 989 l 1,4,-1
 272 1165 l 1,5,-1
 875 1165 l 1,6,-1
 844 989 l 1,7,-1
 684 959 l 1,8,-1
 551 205 l 1,9,-1
 701 175 l 1,10,-1
 670 0 l 1,11,-1
 67 0 l 1,0,-1
EndSplineSet
EndChar

StartChar: j.sc
Encoding: 65631 -1 460
Width: 1118
GlyphClass: 2
Flags: W
AnchorPoint: "Anchor-2" 542 0 basechar 0
AnchorPoint: "Anchor-0" 988 1082 basechar 0
LayerCount: 2
Fore
SplineSet
496 -19 m 0,0,1
 285 -19 285 -19 178 79 c 0,2,3
 100 151 100 151 100 269 c 0,4,5
 100 312 100 312 110 361 c 1,6,-1
 113 367 l 1,7,-1
 397 367 l 1,8,9
 393 345 393 345 393 327 c 0,10,11
 393 274 393 274 422 244 c 0,12,13
 461 204 461 204 532 204 c 0,14,15
 600 204 600 204 652 252.5 c 128,-1,16
 704 301 704 301 719 383 c 2,17,-1
 820 959 l 1,18,-1
 669 989 l 1,19,-1
 700 1165 l 1,20,-1
 1303 1165 l 1,21,-1
 1272 989 l 1,22,-1
 1112 959 l 1,23,-1
 1011 383 l 2,24,25
 989 261 989 261 916 170.5 c 128,-1,26
 843 80 843 80 734.5 30.5 c 128,-1,27
 626 -19 626 -19 496 -19 c 0,0,1
EndSplineSet
EndChar

StartChar: k.sc
Encoding: 65633 -1 462
Width: 1280
GlyphClass: 2
Flags: W
AnchorPoint: "Anchor-2" 645 0 basechar 0
AnchorPoint: "Anchor-0" 840 1082 basechar 0
LayerCount: 2
Fore
SplineSet
509 310 m 1,0,-1
 432 494 l 1,1,-1
 974 964 l 1,2,-1
 986 976 l 1,3,-1
 913 989 l 1,4,-1
 944 1165 l 1,5,-1
 1442 1165 l 1,6,-1
 1411 989 l 1,7,-1
 1293 959 l 1,8,-1
 509 310 l 1,0,-1
38 0 m 1,9,-1
 69 175 l 1,10,-1
 232 208 l 1,11,-1
 363 955 l 1,12,-1
 212 989 l 1,13,-1
 243 1165 l 1,14,-1
 815 1165 l 1,15,-1
 784 989 l 1,16,-1
 655 955 l 1,17,-1
 524 208 l 1,18,-1
 641 175 l 1,19,-1
 610 0 l 1,20,-1
 38 0 l 1,9,-1
769 0 m 1,21,-1
 800 175 l 1,22,-1
 867 187 l 1,23,-1
 862 196 l 1,24,-1
 704 555 l 1,25,-1
 930 750 l 1,26,-1
 1195 203 l 1,27,-1
 1298 175 l 1,28,-1
 1267 0 l 1,29,-1
 769 0 l 1,21,-1
EndSplineSet
Substitution2: "'ss05' Style Set 5 in Latin lookup 27 subtable" k.sc.ss05
Substitution2: "'aalt' Access All Alternates in Latin lookup 0 subtable" k.sc.ss05
EndChar

StartChar: l.sc
Encoding: 65635 -1 464
Width: 1098
GlyphClass: 2
Flags: W
AnchorPoint: "Anchor-4" 505 597 basechar 0
AnchorPoint: "Anchor-2" 550 0 basechar 0
AnchorPoint: "Anchor-1" 1151 1165 basechar 0
AnchorPoint: "Anchor-0" 663 1082 basechar 0
LayerCount: 2
Fore
SplineSet
67 0 m 1,0,-1
 98 175 l 1,1,-1
 259 205 l 1,2,-1
 392 959 l 1,3,-1
 241 989 l 1,4,-1
 272 1165 l 1,5,-1
 428 1165 l 1,6,-1
 719 1165 l 1,7,-1
 875 1165 l 1,8,-1
 844 989 l 1,9,-1
 683 959 l 1,10,-1
 553 222 l 1,11,-1
 852 222 l 1,12,-1
 890 368 l 1,13,-1
 1112 368 l 1,14,-1
 1047 0 l 1,15,-1
 67 0 l 1,0,-1
EndSplineSet
EndChar

StartChar: m.sc
Encoding: 65641 -1 470
Width: 1723
GlyphClass: 2
Flags: W
AnchorPoint: "Anchor-2" 862 0 basechar 0
AnchorPoint: "Anchor-0" 1053 1082 basechar 0
LayerCount: 2
Fore
SplineSet
67 0 m 1,0,-1
 98 175 l 1,1,-1
 259 205 l 1,2,-1
 392 959 l 1,3,-1
 241 989 l 1,4,-1
 272 1165 l 1,5,-1
 428 1165 l 1,6,-1
 820 1165 l 1,7,-1
 924 352 l 1,8,-1
 930 352 l 1,9,-1
 1323 1165 l 1,10,-1
 1714 1165 l 1,11,-1
 1870 1165 l 1,12,-1
 1839 989 l 1,13,-1
 1678 959 l 1,14,-1
 1545 205 l 1,15,-1
 1696 175 l 1,16,-1
 1665 0 l 1,17,-1
 1100 0 l 1,18,-1
 1131 175 l 1,19,-1
 1254 205 l 1,20,-1
 1345 721 l 1,21,-1
 1339 722 l 1,22,-1
 961 0 l 1,23,-1
 765 0 l 1,24,-1
 645 707 l 1,25,-1
 638 706 l 1,26,-1
 550 205 l 1,27,-1
 663 175 l 1,28,-1
 632 0 l 1,29,-1
 67 0 l 1,0,-1
EndSplineSet
EndChar

StartChar: n.sc
Encoding: 65643 -1 472
Width: 1460
GlyphClass: 2
Flags: W
AnchorPoint: "Anchor-2" 730 0 basechar 0
AnchorPoint: "Anchor-0" 921 1082 basechar 0
LayerCount: 2
Fore
SplineSet
67 0 m 1,0,-1
 98 175 l 1,1,-1
 259 205 l 1,2,-1
 392 959 l 1,3,-1
 241 989 l 1,4,-1
 272 1165 l 1,5,-1
 428 1165 l 1,6,-1
 719 1165 l 1,7,-1
 1047 449 l 1,8,-1
 1054 451 l 1,9,-1
 1143 959 l 1,10,-1
 993 989 l 1,11,-1
 1024 1165 l 1,12,-1
 1471 1165 l 1,13,-1
 1627 1165 l 1,14,-1
 1596 989 l 1,15,-1
 1435 959 l 1,16,-1
 1266 0 l 1,17,-1
 974 0 l 1,18,-1
 647 719 l 1,19,-1
 640 717 l 1,20,-1
 550 205 l 1,21,-1
 701 175 l 1,22,-1
 670 0 l 1,23,-1
 67 0 l 1,0,-1
EndSplineSet
EndChar

StartChar: eng.sc
Encoding: 65648 -1 477
Width: 1457
GlyphClass: 1
Flags: W
LayerCount: 2
Fore
SplineSet
822 -437 m 0,0,1
 781 -437 781 -437 748.5 -433 c 128,-1,2
 716 -429 716 -429 681 -420 c 1,3,-1
 735 -195 l 1,4,5
 757 -201 757 -201 780 -204.5 c 128,-1,6
 803 -208 803 -208 827 -208 c 0,7,8
 887 -208 887 -208 927.5 -164.5 c 128,-1,9
 968 -121 968 -121 982 -40 c 2,10,-1
 989 0 l 1,11,-1
 632 735 l 1,12,-1
 627 735 l 1,13,-1
 532 197 l 1,14,-1
 665 170 l 1,15,-1
 635 0 l 1,16,-1
 67 0 l 1,17,-1
 97 170 l 1,18,-1
 240 197 l 1,19,-1
 376 967 l 1,20,-1
 242 994 l 1,21,-1
 272 1165 l 1,22,-1
 702 1165 l 1,23,-1
 1060 430 l 1,24,-1
 1065 431 l 1,25,-1
 1160 967 l 1,26,-1
 1026 994 l 1,27,-1
 1056 1165 l 1,28,-1
 1623 1165 l 1,29,-1
 1593 994 l 1,30,-1
 1452 967 l 1,31,-1
 1272 -51 l 2,32,33
 1236 -236 1236 -236 1117.5 -336.5 c 128,-1,34
 999 -437 999 -437 822 -437 c 0,0,1
EndSplineSet
EndChar

StartChar: o.sc
Encoding: 65649 -1 478
Width: 1242
GlyphClass: 2
Flags: W
AnchorPoint: "Anchor-4" 728 583 basechar 0
AnchorPoint: "Anchor-3" 974 0 basechar 0
AnchorPoint: "Anchor-2" 625 0 basechar 0
AnchorPoint: "Anchor-1" 1328 1082 basechar 0
AnchorPoint: "Anchor-0" 816 1082 basechar 0
LayerCount: 2
Fore
SplineSet
622 -19 m 0,0,1
 459 -19 459 -19 347.5 54 c 128,-1,2
 236 127 236 127 190 257 c 0,3,4
 162 336 162 336 162 429 c 0,5,6
 162 490 162 490 174 556 c 2,7,-1
 183 608 l 2,8,9
 213 777 213 777 304.5 906 c 128,-1,10
 396 1035 396 1035 532.5 1108 c 128,-1,11
 669 1181 669 1181 832 1181 c 256,12,13
 995 1181 995 1181 1106 1108 c 128,-1,14
 1217 1035 1217 1035 1264 906 c 0,15,16
 1293 827 1293 827 1293 734 c 0,17,18
 1293 674 1293 674 1281 608 c 2,19,-1
 1272 556 l 2,20,21
 1242 386 1242 386 1150 256 c 128,-1,22
 1058 126 1058 126 922 53.5 c 128,-1,23
 786 -19 786 -19 622 -19 c 0,0,1
661 204 m 0,24,25
 742 204 742 204 807.5 250 c 128,-1,26
 873 296 873 296 917.5 375.5 c 128,-1,27
 962 455 962 455 980 556 c 2,28,-1
 989 609 l 2,29,30
 998 661 998 661 998 707 c 0,31,32
 998 751 998 751 990 789 c 0,33,34
 973 868 973 868 923.5 913 c 128,-1,35
 874 958 874 958 793 958 c 0,36,37
 711 958 711 958 645 913 c 128,-1,38
 579 868 579 868 535.5 789.5 c 128,-1,39
 492 711 492 711 474 609 c 2,40,-1
 465 556 l 2,41,42
 455 503 455 503 455 455 c 0,43,44
 455 414 455 414 463 376 c 0,45,46
 479 296 479 296 529 250 c 128,-1,47
 579 204 579 204 661 204 c 0,24,25
EndSplineSet
Substitution2: "'ss05' Style Set 5 in Latin lookup 27 subtable" o.sc.ss05
Substitution2: "'aalt' Access All Alternates in Latin lookup 0 subtable" o.sc.ss05
EndChar

StartChar: oe.sc
Encoding: 65673 -1 502
Width: 1778
GlyphClass: 2
Flags: W
AnchorPoint: "Anchor-2" 918 0 basechar 0
AnchorPoint: "Anchor-0" 1123 1165 basechar 0
LayerCount: 2
Fore
SplineSet
661 -17 m 0,0,1
 473 -17 473 -17 355 60.5 c 0,2,3
 236 138 236 138 192 272 c 0,4,5
 165 353 165 353 166 447 c 0,6,7
 166 508 166 508 177 574 c 2,8,-1
 180 592 l 2,9,10
 209 759 209 759 301 892.5 c 128,-1,11
 393 1026 393 1026 538 1104 c 128,-1,12
 683 1182 683 1182 871 1182 c 0,13,14
 1012 1182 1012 1182 1140 1142 c 1,15,-1
 1093 866 l 1,16,17
 1043 911 1043 911 975.5 935 c 128,-1,18
 908 959 908 959 832 959 c 0,19,20
 728 959 728 959 655 913.5 c 128,-1,21
 582 868 582 868 537 786 c 128,-1,22
 492 704 492 704 473 594 c 2,23,-1
 469 574 l 2,24,25
 459 515 459 515 459 464 c 0,26,27
 458 420 458 420 466 381 c 0,28,29
 482 298 482 298 539.5 252 c 128,-1,30
 597 206 597 206 700 206 c 0,31,32
 774 206 774 206 849 227.5 c 128,-1,33
 924 249 924 249 991 288 c 1,34,-1
 943 23 l 1,35,36
 874 4 874 4 802.5 -6.5 c 128,-1,37
 731 -17 731 -17 661 -17 c 0,0,1
749 0 m 1,38,-1
 839 179 l 1,39,-1
 981 985 l 1,40,-1
 954 1165 l 1,41,-1
 1863 1165 l 1,42,-1
 1804 829 l 1,43,-1
 1587 829 l 1,44,-1
 1597 943 l 1,45,-1
 1265 943 l 1,46,-1
 1223 706 l 1,47,-1
 1603 706 l 1,48,-1
 1564 483 l 1,49,-1
 1184 483 l 1,50,-1
 1138 221 l 1,51,-1
 1470 221 l 1,52,-1
 1501 334 l 1,53,-1
 1715 334 l 1,54,-1
 1656 0 l 1,55,-1
 749 0 l 1,38,-1
EndSplineSet
EndChar

StartChar: p.sc
Encoding: 65674 -1 503
Width: 1252
GlyphClass: 2
Flags: W
AnchorPoint: "Anchor-2" 377 0 basechar 0
AnchorPoint: "Anchor-0" 830 1082 basechar 0
LayerCount: 2
Fore
SplineSet
71 0 m 1,0,-1
 102 175 l 1,1,-1
 263 205 l 1,2,-1
 396 959 l 1,3,-1
 245 989 l 1,4,-1
 276 1165 l 1,5,-1
 432 1165 l 1,6,-1
 935 1165 l 2,7,8
 1083 1165 1083 1165 1184.5 1113.5 c 128,-1,9
 1286 1062 1286 1062 1332 972 c 0,10,11
 1363 910 1363 910 1363 836 c 0,12,13
 1363 802 1363 802 1356 765 c 0,14,15
 1335 647 1335 647 1258 557 c 128,-1,16
 1181 467 1181 467 1061.5 416 c 128,-1,17
 942 365 942 365 794 365 c 2,18,-1
 582 365 l 1,19,-1
 554 205 l 1,20,-1
 705 175 l 1,21,-1
 674 0 l 1,22,-1
 71 0 l 1,0,-1
622 589 m 1,23,-1
 834 589 l 2,24,25
 927 589 927 589 989.5 640 c 128,-1,26
 1052 691 1052 691 1065 763 c 0,27,28
 1068 779 1068 779 1068 795 c 0,29,30
 1068 848 1068 848 1033 889 c 0,31,32
 988 942 988 942 896 942 c 2,33,-1
 684 942 l 1,34,-1
 622 589 l 1,23,-1
EndSplineSet
EndChar

StartChar: thorn.sc
Encoding: 65675 -1 504
Width: 1143
GlyphClass: 2
Flags: W
AnchorPoint: "Anchor-2" 373 0 basechar 0
AnchorPoint: "Anchor-0" 564 1082 basechar 0
LayerCount: 2
Fore
SplineSet
71 0 m 1,0,-1
 102 175 l 1,1,-1
 263 205 l 1,2,-1
 396 959 l 1,3,-1
 245 989 l 1,4,-1
 276 1165 l 1,5,-1
 879 1165 l 1,6,-1
 848 989 l 1,7,-1
 687 959 l 1,8,-1
 554 205 l 1,9,-1
 705 175 l 1,10,-1
 674 0 l 1,11,-1
 71 0 l 1,0,-1
592 902 m 1,12,-1
 881 902 l 2,13,14
 1078 902 1078 902 1172 815 c 0,15,16
 1246 746 1246 746 1246 643 c 0,17,18
 1246 615 1246 615 1241 585 c 0,19,20
 1216 441 1216 441 1091.5 354 c 128,-1,21
 967 267 967 267 769 267 c 2,22,-1
 480 267 l 1,23,-1
 516 470 l 1,24,-1
 805 470 l 2,25,26
 867 470 867 470 908 503 c 128,-1,27
 949 536 949 536 957 583 c 0,28,29
 959 593 959 593 959 603 c 0,30,31
 959 638 959 638 936 666 c 0,32,33
 907 701 907 701 846 701 c 2,34,-1
 557 701 l 1,35,-1
 592 902 l 1,12,-1
EndSplineSet
EndChar

StartChar: q.sc
Encoding: 65676 -1 505
Width: 1241
GlyphClass: 2
Flags: W
AnchorPoint: "Anchor-2" 620 0 basechar 0
AnchorPoint: "Anchor-0" 811 1082 basechar 0
LayerCount: 2
Fore
SplineSet
946 -223 m 1,0,-1
 700 -13 l 1,1,2
 679 -15 679 -15 658 -16.5 c 128,-1,3
 637 -18 637 -18 616 -18 c 0,4,5
 456 -18 456 -18 346.5 55 c 0,6,7
 236 128 236 128 190 258 c 0,8,9
 162 336 162 336 163 429 c 0,10,11
 163 491 163 491 175 560 c 2,12,-1
 183 604 l 2,13,14
 213 776 213 776 304 905.5 c 128,-1,15
 395 1035 395 1035 530 1108 c 128,-1,16
 665 1181 665 1181 826 1181 c 256,17,18
 987 1181 987 1181 1096.5 1108 c 0,19,20
 1206 1036 1206 1036 1252 906 c 0,21,22
 1280 827 1280 827 1281 732 c 0,23,24
 1281 671 1281 671 1269 604 c 2,25,-1
 1261 560 l 2,26,27
 1233 404 1233 404 1150.5 281.5 c 128,-1,28
 1068 159 1068 159 946 86 c 1,29,-1
 1168 -69 l 1,30,-1
 946 -223 l 1,0,-1
655 203 m 0,31,32
 773 203 773 203 856.5 300 c 128,-1,33
 940 397 940 397 969 560 c 2,34,-1
 977 605 l 2,35,36
 988 664 988 664 988 714 c 0,37,38
 988 802 988 802 956 863 c 0,39,40
 906 959 906 959 787 959 c 0,41,42
 666 959 666 959 584 863.5 c 128,-1,43
 502 768 502 768 474 605 c 2,44,-1
 466 560 l 2,45,46
 455 499 455 499 455 447 c 0,47,48
 456 360 456 360 486 300 c 0,49,50
 534 204 534 204 655 203 c 0,31,32
EndSplineSet
Substitution2: "'ss05' Style Set 5 in Latin lookup 27 subtable" q.sc.ss05
Substitution2: "'aalt' Access All Alternates in Latin lookup 0 subtable" q.sc.ss05
EndChar

StartChar: r.sc
Encoding: 65677 -1 506
Width: 1206
GlyphClass: 2
Flags: W
AnchorPoint: "Anchor-2" 604 0 basechar 0
AnchorPoint: "Anchor-0" 795 1082 basechar 0
LayerCount: 2
Fore
SplineSet
39 0 m 1,0,-1
 70 175 l 1,1,-1
 227 208 l 1,2,-1
 358 955 l 1,3,-1
 213 989 l 1,4,-1
 244 1165 l 1,5,-1
 395 1165 l 1,6,-1
 861 1165 l 2,7,8
 1005 1165 1005 1165 1102.5 1120 c 0,9,10
 1200 1074 1200 1074 1242 992 c 0,11,12
 1270 936 1270 936 1270 866 c 0,13,14
 1270 833 1270 833 1264 796 c 0,15,16
 1245 687 1245 687 1171.5 603.5 c 128,-1,17
 1098 520 1098 520 984 473.5 c 128,-1,18
 870 427 870 427 730 427 c 2,19,-1
 557 427 l 1,20,-1
 519 208 l 1,21,-1
 660 175 l 1,22,-1
 629 0 l 1,23,-1
 39 0 l 1,0,-1
844 0 m 1,24,-1
 720 540 l 1,25,-1
 1007 541 l 1,26,-1
 1105 197 l 1,27,-1
 1196 175 l 1,28,-1
 1165 0 l 1,29,-1
 844 0 l 1,24,-1
594 644 m 1,30,-1
 768 644 l 2,31,32
 852 644 852 644 904.5 684 c 128,-1,33
 957 724 957 724 968 790 c 0,34,35
 971 807 971 807 971 822 c 0,36,37
 972 870 972 870 942 902 c 0,38,39
 904 944 904 944 820 943 c 2,40,-1
 646 943 l 1,41,-1
 594 644 l 1,30,-1
EndSplineSet
Substitution2: "'ss05' Style Set 5 in Latin lookup 27 subtable" r.sc.ss05
Substitution2: "'aalt' Access All Alternates in Latin lookup 0 subtable" r.sc.ss05
EndChar

StartChar: s.sc
Encoding: 65681 -1 510
Width: 1116
GlyphClass: 2
Flags: W
AnchorPoint: "Anchor-2" 558 0 basechar 0
AnchorPoint: "Anchor-0" 749 1082 basechar 0
LayerCount: 2
Fore
SplineSet
567 -17 m 0,0,1
 422 -17 422 -17 312 10.5 c 128,-1,2
 202 38 202 38 103 113 c 1,3,-1
 157 420 l 1,4,-1
 381 420 l 1,5,-1
 383 263 l 1,6,7
 419 233 419 233 477 216.5 c 128,-1,8
 535 200 535 200 604 200 c 0,9,10
 695 200 695 200 743.5 232 c 128,-1,11
 792 264 792 264 801 317 c 0,12,13
 803 328 803 328 803 339 c 0,14,15
 803 380 803 380 772 405 c 0,16,17
 733 437 733 437 631 463 c 0,18,19
 480 501 480 501 387 550.5 c 128,-1,20
 294 600 294 600 257 670 c 0,21,22
 232 717 232 717 232 777 c 0,23,24
 232 806 232 806 238 838 c 0,25,26
 257 943 257 943 329 1019.5 c 128,-1,27
 401 1096 401 1096 511 1138 c 128,-1,28
 621 1180 621 1180 754 1182 c 0,29,30
 768 1182 768 1182 781 1182 c 0,31,32
 915 1182 915 1182 1012 1154 c 0,33,34
 1119 1124 1119 1124 1196 1057 c 1,35,-1
 1146 772 l 1,36,-1
 929 772 l 1,37,-1
 919 929 l 1,38,39
 890 942 890 942 843 951.5 c 128,-1,40
 796 961 796 961 737 961 c 0,41,42
 652 961 652 961 596.5 931 c 128,-1,43
 541 901 541 901 532 849 c 0,44,45
 526 815 526 815 546 789 c 128,-1,46
 566 763 566 763 614.5 741.5 c 128,-1,47
 663 720 663 720 742 697 c 0,48,49
 938 642 938 642 1030 556 c 0,50,51
 1101 489 1101 489 1101 385 c 0,52,53
 1101 354 1101 354 1095 320 c 0,54,55
 1076 212 1076 212 1004.5 137 c 128,-1,56
 933 62 933 62 821 22.5 c 128,-1,57
 709 -17 709 -17 567 -17 c 0,0,1
EndSplineSet
Substitution2: "'ss05' Style Set 5 in Latin lookup 27 subtable" s.sc.ss05
Substitution2: "'aalt' Access All Alternates in Latin lookup 0 subtable" s.sc.ss05
EndChar

StartChar: t.sc
Encoding: 65688 -1 517
Width: 1239
GlyphClass: 2
Flags: W
AnchorPoint: "Anchor-4" 718 573 basechar 0
AnchorPoint: "Anchor-2" 617 0 basechar 0
AnchorPoint: "Anchor-0" 808 1082 basechar 0
LayerCount: 2
Fore
SplineSet
313 0 m 1,0,-1
 344 175 l 1,1,-1
 504 205 l 1,2,-1
 634 942 l 1,3,-1
 449 942 l 1,4,-1
 412 794 l 1,5,-1
 188 794 l 1,6,-1
 253 1165 l 1,7,-1
 1390 1165 l 1,8,-1
 1325 794 l 1,9,-1
 1102 794 l 1,10,-1
 1115 942 l 1,11,-1
 926 942 l 1,12,-1
 796 205 l 1,13,-1
 946 175 l 1,14,-1
 915 0 l 1,15,-1
 313 0 l 1,0,-1
EndSplineSet
EndChar

StartChar: u.sc
Encoding: 65692 -1 521
Width: 1346
GlyphClass: 2
Flags: W
AnchorPoint: "Anchor-3" 836 0 basechar 0
AnchorPoint: "Anchor-2" 673 0 basechar 0
AnchorPoint: "Anchor-1" 1516 1082 basechar 0
AnchorPoint: "Anchor-0" 864 1082 basechar 0
LayerCount: 2
Fore
SplineSet
673 -19 m 256,0,1
 515 -19 515 -19 406.5 32.5 c 128,-1,2
 298 84 298 84 250 181 c 0,3,4
 218 245 218 245 219 327 c 0,5,6
 219 368 219 368 227 413 c 2,7,-1
 323 959 l 1,8,-1
 203 989 l 1,9,-1
 234 1165 l 1,10,-1
 806 1165 l 1,11,-1
 775 989 l 1,12,-1
 614 959 l 1,13,-1
 518 413 l 2,14,15
 513 385 513 385 513 361 c 0,16,17
 513 325 513 325 524 298 c 0,18,19
 542 252 542 252 590 228 c 128,-1,20
 638 204 638 204 712 204 c 0,21,22
 787 204 787 204 841.5 227.5 c 128,-1,23
 896 251 896 251 930.5 297.5 c 128,-1,24
 965 344 965 344 977 413 c 2,25,-1
 1073 959 l 1,26,-1
 922 989 l 1,27,-1
 953 1165 l 1,28,-1
 1527 1165 l 1,29,-1
 1496 989 l 1,30,-1
 1365 959 l 1,31,-1
 1269 413 l 2,32,33
 1245 277 1245 277 1163.5 180.5 c 128,-1,34
 1082 84 1082 84 956.5 32.5 c 128,-1,35
 831 -19 831 -19 673 -19 c 256,0,1
EndSplineSet
EndChar

StartChar: uhorn.sc
Encoding: 65700 -1 529
Width: 1506
GlyphClass: 2
Flags: W
AnchorPoint: "Anchor-2" 673 0 basechar 0
AnchorPoint: "Anchor-0" 864 1082 basechar 0
LayerCount: 2
Fore
SplineSet
673 -19 m 256,0,1
 515 -19 515 -19 406.5 32.5 c 128,-1,2
 298 84 298 84 250 181 c 0,3,4
 218 245 218 245 219 327 c 0,5,6
 219 368 219 368 227 413 c 2,7,-1
 323 959 l 1,8,-1
 203 989 l 1,9,-1
 234 1165 l 1,10,-1
 806 1165 l 1,11,-1
 775 989 l 1,12,-1
 614 959 l 1,13,-1
 518 413 l 2,14,15
 513 385 513 385 513 361 c 0,16,17
 513 325 513 325 524 298 c 0,18,19
 542 252 542 252 590 228 c 128,-1,20
 638 204 638 204 712 204 c 0,21,22
 787 204 787 204 841.5 227.5 c 128,-1,23
 896 251 896 251 930.5 297.5 c 128,-1,24
 965 344 965 344 977 413 c 2,25,-1
 1073 959 l 1,26,-1
 922 989 l 1,27,-1
 953 1165 l 1,28,-1
 1401 1165 l 1,29,-1
 1269 413 l 2,30,31
 1245 277 1245 277 1163.5 180.5 c 128,-1,32
 1082 84 1082 84 956.5 32.5 c 128,-1,33
 831 -19 831 -19 673 -19 c 256,0,1
1301 809 m 1,34,-1
 1325 949 l 1,35,36
 1387 949 1387 949 1425 978.5 c 128,-1,37
 1463 1008 1463 1008 1485 1061.5 c 128,-1,38
 1507 1115 1507 1115 1519 1185 c 1,39,-1
 1717 1185 l 1,40,41
 1698 1075 1698 1075 1648.5 990 c 128,-1,42
 1599 905 1599 905 1514 857 c 128,-1,43
 1429 809 1429 809 1301 809 c 1,34,-1
EndSplineSet
EndChar

StartChar: v.sc
Encoding: 65711 -1 540
Width: 1311
GlyphClass: 2
Flags: W
AnchorPoint: "Anchor-2" 656 0 basechar 0
AnchorPoint: "Anchor-0" 847 1082 basechar 0
LayerCount: 2
Fore
SplineSet
504 0 m 1,0,-1
 318 973 l 1,1,-1
 205 989 l 1,2,-1
 236 1165 l 1,3,-1
 747 1165 l 1,4,-1
 716 989 l 1,5,-1
 615 970 l 1,6,-1
 704 312 l 1,7,-1
 706 274 l 1,8,-1
 712 274 l 1,9,-1
 726 307 l 1,10,-1
 1051 970 l 1,11,-1
 956 989 l 1,12,-1
 987 1165 l 1,13,-1
 1498 1165 l 1,14,-1
 1467 989 l 1,15,-1
 1349 973 l 1,16,-1
 820 0 l 1,17,-1
 504 0 l 1,0,-1
EndSplineSet
EndChar

StartChar: w.sc
Encoding: 65712 -1 541
Width: 1811
GlyphClass: 2
Flags: W
AnchorPoint: "Anchor-2" 906 0 basechar 0
AnchorPoint: "Anchor-0" 1102 1114 basechar 0
LayerCount: 2
Fore
SplineSet
397 0 m 1,0,-1
 292 976 l 1,1,-1
 207 989 l 1,2,-1
 238 1165 l 1,3,-1
 733 1165 l 1,4,-1
 702 989 l 1,5,-1
 583 966 l 1,6,-1
 617 490 l 1,7,-1
 622 412 l 1,8,-1
 628 413 l 1,9,-1
 664 493 l 1,10,-1
 987 1165 l 1,11,-1
 1233 1165 l 1,12,-1
 1318 489 l 1,13,-1
 1325 412 l 1,14,-1
 1330 413 l 1,15,-1
 1362 494 l 1,16,-1
 1563 966 l 1,17,-1
 1454 989 l 1,18,-1
 1485 1165 l 1,19,-1
 1979 1165 l 1,20,-1
 1948 989 l 1,21,-1
 1859 976 l 1,22,-1
 1413 0 l 1,23,-1
 1128 0 l 1,24,-1
 1045 661 l 1,25,-1
 1036 736 l 1,26,-1
 1030 736 l 1,27,-1
 994 662 l 1,28,-1
 680 0 l 1,29,-1
 397 0 l 1,0,-1
EndSplineSet
EndChar

StartChar: x.sc
Encoding: 65717 -1 546
Width: 1245
GlyphClass: 2
Flags: W
AnchorPoint: "Anchor-2" 622 0 basechar 0
AnchorPoint: "Anchor-0" 813 1082 basechar 0
LayerCount: 2
Fore
SplineSet
31 0 m 1,0,-1
 62 175 l 1,1,-1
 191 197 l 1,2,-1
 528 588 l 1,3,-1
 330 966 l 1,4,-1
 207 989 l 1,5,-1
 238 1165 l 1,6,-1
 742 1165 l 1,7,-1
 714 1002 l 1,8,-1
 651 992 l 1,9,-1
 752 767 l 1,10,-1
 935 992 l 1,11,-1
 878 1002 l 1,12,-1
 906 1165 l 1,13,-1
 1412 1165 l 1,14,-1
 1381 989 l 1,15,-1
 1250 966 l 1,16,-1
 920 588 l 1,17,-1
 1118 197 l 1,18,-1
 1239 175 l 1,19,-1
 1208 0 l 1,20,-1
 704 0 l 1,21,-1
 733 162 l 1,22,-1
 796 172 l 1,23,-1
 692 406 l 1,24,-1
 505 172 l 1,25,-1
 566 162 l 1,26,-1
 537 0 l 1,27,-1
 31 0 l 1,0,-1
EndSplineSet
EndChar

StartChar: y.sc
Encoding: 65718 -1 547
Width: 1212
GlyphClass: 2
Flags: W
AnchorPoint: "Anchor-2" 607 0 basechar 0
AnchorPoint: "Anchor-0" 798 1082 basechar 0
LayerCount: 2
Fore
SplineSet
300 0 m 1,0,-1
 331 175 l 1,1,-1
 491 205 l 1,2,-1
 529 420 l 1,3,-1
 336 968 l 1,4,-1
 197 989 l 1,5,-1
 228 1165 l 1,6,-1
 738 1165 l 1,7,-1
 707 989 l 1,8,-1
 635 975 l 1,9,-1
 711 703 l 1,10,-1
 718 664 l 1,11,-1
 724 665 l 1,12,-1
 743 703 l 1,13,-1
 918 975 l 1,14,-1
 849 989 l 1,15,-1
 880 1165 l 1,16,-1
 1390 1165 l 1,17,-1
 1359 989 l 1,18,-1
 1214 968 l 1,19,-1
 819 409 l 1,20,-1
 783 205 l 1,21,-1
 933 175 l 1,22,-1
 902 0 l 1,23,-1
 300 0 l 1,0,-1
EndSplineSet
EndChar

StartChar: z.sc
Encoding: 65726 -1 555
Width: 1127
GlyphClass: 2
Flags: W
AnchorPoint: "Anchor-2" 564 0 basechar 0
AnchorPoint: "Anchor-0" 755 1082 basechar 0
LayerCount: 2
Fore
SplineSet
79 0 m 1,0,-1
 101 122 l 1,1,-1
 817 942 l 1,2,-1
 513 942 l 1,3,-1
 476 796 l 1,4,-1
 253 796 l 1,5,-1
 318 1165 l 1,6,-1
 1234 1165 l 1,7,-1
 1214 1048 l 1,8,-1
 493 222 l 1,9,-1
 841 222 l 1,10,-1
 879 368 l 1,11,-1
 1101 368 l 1,12,-1
 1036 0 l 1,13,-1
 79 0 l 1,0,-1
EndSplineSet
EndChar

StartChar: c.sc.ss05
Encoding: 65730 -1 559
Width: 1155
GlyphClass: 1
Flags: W
LayerCount: 2
Fore
SplineSet
604 -17 m 0,0,1
 452 -17 452 -17 348.5 46 c 0,2,3
 245 108 245 108 202 224 c 0,4,5
 176 295 176 295 176 382 c 0,6,7
 176 436 176 436 186 496 c 2,8,-1
 216 661 l 2,9,10
 244 819 244 819 328 936 c 128,-1,11
 412 1053 412 1053 537 1117 c 128,-1,12
 662 1181 662 1181 815 1181 c 0,13,14
 1032 1181 1032 1181 1140 1077 c 0,15,16
 1225 995 1225 995 1224 855 c 0,17,18
 1224 817 1224 817 1218 775 c 1,19,-1
 1215 769 l 1,20,-1
 933 769 l 1,21,22
 934 780 934 780 934 791 c 0,23,24
 934 870 934 870 901 912 c 0,25,26
 864 958 864 958 776 958 c 0,27,28
 671 958 671 958 601 878.5 c 128,-1,29
 531 799 531 799 507 662 c 2,30,-1
 477 496 l 2,31,32
 468 448 468 448 468 407 c 0,33,34
 468 334 468 334 496 284 c 0,35,36
 539 206 539 206 643 205 c 0,37,38
 707 205 707 205 748.5 224 c 128,-1,39
 790 243 790 243 817.5 285 c 128,-1,40
 845 327 845 327 865 397 c 1,41,-1
 1147 397 l 1,42,-1
 1148 391 l 1,43,44
 1121 258 1121 258 1046.5 167 c 128,-1,45
 972 76 972 76 860 29.5 c 128,-1,46
 748 -17 748 -17 604 -17 c 0,0,1
EndSplineSet
EndChar

StartChar: d.sc.ss05
Encoding: 65731 -1 560
Width: 1265
GlyphClass: 1
Flags: W
LayerCount: 2
Fore
SplineSet
43 0 m 1,0,-1
 74 175 l 1,1,-1
 235 205 l 1,2,-1
 368 959 l 1,3,-1
 217 989 l 1,4,-1
 248 1165 l 1,5,-1
 404 1165 l 1,6,-1
 862 1165 l 2,7,8
 1012 1165 1012 1165 1119 1104 c 0,9,10
 1226 1044 1226 1044 1274 936 c 0,11,12
 1306 865 1306 865 1306 780 c 0,13,14
 1306 736 1306 736 1297 687 c 2,15,-1
 1260 477 l 2,16,17
 1235 336 1235 336 1149 228.5 c 128,-1,18
 1063 121 1063 121 935 60.5 c 128,-1,19
 807 0 807 0 657 0 c 2,20,-1
 43 0 l 1,0,-1
529 222 m 1,21,-1
 696 222 l 2,22,23
 763 222 763 222 820.5 254.5 c 128,-1,24
 878 287 878 287 916.5 345 c 128,-1,25
 955 403 955 403 968 477 c 2,26,-1
 1005 688 l 2,27,28
 1010 719 1010 719 1010 747 c 0,29,30
 1010 786 1010 786 1000 820 c 0,31,32
 982 878 982 878 936 910 c 128,-1,33
 890 942 890 942 823 942 c 2,34,-1
 656 942 l 1,35,-1
 529 222 l 1,21,-1
EndSplineSet
EndChar

StartChar: g.sc.ss05
Encoding: 65732 -1 561
Width: 1236
GlyphClass: 1
Flags: W
LayerCount: 2
Fore
SplineSet
634 -17 m 0,0,1
 475 -17 475 -17 365 47 c 128,-1,2
 255 111 255 111 207 225 c 0,3,4
 176 299 176 299 176 388 c 0,5,6
 176 436 176 436 185 489 c 2,7,-1
 218 675 l 2,8,9
 244 824 244 824 330.5 938 c 128,-1,10
 417 1052 417 1052 545.5 1116.5 c 128,-1,11
 674 1181 674 1181 826 1181 c 0,12,13
 1054 1182 1054 1182 1166 1084 c 0,14,15
 1261 1001 1261 1001 1260 859 c 0,16,17
 1260 834 1260 834 1257 806 c 1,18,-1
 1255 800 l 1,19,-1
 972 800 l 1,20,21
 972 804 972 804 972 807 c 0,22,23
 972 884 972 884 930 920 c 0,24,25
 886 958 886 958 787 958 c 0,26,27
 717 958 717 958 659 922 c 128,-1,28
 601 886 601 886 562.5 822.5 c 128,-1,29
 524 759 524 759 509 676 c 2,30,-1
 476 489 l 2,31,32
 469 452 469 452 469 418 c 0,33,34
 470 377 470 377 480 342 c 0,35,36
 498 278 498 278 547.5 241.5 c 128,-1,37
 597 205 597 205 673 205 c 0,38,39
 760 205 760 205 811 217 c 128,-1,40
 862 229 862 229 896 250 c 1,41,-1
 928 431 l 1,42,-1
 710 431 l 1,43,-1
 744 624 l 1,44,-1
 1254 624 l 1,45,-1
 1172 161 l 1,46,47
 1092 86 1092 86 960.5 34.5 c 128,-1,48
 829 -17 829 -17 634 -17 c 0,0,1
EndSplineSet
EndChar

StartChar: k.sc.ss05
Encoding: 65733 -1 562
Width: 1280
GlyphClass: 1
Flags: W
LayerCount: 2
Fore
SplineSet
44 0 m 1,0,-1
 75 175 l 1,1,-1
 236 205 l 1,2,-1
 369 959 l 1,3,-1
 218 989 l 1,4,-1
 249 1165 l 1,5,-1
 812 1165 l 1,6,-1
 781 989 l 1,7,-1
 660 959 l 1,8,-1
 613 694 l 1,9,-1
 707 694 l 1,10,-1
 928 963 l 1,11,-1
 939 978 l 1,12,-1
 870 989 l 1,13,-1
 901 1165 l 1,14,-1
 1412 1165 l 1,15,-1
 1381 989 l 1,16,-1
 1260 963 l 1,17,-1
 948 627 l 1,18,-1
 1158 198 l 1,19,-1
 1260 175 l 1,20,-1
 1229 0 l 1,21,-1
 712 0 l 1,22,-1
 743 175 l 1,23,-1
 812 185 l 1,24,-1
 806 196 l 1,25,-1
 684 459 l 1,26,-1
 572 459 l 1,27,-1
 527 205 l 1,28,-1
 638 175 l 1,29,-1
 607 0 l 1,30,-1
 44 0 l 1,0,-1
EndSplineSet
EndChar

StartChar: o.sc.ss05
Encoding: 65734 -1 563
Width: 1231
GlyphClass: 1
Flags: W
LayerCount: 2
Fore
SplineSet
623 -19 m 256,0,1
 468 -19 468 -19 360.5 46.5 c 128,-1,2
 253 112 253 112 207 228 c 0,3,4
 178 302 178 302 178 391 c 0,5,6
 178 441 178 441 187 496 c 2,7,-1
 218 668 l 2,8,9
 245 820 245 820 331.5 935.5 c 128,-1,10
 418 1051 418 1051 548 1116 c 128,-1,11
 678 1181 678 1181 833 1181 c 256,12,13
 988 1181 988 1181 1095 1116 c 0,14,15
 1202 1052 1202 1052 1249 936 c 0,16,17
 1279 863 1279 863 1279 774 c 0,18,19
 1279 723 1279 723 1269 668 c 2,20,-1
 1238 496 l 2,21,22
 1211 344 1211 344 1124.5 228 c 128,-1,23
 1038 112 1038 112 908 46.5 c 128,-1,24
 778 -19 778 -19 623 -19 c 256,0,1
662 204 m 0,25,26
 770 204 770 204 847 286 c 128,-1,27
 924 368 924 368 946 496 c 2,28,-1
 977 669 l 2,29,30
 984 709 984 709 984 744 c 0,31,32
 984 821 984 821 950 877 c 0,33,34
 902 958 902 958 794 958 c 0,35,36
 683 958 683 958 607.5 877.5 c 128,-1,37
 532 797 532 797 509 669 c 2,38,-1
 478 496 l 2,39,40
 471 455 471 455 471 418 c 0,41,42
 471 342 471 342 503 286 c 0,43,44
 551 204 551 204 662 204 c 0,25,26
EndSplineSet
EndChar

StartChar: q.sc.ss05
Encoding: 65735 -1 564
Width: 1237
GlyphClass: 1
Flags: W
LayerCount: 2
Fore
SplineSet
967 -213 m 1,0,-1
 728 -9 l 1,1,2
 698 -13 698 -13 669.5 -16 c 128,-1,3
 641 -19 641 -19 613 -19 c 0,4,5
 458 -19 458 -19 350.5 46.5 c 128,-1,6
 243 112 243 112 197 228 c 0,7,8
 168 302 168 302 168 391 c 0,9,10
 168 441 168 441 177 496 c 2,11,-1
 208 668 l 2,12,13
 235 820 235 820 321.5 935.5 c 128,-1,14
 408 1051 408 1051 538 1116 c 128,-1,15
 668 1181 668 1181 823 1181 c 256,16,17
 978 1181 978 1181 1085 1116 c 0,18,19
 1192 1052 1192 1052 1239 936 c 0,20,21
 1269 863 1269 863 1269 774 c 0,22,23
 1269 723 1269 723 1259 668 c 2,24,-1
 1228 496 l 2,25,26
 1206 369 1206 369 1140.5 266 c 128,-1,27
 1075 163 1075 163 977 94 c 1,28,-1
 1182 -68 l 1,29,-1
 967 -213 l 1,0,-1
652 204 m 0,30,31
 760 204 760 204 837.5 286 c 128,-1,32
 915 368 915 368 937 496 c 2,33,-1
 968 669 l 2,34,35
 975 708 975 708 975 743 c 0,36,37
 975 821 975 821 941 877 c 0,38,39
 892 958 892 958 784 958 c 0,40,41
 673 958 673 958 598 877.5 c 128,-1,42
 523 797 523 797 500 669 c 2,43,-1
 469 496 l 2,44,45
 462 454 462 454 462 417 c 0,46,47
 462 340 462 340 494 286 c 0,48,49
 542 204 542 204 652 204 c 0,30,31
EndSplineSet
EndChar

StartChar: r.sc.ss05
Encoding: 65736 -1 565
Width: 1254
GlyphClass: 1
Flags: W
LayerCount: 2
Fore
SplineSet
36 0 m 1,0,-1
 67 175 l 1,1,-1
 220 205 l 1,2,-1
 353 959 l 1,3,-1
 210 989 l 1,4,-1
 241 1165 l 1,5,-1
 389 1165 l 1,6,-1
 851 1165 l 2,7,8
 995 1165 995 1165 1093 1122 c 0,9,10
 1190 1079 1190 1079 1234 1000 c 0,11,12
 1264 945 1264 945 1265 875 c 0,13,14
 1265 845 1265 845 1259 812 c 0,15,16
 1242 716 1242 716 1178 646 c 128,-1,17
 1114 576 1114 576 1006 533 c 1,18,19
 1108 503 1108 503 1142 431 c 0,20,21
 1165 384 1165 384 1165 323 c 0,22,23
 1165 291 1165 291 1159 255 c 2,24,-1
 1153 223 l 2,25,26
 1152 216 1152 216 1150.5 208 c 128,-1,27
 1149 200 1149 200 1148 192 c 1,28,-1
 1236 175 l 1,29,-1
 1205 0 l 1,30,-1
 885 0 l 1,31,32
 848 19 848 19 846 71 c 0,33,34
 846 78 846 78 846 86 c 0,35,36
 846 130 846 130 854 173 c 2,37,-1
 868 254 l 2,38,39
 872 277 872 277 872 296 c 0,40,41
 872 346 872 346 846 376 c 0,42,43
 810 418 810 418 729 418 c 2,44,-1
 550 418 l 1,45,-1
 512 205 l 1,46,-1
 662 175 l 1,47,-1
 631 0 l 1,48,-1
 36 0 l 1,0,-1
589 642 m 1,49,-1
 759 642 l 2,50,51
 844 642 844 642 897 682 c 128,-1,52
 950 722 950 722 962 791 c 0,53,54
 964 805 964 805 964 819 c 0,55,56
 964 866 964 866 934 899 c 0,57,58
 895 942 895 942 812 942 c 2,59,-1
 642 942 l 1,60,-1
 589 642 l 1,49,-1
EndSplineSet
EndChar

StartChar: s.sc.ss05
Encoding: 65737 -1 566
Width: 1135
GlyphClass: 1
Flags: W
LayerCount: 2
Fore
SplineSet
568 -19 m 0,0,1
 412 -19 412 -19 306.5 25.5 c 128,-1,2
 201 70 201 70 156 154 c 0,3,4
 127 208 127 208 127 275 c 0,5,6
 127 311 127 311 135 351 c 1,7,-1
 138 357 l 1,8,-1
 420 357 l 1,9,10
 417 340 417 340 417 324 c 0,11,12
 417 290 417 290 431 267 c 0,13,14
 451 233 451 233 496 218 c 128,-1,15
 541 203 541 203 607 203 c 0,16,17
 707 203 707 203 760 235.5 c 128,-1,18
 813 268 813 268 823 322 c 0,19,20
 825 332 825 332 825 342 c 0,21,22
 825 366 825 366 814 386 c 0,23,24
 799 414 799 414 755 436 c 128,-1,25
 711 458 711 458 630 476 c 0,26,27
 483 506 483 506 394.5 549.5 c 128,-1,28
 306 593 306 593 273 663 c 0,29,30
 252 707 252 707 252 767 c 0,31,32
 252 801 252 801 259 840 c 0,33,34
 276 938 276 938 346.5 1015 c 128,-1,35
 417 1092 417 1092 527.5 1136.5 c 128,-1,36
 638 1181 638 1181 779 1181 c 0,37,38
 998 1181 998 1181 1104 1082 c 0,39,40
 1184 1007 1184 1007 1184 893 c 0,41,42
 1184 856 1184 856 1176 815 c 1,43,-1
 1173 809 l 1,44,-1
 891 809 l 1,45,46
 895 829 895 829 895 846 c 0,47,48
 895 892 895 892 869 920 c 0,49,50
 834 959 834 959 740 959 c 0,51,52
 651 959 651 959 604.5 926 c 128,-1,53
 558 893 558 893 549 842 c 0,54,55
 547 829 547 829 547 818 c 0,56,57
 547 795 547 795 556 776 c 0,58,59
 570 748 570 748 616.5 727.5 c 128,-1,60
 663 707 663 707 753 687 c 0,61,62
 960 643 960 643 1051 562 c 0,63,64
 1121 500 1121 500 1121 395 c 0,65,66
 1121 363 1121 363 1114 326 c 0,67,68
 1096 222 1096 222 1022 144.5 c 128,-1,69
 948 67 948 67 831.5 24 c 128,-1,70
 715 -19 715 -19 568 -19 c 0,0,1
EndSplineSet
EndChar

StartChar: uni207F
Encoding: 8319 8319 567
Width: 947
GlyphClass: 1
Flags: W
LayerCount: 2
Fore
SplineSet
253 653 m 1,0,-1
 394 1454 l 1,1,-1
 563 1454 l 1,2,-1
 574 1331 l 1,3,4
 621 1395 621 1395 683.5 1430.5 c 128,-1,5
 746 1466 746 1466 820 1466 c 0,6,7
 947 1466 947 1466 1002 1391 c 0,8,9
 1038 1341 1038 1341 1038 1256 c 0,10,11
 1038 1212 1038 1212 1029 1159 c 2,12,-1
 940 653 l 1,13,-1
 727 653 l 1,14,-1
 805 1097 l 2,15,16
 813 1140 813 1140 813 1173 c 0,17,18
 813 1217 813 1217 799 1242 c 0,19,20
 775 1286 775 1286 712 1286 c 0,21,22
 663 1286 663 1286 625.5 1265 c 128,-1,23
 588 1244 588 1244 565 1206 c 1,24,-1
 467 653 l 1,25,-1
 253 653 l 1,0,-1
EndSplineSet
EndChar

StartChar: ordfeminine
Encoding: 170 170 568
Width: 867
GlyphClass: 1
Flags: W
LayerCount: 2
Fore
SplineSet
465 692 m 0,0,1
 346 692 346 692 292 753 c 0,2,3
 252 799 252 799 252 870 c 0,4,5
 252 894 252 894 256 920 c 0,6,7
 276 1031 276 1031 371 1091 c 128,-1,8
 466 1151 466 1151 628 1151 c 2,9,-1
 765 1151 l 1,10,-1
 774 1202 l 2,11,12
 777 1221 777 1221 777 1238 c 0,13,14
 777 1274 777 1274 761 1296 c 0,15,16
 737 1328 737 1328 680 1329 c 0,17,18
 614 1329 614 1329 573.5 1303 c 128,-1,19
 533 1277 533 1277 525 1230 c 1,20,-1
 362 1243 l 1,21,-1
 362 1249 l 1,22,23
 373 1347 373 1347 470 1412 c 128,-1,24
 567 1477 567 1477 706 1477 c 0,25,26
 840 1477 840 1477 906 1406 c 0,27,28
 955 1353 955 1353 955 1266 c 0,29,30
 955 1236 955 1236 949 1201 c 2,31,-1
 893 887 l 2,32,33
 884 836 884 836 882 792 c 0,34,35
 882 783 882 783 882 774 c 0,36,37
 882 739 882 739 887 706 c 1,38,-1
 710 706 l 1,39,40
 706 727 706 727 705 750.5 c 128,-1,41
 704 774 704 774 706 800 c 1,42,43
 665 753 665 753 604 722.5 c 128,-1,44
 543 692 543 692 465 692 c 0,0,1
533 836 m 0,45,46
 567 836 567 836 606 850 c 128,-1,47
 645 864 645 864 678 886 c 128,-1,48
 711 908 711 908 726 931 c 1,49,-1
 744 1034 l 1,50,-1
 608 1034 l 2,51,52
 534 1034 534 1034 487 1002 c 128,-1,53
 440 970 440 970 432 924 c 0,54,55
 430 914 430 914 430 904 c 0,56,57
 430 874 430 874 449 858 c 0,58,59
 474 836 474 836 533 836 c 0,45,46
EndSplineSet
EndChar

StartChar: ordmasculine
Encoding: 186 186 569
Width: 914
GlyphClass: 1
Flags: W
LayerCount: 2
Fore
SplineSet
579 691 m 0,0,1
 420 692 420 692 342 784 c 0,2,3
 284 853 284 853 283 952 c 0,4,5
 283 986 283 986 290 1025 c 2,6,-1
 310 1142 l 2,7,8
 336 1290 336 1290 447 1383.5 c 128,-1,9
 558 1477 558 1477 715 1477 c 0,10,11
 873 1478 873 1478 951 1384 c 0,12,13
 1010 1314 1010 1314 1010 1213 c 0,14,15
 1010 1179 1010 1179 1003 1142 c 2,16,-1
 983 1025 l 2,17,18
 957 876 957 876 847 783.5 c 128,-1,19
 737 691 737 691 579 691 c 0,0,1
605 837 m 0,20,21
 687 837 687 837 740 888.5 c 128,-1,22
 793 940 793 940 808 1025 c 2,23,-1
 828 1142 l 2,24,25
 832 1167 832 1167 832 1189 c 0,26,27
 832 1241 832 1241 808 1277 c 0,28,29
 772 1329 772 1329 689 1329 c 0,30,31
 605 1329 605 1329 552.5 1277 c 128,-1,32
 500 1225 500 1225 485 1142 c 2,33,-1
 465 1025 l 2,34,35
 460 999 460 999 460 977 c 0,36,37
 460 924 460 924 485 888 c 0,38,39
 520 836 520 836 605 837 c 0,20,21
EndSplineSet
EndChar

StartChar: uni0411
Encoding: 1041 1041 571
Width: 1368
GlyphClass: 1
Flags: W
LayerCount: 2
Fore
SplineSet
64 0 m 1,0,-1
 95 175 l 1,1,-1
 255 205 l 1,2,-1
 439 1250 l 1,3,-1
 290 1280 l 1,4,-1
 321 1456 l 1,5,-1
 1425 1456 l 1,6,-1
 1360 1087 l 1,7,-1
 1136 1087 l 1,8,-1
 1149 1231 l 1,9,-1
 732 1231 l 1,10,-1
 677 917 l 1,11,-1
 927 917 l 2,12,13
 1096 917 1096 917 1208.5 861 c 0,14,15
 1322 806 1322 806 1370 704 c 0,16,17
 1402 636 1402 636 1402 551 c 0,18,19
 1402 509 1402 509 1394 464 c 0,20,21
 1369 325 1369 325 1283.5 220.5 c 128,-1,22
 1198 116 1198 116 1065.5 58 c 128,-1,23
 933 0 933 0 765 0 c 2,24,-1
 64 0 l 1,0,-1
554 224 m 1,25,-1
 804 224 l 2,26,27
 927 224 927 224 1006 293 c 128,-1,28
 1085 362 1085 362 1103 466 c 0,29,30
 1107 491 1107 491 1107 513 c 0,31,32
 1107 581 1107 581 1066 629 c 0,33,34
 1011 692 1011 692 887 692 c 2,35,-1
 637 692 l 1,36,-1
 554 224 l 1,25,-1
EndSplineSet
EndChar

StartChar: uni0413
Encoding: 1043 1043 573
Width: 1223
GlyphClass: 2
Flags: W
AnchorPoint: "Anchor-4" 527 749 basechar 0
AnchorPoint: "Anchor-0" 899 1364 basechar 0
LayerCount: 2
Fore
SplineSet
65 0 m 1,0,-1
 96 175 l 1,1,-1
 256 205 l 1,2,-1
 440 1250 l 1,3,-1
 291 1280 l 1,4,-1
 322 1456 l 1,5,-1
 1426 1456 l 1,6,-1
 1361 1087 l 1,7,-1
 1137 1087 l 1,8,-1
 1150 1231 l 1,9,-1
 729 1231 l 1,10,-1
 548 205 l 1,11,-1
 699 175 l 1,12,-1
 668 0 l 1,13,-1
 65 0 l 1,0,-1
EndSplineSet
EndChar

StartChar: uni0490
Encoding: 1168 1168 575
Width: 1220
GlyphClass: 1
Flags: W
LayerCount: 2
Fore
SplineSet
60 0 m 1,0,-1
 91 175 l 1,1,-1
 252 205 l 1,2,-1
 436 1250 l 1,3,-1
 286 1280 l 1,4,-1
 317 1456 l 1,5,-1
 1156 1456 l 1,6,-1
 1265 1824 l 1,7,-1
 1487 1824 l 1,8,-1
 1382 1231 l 1,9,-1
 725 1231 l 1,10,-1
 544 205 l 1,11,-1
 695 175 l 1,12,-1
 664 0 l 1,13,-1
 60 0 l 1,0,-1
EndSplineSet
EndChar

StartChar: uni0494
Encoding: 1172 1172 578
Width: 1323
GlyphClass: 1
Flags: W
LayerCount: 2
Fore
SplineSet
681 -329 m 1,0,-1
 675 -327 l 1,1,-1
 712 -121 l 1,2,3
 812 -121 812 -121 875 -74 c 128,-1,4
 938 -27 938 -27 974.5 54.5 c 128,-1,5
 1011 136 1011 136 1029 237 c 0,6,7
 1040 299 1040 299 1040 350 c 0,8,9
 1040 452 1040 452 998 514 c 0,10,11
 934 607 934 607 782 607 c 2,12,-1
 619 607 l 1,13,-1
 548 205 l 1,14,-1
 699 175 l 1,15,-1
 668 0 l 1,16,-1
 65 0 l 1,17,-1
 96 175 l 1,18,-1
 256 205 l 1,19,-1
 440 1250 l 1,20,-1
 291 1280 l 1,21,-1
 322 1456 l 1,22,-1
 1426 1456 l 1,23,-1
 1361 1087 l 1,24,-1
 1137 1087 l 1,25,-1
 1150 1231 l 1,26,-1
 729 1231 l 1,27,-1
 659 836 l 1,28,-1
 822 836 l 2,29,30
 1008 836 1008 836 1131.5 768.5 c 0,31,32
 1256 700 1256 700 1306 570 c 0,33,34
 1336 492 1336 492 1336 393 c 0,35,36
 1336 326 1336 326 1322 250 c 0,37,38
 1300 125 1300 125 1249 18.5 c 128,-1,39
 1198 -88 1198 -88 1118 -166.5 c 128,-1,40
 1038 -245 1038 -245 929 -288 c 0,41,42
 825 -329 825 -329 693 -329 c 0,43,44
 687 -329 687 -329 681 -329 c 1,0,-1
EndSplineSet
EndChar

StartChar: uni0414
Encoding: 1044 1044 579
Width: 1575
GlyphClass: 1
Flags: W
LayerCount: 2
Fore
SplineSet
1 -358 m 1,0,-1
 81 224 l 1,1,-1
 193 224 l 1,2,3
 253 269 253 269 311 346.5 c 128,-1,4
 369 424 369 424 419.5 549 c 128,-1,5
 470 674 470 674 510 860 c 1,6,-1
 606 1252 l 1,7,-1
 469 1280 l 1,8,-1
 500 1456 l 1,9,-1
 1758 1456 l 1,10,-1
 1727 1280 l 1,11,-1
 1566 1250 l 1,12,-1
 1385 224 l 1,13,-1
 1557 224 l 1,14,-1
 1428 -358 l 1,15,-1
 1163 -358 l 1,16,-1
 1226 0 l 1,17,-1
 333 0 l 1,18,-1
 270 -358 l 1,19,-1
 1 -358 l 1,0,-1
524 224 m 1,20,-1
 1093 224 l 1,21,-1
 1271 1231 l 1,22,-1
 892 1231 l 1,23,-1
 803 860 l 2,24,25
 771 713 771 713 728.5 595.5 c 128,-1,26
 686 478 686 478 635 386.5 c 128,-1,27
 584 295 584 295 524 224 c 1,20,-1
EndSplineSet
EndChar

StartChar: uni0416
Encoding: 1046 1046 583
Width: 2154
GlyphClass: 2
Flags: W
AnchorPoint: "Anchor-0" 1320 1364 basechar 0
LayerCount: 2
Fore
SplineSet
39 0 m 1,0,-1
 70 175 l 1,1,-1
 219 196 l 1,2,-1
 669 791 l 1,3,-1
 537 1089 l 1,4,5
 501 1160 501 1160 469 1186 c 128,-1,6
 437 1212 437 1212 395 1212 c 0,7,8
 377 1212 377 1212 358 1208.5 c 128,-1,9
 339 1205 339 1205 321 1200 c 1,10,-1
 316 1419 l 1,11,12
 355 1442 355 1442 404 1456 c 128,-1,13
 453 1470 453 1470 513 1470 c 0,14,15
 581 1470 581 1470 627.5 1449.5 c 128,-1,16
 674 1429 674 1429 709 1382 c 128,-1,17
 744 1335 744 1335 778 1254 c 2,18,-1
 935 861 l 1,19,-1
 1086 861 l 1,20,-1
 1154 1250 l 1,21,-1
 1004 1280 l 1,22,-1
 1035 1456 l 1,23,-1
 1638 1456 l 1,24,-1
 1607 1280 l 1,25,-1
 1445 1250 l 1,26,-1
 1377 861 l 1,27,-1
 1532 861 l 1,28,-1
 1823 1254 l 2,29,30
 1912 1376 1912 1376 1987 1423 c 128,-1,31
 2062 1470 2062 1470 2164 1470 c 0,32,33
 2224 1470 2224 1470 2266.5 1456.5 c 128,-1,34
 2309 1443 2309 1443 2342 1419 c 1,35,-1
 2263 1200 l 1,36,37
 2246 1205 2246 1205 2228.5 1208.5 c 128,-1,38
 2211 1212 2211 1212 2192 1212 c 0,39,40
 2153 1212 2153 1212 2108.5 1187 c 128,-1,41
 2064 1162 2064 1162 2007 1089 c 2,42,-1
 1769 787 l 1,43,-1
 2003 196 l 1,44,-1
 2150 175 l 1,45,-1
 2119 0 l 1,46,-1
 1561 0 l 1,47,-1
 1592 175 l 1,48,-1
 1653 186 l 1,49,-1
 1651 189 l 1,50,-1
 1509 596 l 1,51,-1
 1330 596 l 1,52,-1
 1261 205 l 1,53,-1
 1412 175 l 1,54,-1
 1381 0 l 1,55,-1
 778 0 l 1,56,-1
 809 175 l 1,57,-1
 970 205 l 1,58,-1
 1039 596 l 1,59,-1
 858 596 l 1,60,-1
 569 191 l 1,61,-1
 566 186 l 1,62,-1
 620 175 l 1,63,-1
 589 0 l 1,64,-1
 39 0 l 1,0,-1
EndSplineSet
EndChar

StartChar: uni0417
Encoding: 1047 1047 584
Width: 1221
GlyphClass: 2
Flags: W
AnchorPoint: "Anchor-2" 600 0 basechar 0
AnchorPoint: "Anchor-0" 830 1364 basechar 0
LayerCount: 2
Fore
SplineSet
588 -21 m 0,0,1
 442 -21 442 -21 327.5 27 c 0,2,3
 213 74 213 74 157 168 c 0,4,5
 119 231 119 231 119 314 c 0,6,7
 119 354 119 354 128 398 c 1,8,-1
 131 404 l 1,9,-1
 415 404 l 1,10,11
 412 387 412 387 412 370 c 0,12,13
 412 333 412 333 428 302 c 0,14,15
 450 256 450 256 502.5 229.5 c 128,-1,16
 555 203 555 203 632 203 c 0,17,18
 748 203 748 203 832 262.5 c 128,-1,19
 916 322 916 322 935 430 c 0,20,21
 939 453 939 453 939 474 c 0,22,23
 939 538 939 538 899 579 c 0,24,25
 846 633 846 633 720 633 c 2,26,-1
 543 633 l 1,27,-1
 581 852 l 1,28,-1
 758 852 l 2,29,30
 875 852 875 852 940.5 904.5 c 128,-1,31
 1006 957 1006 957 1021 1045 c 0,32,33
 1025 1067 1025 1067 1025 1087 c 0,34,35
 1024 1152 1024 1152 982 1196 c 0,36,37
 926 1252 926 1252 796 1252 c 0,38,39
 707 1252 707 1252 637 1226.5 c 128,-1,40
 567 1201 567 1201 520 1159 c 1,41,-1
 458 978 l 1,42,-1
 241 978 l 1,43,-1
 290 1253 l 1,44,45
 393 1354 393 1354 540 1415.5 c 128,-1,46
 687 1477 687 1477 856 1477 c 0,47,48
 1102 1478 1102 1478 1226 1372 c 0,49,50
 1325 1288 1325 1288 1326 1154 c 0,51,52
 1326 1120 1326 1120 1319 1082 c 0,53,54
 1299 966 1299 966 1223.5 880 c 128,-1,55
 1148 794 1148 794 1035 748 c 1,56,57
 1147 704 1147 704 1196 618 c 0,58,59
 1230 558 1230 558 1230 481 c 0,60,61
 1230 446 1230 446 1223 407 c 0,62,63
 1200 274 1200 274 1112 178 c 128,-1,64
 1024 82 1024 82 889 30.5 c 128,-1,65
 754 -21 754 -21 588 -21 c 0,0,1
EndSplineSet
EndChar

StartChar: uni0418
Encoding: 1048 1048 585
Width: 1605
GlyphClass: 2
Flags: W
AnchorPoint: "Anchor-0" 1054 1364 basechar 0
LayerCount: 2
Fore
SplineSet
69 0 m 1,0,-1
 100 175 l 1,1,-1
 261 205 l 1,2,-1
 445 1250 l 1,3,-1
 295 1280 l 1,4,-1
 326 1456 l 1,5,-1
 482 1456 l 1,6,-1
 773 1456 l 1,7,-1
 929 1456 l 1,8,-1
 898 1280 l 1,9,-1
 736 1250 l 1,10,-1
 618 576 l 1,11,-1
 623 574 l 1,12,-1
 1315 1169 l 1,13,-1
 1329 1250 l 1,14,-1
 1180 1280 l 1,15,-1
 1211 1456 l 1,16,-1
 1366 1456 l 1,17,-1
 1659 1456 l 1,18,-1
 1814 1456 l 1,19,-1
 1783 1280 l 1,20,-1
 1622 1250 l 1,21,-1
 1438 205 l 1,22,-1
 1588 175 l 1,23,-1
 1557 0 l 1,24,-1
 954 0 l 1,25,-1
 985 175 l 1,26,-1
 1145 205 l 1,27,-1
 1261 863 l 1,28,-1
 1256 865 l 1,29,-1
 563 269 l 1,30,-1
 552 205 l 1,31,-1
 703 175 l 1,32,-1
 672 0 l 1,33,-1
 69 0 l 1,0,-1
EndSplineSet
EndChar

StartChar: uni041A
Encoding: 1050 1050 589
Width: 1464
GlyphClass: 2
Flags: W
AnchorPoint: "Anchor-4" 567 1096 basechar 0
AnchorPoint: "Anchor-0" 973 1364 basechar 0
LayerCount: 2
Fore
SplineSet
56 0 m 1,0,-1
 87 175 l 1,1,-1
 247 205 l 1,2,-1
 431 1250 l 1,3,-1
 282 1280 l 1,4,-1
 313 1456 l 1,5,-1
 908 1456 l 1,6,-1
 877 1280 l 1,7,-1
 723 1250 l 1,8,-1
 655 861 l 1,9,-1
 786 861 l 1,10,-1
 1128 1254 l 2,11,12
 1237 1376 1237 1376 1319 1423 c 128,-1,13
 1401 1470 1401 1470 1492 1470 c 0,14,15
 1548 1470 1548 1470 1590 1456 c 128,-1,16
 1632 1442 1632 1442 1665 1419 c 1,17,-1
 1578 1200 l 1,18,19
 1558 1205 1558 1205 1541 1208.5 c 128,-1,20
 1524 1212 1524 1212 1507 1212 c 0,21,22
 1464 1212 1464 1212 1418 1186 c 128,-1,23
 1372 1160 1372 1160 1304 1089 c 2,24,-1
 1021 777 l 1,25,-1
 1322 200 l 1,26,-1
 1471 175 l 1,27,-1
 1440 0 l 1,28,-1
 863 0 l 1,29,-1
 894 175 l 1,30,-1
 979 187 l 1,31,-1
 978 190 l 1,32,-1
 779 596 l 1,33,-1
 608 596 l 1,34,-1
 539 205 l 1,35,-1
 682 175 l 1,36,-1
 651 0 l 1,37,-1
 56 0 l 1,0,-1
EndSplineSet
EndChar

StartChar: uni041B
Encoding: 1051 1051 591
Width: 1526
GlyphClass: 2
Flags: W
LayerCount: 2
Fore
SplineSet
48 0 m 1,0,-1
 87 224 l 1,1,-1
 126 224 l 1,2,3
 195 229 195 229 245 259 c 128,-1,4
 295 289 295 289 331.5 352.5 c 128,-1,5
 368 416 368 416 398.5 523.5 c 128,-1,6
 429 631 429 631 459 793 c 2,7,-1
 544 1250 l 1,8,-1
 397 1280 l 1,9,-1
 428 1456 l 1,10,-1
 1729 1456 l 1,11,-1
 1698 1280 l 1,12,-1
 1536 1250 l 1,13,-1
 1352 205 l 1,14,-1
 1503 175 l 1,15,-1
 1472 0 l 1,16,-1
 869 0 l 1,17,-1
 900 175 l 1,18,-1
 1061 205 l 1,19,-1
 1242 1231 l 1,20,-1
 832 1231 l 1,21,-1
 751 793 l 2,22,23
 712 581 712 581 654.5 430 c 128,-1,24
 597 279 597 279 520 184 c 128,-1,25
 443 89 443 89 344 44.5 c 128,-1,26
 245 0 245 0 120 0 c 2,27,-1
 48 0 l 1,0,-1
EndSplineSet
EndChar

StartChar: uni0423
Encoding: 1059 1059 599
Width: 1407
GlyphClass: 2
Flags: W
AnchorPoint: "Anchor-0" 964 1364 basechar 0
LayerCount: 2
Fore
SplineSet
429 -21 m 0,0,1
 404 -21 404 -21 373 -19 c 128,-1,2
 342 -17 342 -17 326 -16 c 1,3,-1
 364 207 l 1,4,5
 375 205 375 205 401.5 204 c 128,-1,6
 428 203 428 203 442 203 c 0,7,8
 521 203 521 203 567 238 c 128,-1,9
 613 273 613 273 652 344 c 2,10,-1
 683 399 l 1,11,-1
 417 1259 l 1,12,-1
 266 1280 l 1,13,-1
 297 1456 l 1,14,-1
 869 1456 l 1,15,-1
 838 1280 l 1,16,-1
 727 1263 l 1,17,-1
 848 821 l 1,18,-1
 867 731 l 1,19,-1
 873 731 l 1,20,-1
 1164 1260 l 1,21,-1
 1067 1280 l 1,22,-1
 1098 1456 l 1,23,-1
 1643 1456 l 1,24,-1
 1612 1280 l 1,25,-1
 1466 1261 l 1,26,-1
 878 276 l 2,27,28
 819 181 819 181 756 114.5 c 128,-1,29
 693 48 693 48 614.5 13.5 c 128,-1,30
 536 -21 536 -21 429 -21 c 0,0,1
EndSplineSet
EndChar

StartChar: uni0424
Encoding: 1060 1060 601
Width: 1644
GlyphClass: 1
Flags: W
LayerCount: 2
Fore
SplineSet
514 -86 m 1,0,-1
 542 76 l 1,1,-1
 704 106 l 1,2,-1
 719 192 l 1,3,-1
 703 192 l 2,4,5
 525 192 525 192 399.5 257.5 c 0,6,7
 274 324 274 324 218 442 c 0,8,9
 180 521 180 521 180 618 c 0,10,11
 180 666 180 666 189 719 c 0,12,13
 218 882 218 882 317.5 1004 c 128,-1,14
 417 1126 417 1126 565.5 1194 c 128,-1,15
 714 1262 714 1262 892 1262 c 2,16,-1
 908 1262 l 1,17,-1
 923 1350 l 1,18,-1
 772 1380 l 1,19,-1
 801 1542 l 1,20,-1
 1404 1542 l 1,21,-1
 1375 1380 l 1,22,-1
 1214 1350 l 1,23,-1
 1199 1262 l 1,24,-1
 1211 1262 l 2,25,26
 1389 1262 1389 1262 1514 1194.5 c 0,27,28
 1640 1128 1640 1128 1696 1006 c 0,29,30
 1733 926 1733 926 1733 827 c 0,31,32
 1733 776 1733 776 1723 721 c 0,33,34
 1695 562 1695 562 1596 443 c 128,-1,35
 1497 324 1497 324 1348 258 c 128,-1,36
 1199 192 1199 192 1022 192 c 2,37,-1
 1010 192 l 1,38,-1
 995 106 l 1,39,-1
 1145 76 l 1,40,-1
 1117 -86 l 1,41,-1
 514 -86 l 1,0,-1
738 393 m 2,42,-1
 754 393 l 1,43,-1
 872 1059 l 1,44,-1
 856 1059 l 2,45,46
 758 1059 758 1059 679 1019 c 128,-1,47
 600 979 600 979 547 903.5 c 128,-1,48
 494 828 494 828 475 719 c 0,49,50
 467 676 467 676 467 638 c 0,51,52
 467 584 467 584 483 542 c 0,53,54
 510 470 510 470 575 431.5 c 128,-1,55
 640 393 640 393 738 393 c 2,42,-1
1045 393 m 1,56,-1
 1059 393 l 2,57,58
 1156 393 1156 393 1235 431.5 c 128,-1,59
 1314 470 1314 470 1366.5 543.5 c 128,-1,60
 1419 617 1419 617 1437 721 c 0,61,62
 1445 767 1445 767 1445 808 c 0,63,64
 1445 862 1445 862 1430 906 c 0,65,66
 1404 982 1404 982 1339 1021.5 c 128,-1,67
 1274 1061 1274 1061 1177 1061 c 1,68,-1
 1163 1059 l 1,69,-1
 1045 393 l 1,56,-1
EndSplineSet
EndChar

StartChar: uni0427
Encoding: 1063 1063 603
Width: 1553
GlyphClass: 2
Flags: W
AnchorPoint: "Anchor-0" 1018 1364 basechar 0
LayerCount: 2
Fore
SplineSet
901 0 m 1,0,-1
 932 175 l 1,1,-1
 1092 205 l 1,2,-1
 1155 561 l 1,3,4
 1082 545 1082 545 1010.5 536.5 c 128,-1,5
 939 528 939 528 854 528 c 0,6,7
 586 528 586 528 460 644 c 0,8,9
 366 730 366 730 366 888 c 0,10,11
 366 942 366 942 377 1003 c 2,12,-1
 420 1250 l 1,13,-1
 270 1280 l 1,14,-1
 301 1456 l 1,15,-1
 904 1456 l 1,16,-1
 873 1280 l 1,17,-1
 711 1250 l 1,18,-1
 668 1003 l 2,19,20
 660 958 660 958 660 922 c 0,21,22
 660 844 660 844 698 807 c 0,23,24
 752 753 752 753 894 753 c 0,25,26
 966 753 966 753 1044 761.5 c 128,-1,27
 1122 770 1122 770 1195 786 c 1,28,-1
 1276 1250 l 1,29,-1
 1127 1280 l 1,30,-1
 1158 1456 l 1,31,-1
 1761 1456 l 1,32,-1
 1730 1280 l 1,33,-1
 1568 1250 l 1,34,-1
 1384 205 l 1,35,-1
 1535 175 l 1,36,-1
 1504 0 l 1,37,-1
 901 0 l 1,0,-1
EndSplineSet
EndChar

StartChar: uni0426
Encoding: 1062 1062 604
Width: 1634
GlyphClass: 1
Flags: W
LayerCount: 2
Fore
SplineSet
1254 -351 m 1,0,-1
 1316 0 l 1,1,-1
 65 0 l 1,2,-1
 96 175 l 1,3,-1
 256 205 l 1,4,-1
 440 1250 l 1,5,-1
 291 1280 l 1,6,-1
 322 1456 l 1,7,-1
 924 1456 l 1,8,-1
 893 1280 l 1,9,-1
 732 1250 l 1,10,-1
 551 224 l 1,11,-1
 1144 224 l 1,12,-1
 1325 1250 l 1,13,-1
 1176 1280 l 1,14,-1
 1207 1456 l 1,15,-1
 1810 1456 l 1,16,-1
 1779 1280 l 1,17,-1
 1618 1250 l 1,18,-1
 1437 223 l 1,19,-1
 1641 223 l 1,20,-1
 1530 -351 l 1,21,-1
 1254 -351 l 1,0,-1
EndSplineSet
EndChar

StartChar: uni0428
Encoding: 1064 1064 605
Width: 2114
GlyphClass: 1
Flags: W
LayerCount: 2
Fore
SplineSet
69 0 m 1,0,-1
 100 175 l 1,1,-1
 261 205 l 1,2,-1
 445 1250 l 1,3,-1
 295 1280 l 1,4,-1
 326 1456 l 1,5,-1
 774 1456 l 1,6,-1
 929 1456 l 1,7,-1
 898 1280 l 1,8,-1
 737 1250 l 1,9,-1
 556 224 l 1,10,-1
 968 224 l 1,11,-1
 1149 1250 l 1,12,-1
 999 1280 l 1,13,-1
 1030 1456 l 1,14,-1
 1632 1456 l 1,15,-1
 1601 1280 l 1,16,-1
 1440 1250 l 1,17,-1
 1259 224 l 1,18,-1
 1667 224 l 1,19,-1
 1848 1250 l 1,20,-1
 1698 1280 l 1,21,-1
 1729 1456 l 1,22,-1
 1885 1456 l 1,23,-1
 2176 1456 l 1,24,-1
 2332 1456 l 1,25,-1
 2301 1280 l 1,26,-1
 2139 1250 l 1,27,-1
 1955 205 l 1,28,-1
 2106 175 l 1,29,-1
 2075 0 l 1,30,-1
 69 0 l 1,0,-1
EndSplineSet
EndChar

StartChar: uni0429
Encoding: 1065 1065 606
Width: 2131
GlyphClass: 1
Flags: W
LayerCount: 2
Fore
SplineSet
1755 -350 m 1,0,-1
 1817 0 l 1,1,-1
 69 0 l 1,2,-1
 100 175 l 1,3,-1
 261 205 l 1,4,-1
 445 1250 l 1,5,-1
 295 1280 l 1,6,-1
 326 1456 l 1,7,-1
 929 1456 l 1,8,-1
 898 1280 l 1,9,-1
 737 1250 l 1,10,-1
 556 224 l 1,11,-1
 968 224 l 1,12,-1
 1149 1250 l 1,13,-1
 999 1280 l 1,14,-1
 1030 1456 l 1,15,-1
 1632 1456 l 1,16,-1
 1601 1280 l 1,17,-1
 1440 1250 l 1,18,-1
 1259 224 l 1,19,-1
 1667 224 l 1,20,-1
 1848 1250 l 1,21,-1
 1698 1280 l 1,22,-1
 1729 1456 l 1,23,-1
 2332 1456 l 1,24,-1
 2301 1280 l 1,25,-1
 2139 1250 l 1,26,-1
 1958 224 l 1,27,-1
 2145 224 l 1,28,-1
 2027 -350 l 1,29,-1
 1755 -350 l 1,0,-1
EndSplineSet
EndChar

StartChar: uni040F
Encoding: 1039 1039 607
Width: 1602
GlyphClass: 1
Flags: W
LayerCount: 2
Fore
SplineSet
612 -360 m 1,0,-1
 675 0 l 1,1,-1
 65 0 l 1,2,-1
 96 175 l 1,3,-1
 256 205 l 1,4,-1
 440 1250 l 1,5,-1
 291 1280 l 1,6,-1
 322 1456 l 1,7,-1
 769 1456 l 1,8,-1
 924 1456 l 1,9,-1
 893 1280 l 1,10,-1
 732 1250 l 1,11,-1
 551 224 l 1,12,-1
 1144 224 l 1,13,-1
 1325 1250 l 1,14,-1
 1176 1280 l 1,15,-1
 1207 1456 l 1,16,-1
 1810 1456 l 1,17,-1
 1779 1280 l 1,18,-1
 1618 1250 l 1,19,-1
 1434 205 l 1,20,-1
 1584 175 l 1,21,-1
 1553 0 l 1,22,-1
 968 0 l 1,23,-1
 905 -360 l 1,24,-1
 612 -360 l 1,0,-1
EndSplineSet
EndChar

StartChar: uni042C
Encoding: 1068 1068 608
Width: 1360
GlyphClass: 2
Flags: W
AnchorPoint: "Anchor-4" 589 1089 basechar 0
LayerCount: 2
Fore
SplineSet
67 0 m 1,0,-1
 98 175 l 1,1,-1
 259 205 l 1,2,-1
 443 1250 l 1,3,-1
 293 1280 l 1,4,-1
 324 1456 l 1,5,-1
 928 1456 l 1,6,-1
 897 1280 l 1,7,-1
 735 1250 l 1,8,-1
 677 917 l 1,9,-1
 927 917 l 2,10,11
 1096 917 1096 917 1208.5 861 c 0,12,13
 1322 806 1322 806 1370 704 c 0,14,15
 1402 636 1402 636 1402 551 c 0,16,17
 1402 509 1402 509 1394 464 c 0,18,19
 1369 325 1369 325 1283.5 220.5 c 128,-1,20
 1198 116 1198 116 1065.5 58 c 128,-1,21
 933 0 933 0 765 0 c 2,22,-1
 67 0 l 1,0,-1
554 224 m 1,23,-1
 804 224 l 2,24,25
 927 224 927 224 1006 293 c 128,-1,26
 1085 362 1085 362 1103 466 c 0,27,28
 1107 491 1107 491 1107 513 c 0,29,30
 1107 581 1107 581 1066 629 c 0,31,32
 1011 692 1011 692 887 692 c 2,33,-1
 637 692 l 1,34,-1
 554 224 l 1,23,-1
EndSplineSet
EndChar

StartChar: uni042A
Encoding: 1066 1066 610
Width: 1799
GlyphClass: 2
Flags: W
AnchorPoint: "Anchor-0" 1080 1364 basechar 0
LayerCount: 2
Fore
SplineSet
503 0 m 1,0,-1
 534 175 l 1,1,-1
 695 205 l 1,2,-1
 876 1231 l 1,3,-1
 506 1231 l 1,4,-1
 470 1088 l 1,5,-1
 247 1088 l 1,6,-1
 312 1456 l 1,7,-1
 1363 1456 l 1,8,-1
 1332 1280 l 1,9,-1
 1171 1250 l 1,10,-1
 1113 917 l 1,11,-1
 1363 917 l 2,12,13
 1532 917 1532 917 1644 861 c 0,14,15
 1756 806 1756 806 1805 704 c 0,16,17
 1838 636 1838 636 1838 551 c 0,18,19
 1838 510 1838 510 1830 464 c 0,20,21
 1805 325 1805 325 1719.5 220.5 c 128,-1,22
 1634 116 1634 116 1501 58 c 128,-1,23
 1368 0 1368 0 1201 0 c 2,24,-1
 503 0 l 1,0,-1
990 224 m 1,25,-1
 1240 224 l 2,26,27
 1362 224 1362 224 1441.5 293 c 128,-1,28
 1521 362 1521 362 1539 466 c 0,29,30
 1543 491 1543 491 1543 513 c 0,31,32
 1543 581 1543 581 1502 629 c 0,33,34
 1447 692 1447 692 1323 692 c 2,35,-1
 1073 692 l 1,36,-1
 990 224 l 1,25,-1
EndSplineSet
EndChar

StartChar: uni0409
Encoding: 1033 1033 611
Width: 2161
GlyphClass: 1
Flags: W
LayerCount: 2
Fore
SplineSet
48 0 m 1,0,-1
 87 224 l 1,1,-1
 127 224 l 2,2,3
 202 224 202 224 257.5 253 c 128,-1,4
 313 282 313 282 354 347.5 c 128,-1,5
 395 413 395 413 426.5 522.5 c 128,-1,6
 458 632 458 632 487 793 c 2,7,-1
 567 1250 l 1,8,-1
 417 1280 l 1,9,-1
 448 1456 l 1,10,-1
 1729 1456 l 1,11,-1
 1698 1280 l 1,12,-1
 1537 1250 l 1,13,-1
 1484 947 l 1,14,-1
 1734 947 l 2,15,16
 1901 947 1901 947 2013 886.5 c 128,-1,17
 2125 826 2125 826 2173 720 c 0,18,19
 2205 649 2205 649 2205 563 c 0,20,21
 2205 520 2205 520 2197 474 c 0,22,23
 2172 334 2172 334 2086 227.5 c 128,-1,24
 2000 121 2000 121 1867 60.5 c 128,-1,25
 1734 0 1734 0 1567 0 c 2,26,-1
 1025 0 l 1,27,-1
 1242 1231 l 1,28,-1
 856 1231 l 1,29,-1
 779 793 l 2,30,31
 742 582 742 582 682 431.5 c 128,-1,32
 622 281 622 281 536.5 185.5 c 128,-1,33
 451 90 451 90 340.5 45 c 128,-1,34
 230 0 230 0 91 0 c 2,35,-1
 48 0 l 1,0,-1
1356 224 m 1,36,-1
 1606 224 l 2,37,38
 1728 224 1728 224 1807.5 296.5 c 128,-1,39
 1887 369 1887 369 1906 474 c 0,40,41
 1910 500 1910 500 1910 525 c 0,42,43
 1910 565 1910 565 1898 600 c 0,44,45
 1878 656 1878 656 1826.5 689 c 128,-1,46
 1775 722 1775 722 1694 722 c 2,47,-1
 1444 722 l 1,48,-1
 1356 224 l 1,36,-1
EndSplineSet
EndChar

StartChar: uni040A
Encoding: 1034 1034 612
Width: 2232
GlyphClass: 1
Flags: W
LayerCount: 2
Fore
SplineSet
56 0 m 1,0,-1
 87 175 l 1,1,-1
 247 205 l 1,2,-1
 431 1250 l 1,3,-1
 282 1280 l 1,4,-1
 313 1456 l 1,5,-1
 915 1456 l 1,6,-1
 884 1280 l 1,7,-1
 723 1250 l 1,8,-1
 651 841 l 1,9,-1
 1243 841 l 1,10,-1
 1315 1250 l 1,11,-1
 1166 1280 l 1,12,-1
 1197 1456 l 1,13,-1
 1352 1456 l 1,14,-1
 1644 1456 l 1,15,-1
 1799 1456 l 1,16,-1
 1768 1280 l 1,17,-1
 1607 1250 l 1,18,-1
 1551 929 l 1,19,-1
 1801 929 l 2,20,21
 1969 929 1969 929 2081 870.5 c 0,22,23
 2194 812 2194 812 2242 708 c 0,24,25
 2274 638 2274 638 2274 553 c 0,26,27
 2274 511 2274 511 2266 466 c 256,28,29
 2242 329 2242 329 2156 224 c 128,-1,30
 2070 119 2070 119 1937 59.5 c 128,-1,31
 1804 0 1804 0 1637 0 c 2,32,-1
 940 0 l 1,33,-1
 971 175 l 1,34,-1
 1131 205 l 1,35,-1
 1204 616 l 1,36,-1
 612 616 l 1,37,-1
 539 205 l 1,38,-1
 689 175 l 1,39,-1
 658 0 l 1,40,-1
 56 0 l 1,0,-1
1427 228 m 1,41,-1
 1677 228 l 2,42,43
 1800 228 1800 228 1878.5 296.5 c 128,-1,44
 1957 365 1957 365 1975 466 c 0,45,46
 1980 491 1980 491 1980 514 c 0,47,48
 1980 553 1980 553 1967 587 c 0,49,50
 1947 641 1947 641 1895 672.5 c 128,-1,51
 1843 704 1843 704 1761 704 c 2,52,-1
 1511 704 l 1,53,-1
 1427 228 l 1,41,-1
EndSplineSet
EndChar

StartChar: uni0404
Encoding: 1028 1028 614
Width: 1300
GlyphClass: 1
Flags: W
LayerCount: 2
Fore
SplineSet
686 -20 m 0,0,1
 487 -20 487 -20 352 72.5 c 0,2,3
 216 164 216 164 160 328 c 0,4,5
 126 427 126 427 126 544 c 0,6,7
 126 620 126 620 141 704 c 2,8,-1
 150 753 l 2,9,10
 187 965 187 965 301 1128.5 c 128,-1,11
 415 1292 415 1292 583 1385 c 128,-1,12
 751 1478 751 1478 951 1478 c 0,13,14
 1115 1478 1115 1478 1239.5 1416.5 c 128,-1,15
 1364 1355 1364 1355 1435 1254 c 1,16,-1
 1384 966 l 1,17,-1
 1167 966 l 1,18,-1
 1172 1160 l 1,19,20
 1137 1203 1137 1203 1076 1228 c 128,-1,21
 1015 1253 1015 1253 931 1253 c 0,22,23
 815 1253 815 1253 722 1202.5 c 128,-1,24
 629 1152 629 1152 564.5 1061.5 c 128,-1,25
 500 971 500 971 468 850 c 1,26,-1
 470 844 l 1,27,-1
 999 844 l 1,28,-1
 959 618 l 1,29,-1
 430 618 l 1,30,-1
 426 612 l 1,31,32
 423 579 423 579 423 548 c 0,33,34
 423 465 423 465 446 398 c 0,35,36
 478 306 478 306 552 255 c 128,-1,37
 626 204 626 204 740 204 c 0,38,39
 820 204 820 204 894 229 c 128,-1,40
 968 254 968 254 1019 297 c 1,41,-1
 1084 491 l 1,42,-1
 1301 491 l 1,43,-1
 1250 203 l 1,44,45
 1144 101 1144 101 997 40.5 c 128,-1,46
 850 -20 850 -20 686 -20 c 0,0,1
EndSplineSet
EndChar

StartChar: uni042D
Encoding: 1069 1069 615
Width: 1268
GlyphClass: 2
Flags: W
AnchorPoint: "Anchor-0" 811 1364 basechar 0
LayerCount: 2
Fore
SplineSet
574 -20 m 0,0,1
 404 -20 404 -20 279 40 c 128,-1,2
 154 100 154 100 83 202 c 1,3,-1
 133 490 l 1,4,-1
 350 490 l 1,5,-1
 346 297 l 1,6,7
 376 254 376 254 443.5 229 c 128,-1,8
 511 204 511 204 599 204 c 0,9,10
 708 204 708 204 795.5 254 c 128,-1,11
 883 304 883 304 945 395 c 128,-1,12
 1007 486 1007 486 1038 609 c 1,13,-1
 1037 614 l 1,14,-1
 528 614 l 1,15,-1
 568 840 l 1,16,-1
 1077 840 l 1,17,-1
 1080 845 l 1,18,19
 1084 882 1084 882 1084 916 c 0,20,21
 1084 996 1084 996 1062 1060 c 0,22,23
 1032 1152 1032 1152 961.5 1202 c 128,-1,24
 891 1252 891 1252 779 1252 c 0,25,26
 688 1252 688 1252 618 1227.5 c 128,-1,27
 548 1203 548 1203 498 1159 c 1,28,-1
 434 966 l 1,29,-1
 217 966 l 1,30,-1
 268 1254 l 1,31,32
 340 1322 340 1322 429 1372 c 128,-1,33
 518 1422 518 1422 621.5 1449.5 c 128,-1,34
 725 1477 725 1477 838 1477 c 0,35,36
 1033 1477 1033 1477 1164 1385 c 0,37,38
 1295 1294 1295 1294 1348 1130 c 0,39,40
 1379 1034 1379 1034 1379 919 c 0,41,42
 1379 840 1379 840 1364 752 c 2,43,-1
 1355 703 l 2,44,45
 1317 490 1317 490 1205.5 327 c 128,-1,46
 1094 164 1094 164 930.5 72 c 128,-1,47
 767 -20 767 -20 574 -20 c 0,0,1
EndSplineSet
EndChar

StartChar: uni040B
Encoding: 1035 1035 619
Width: 1742
GlyphClass: 1
Flags: W
LayerCount: 2
Fore
SplineSet
316 0 m 1,0,-1
 347 175 l 1,1,-1
 508 205 l 1,2,-1
 689 1231 l 1,3,-1
 503 1231 l 1,4,-1
 467 1087 l 1,5,-1
 244 1087 l 1,6,-1
 309 1456 l 1,7,-1
 1522 1456 l 1,8,-1
 1457 1087 l 1,9,-1
 1234 1087 l 1,10,-1
 1247 1231 l 1,11,-1
 981 1231 l 1,12,-1
 924 908 l 1,13,14
 973 917 973 917 1031 922.5 c 128,-1,15
 1089 928 1089 928 1155 928 c 0,16,17
 1422 928 1422 928 1548 811 c 0,18,19
 1642 723 1642 723 1642 565 c 0,20,21
 1642 512 1642 512 1632 452 c 2,22,-1
 1588 206 l 1,23,-1
 1738 176 l 1,24,-1
 1707 0 l 1,25,-1
 1105 0 l 1,26,-1
 1136 176 l 1,27,-1
 1296 206 l 1,28,-1
 1340 452 l 2,29,30
 1348 496 1348 496 1348 532 c 0,31,32
 1348 610 1348 610 1310 648 c 0,33,34
 1256 703 1256 703 1115 703 c 0,35,36
 1059 703 1059 703 998.5 697.5 c 128,-1,37
 938 692 938 692 884 683 c 1,38,-1
 800 205 l 1,39,-1
 950 175 l 1,40,-1
 919 0 l 1,41,-1
 316 0 l 1,0,-1
EndSplineSet
EndChar

StartChar: uni042E
Encoding: 1070 1070 620
Width: 1979
GlyphClass: 2
Flags: W
AnchorPoint: "Anchor-0" 1233 1364 basechar 0
LayerCount: 2
Fore
SplineSet
1256 -22 m 0,0,1
 1081 -22 1081 -22 956.5 55 c 128,-1,2
 832 132 832 132 769 268 c 0,3,4
 713 389 713 389 713 545 c 0,5,6
 713 565 713 565 714 585 c 1,7,-1
 569 585 l 1,8,-1
 502 205 l 1,9,-1
 653 175 l 1,10,-1
 622 0 l 1,11,-1
 19 0 l 1,12,-1
 50 175 l 1,13,-1
 211 205 l 1,14,-1
 395 1250 l 1,15,-1
 245 1280 l 1,16,-1
 276 1456 l 1,17,-1
 879 1456 l 1,18,-1
 848 1280 l 1,19,-1
 686 1250 l 1,20,-1
 609 810 l 1,21,-1
 748 810 l 1,22,23
 796 1005 796 1005 908 1155 c 128,-1,24
 1020 1305 1020 1305 1177 1390.5 c 128,-1,25
 1334 1476 1334 1476 1519 1476 c 0,26,27
 1717 1476 1717 1476 1849 1380 c 0,28,29
 1982 1284 1982 1284 2036 1117 c 0,30,31
 2068 1019 2068 1019 2068 905 c 0,32,33
 2068 826 2068 826 2052 738 c 2,34,-1
 2048 716 l 2,35,36
 2010 503 2010 503 1897.5 336 c 128,-1,37
 1785 169 1785 169 1619.5 73.5 c 128,-1,38
 1454 -22 1454 -22 1256 -22 c 0,0,1
1296 205 m 0,39,40
 1420 205 1420 205 1513.5 269 c 128,-1,41
 1607 333 1607 333 1668.5 448 c 128,-1,42
 1730 563 1730 563 1757 716 c 2,43,-1
 1761 740 l 2,44,45
 1776 823 1776 823 1776 895 c 0,46,47
 1776 954 1776 954 1766 1006 c 0,48,49
 1744 1120 1744 1120 1673 1184 c 128,-1,50
 1602 1248 1602 1248 1479 1248 c 0,51,52
 1357 1248 1357 1248 1264.5 1184.5 c 128,-1,53
 1172 1121 1172 1121 1111.5 1006.5 c 128,-1,54
 1051 892 1051 892 1024 740 c 2,55,-1
 1020 716 l 2,56,57
 1005 629 1005 629 1005 554 c 0,58,59
 1006 497 1006 497 1014 448 c 0,60,61
 1034 333 1034 333 1104.5 269 c 128,-1,62
 1175 205 1175 205 1296 205 c 0,39,40
EndSplineSet
EndChar

StartChar: uni042F
Encoding: 1071 1071 621
Width: 1377
GlyphClass: 2
Flags: W
AnchorPoint: "Anchor-0" 984 1364 basechar 0
LayerCount: 2
Fore
SplineSet
1365 175 m 1,0,-1
 1334 0 l 1,1,-1
 731 0 l 1,2,-1
 762 175 l 1,3,-1
 923 204 l 1,4,-1
 983 547 l 1,5,-1
 791 547 l 1,6,-1
 600 231 l 1,7,8
 526 117 526 117 435.5 54 c 128,-1,9
 345 -9 345 -9 237 -9 c 0,10,11
 186 -9 186 -9 145 3.5 c 128,-1,12
 104 16 104 16 73 40 c 1,13,-1
 150 260 l 1,14,15
 184 248 184 248 217 248 c 0,16,17
 260 248 260 248 299.5 272.5 c 128,-1,18
 339 297 339 297 390 364 c 1,19,-1
 544 601 l 1,20,-1
 547 605 l 1,21,22
 406 662 406 662 348 760 c 0,23,24
 308 827 308 827 308 918 c 0,25,26
 308 961 308 961 317 1009 c 0,27,28
 355 1225 355 1225 517.5 1340.5 c 128,-1,29
 680 1456 680 1456 931 1456 c 2,30,-1
 1591 1456 l 1,31,-1
 1560 1280 l 1,32,-1
 1399 1250 l 1,33,-1
 1215 205 l 1,34,-1
 1365 175 l 1,0,-1
891 1231 m 2,35,36
 770 1231 770 1231 698 1170.5 c 128,-1,37
 626 1110 626 1110 606 997 c 0,38,39
 600 965 600 965 600 938 c 0,40,41
 600 868 600 868 637 822 c 0,42,43
 688 760 688 760 808 760 c 2,44,-1
 1021 760 l 1,45,-1
 1104 1231 l 1,46,-1
 891 1231 l 2,35,36
EndSplineSet
EndChar

StartChar: uni0402
Encoding: 1026 1026 622
Width: 1602
GlyphClass: 1
Flags: W
LayerCount: 2
Fore
SplineSet
1021 -12 m 1,0,-1
 1016 -10 l 1,1,-1
 1051 195 l 1,2,3
 1147 195 1147 195 1206.5 227.5 c 128,-1,4
 1266 260 1266 260 1296.5 313 c 128,-1,5
 1327 366 1327 366 1337 428 c 0,6,7
 1342 457 1342 457 1342 483 c 0,8,9
 1342 556 1342 556 1302 603 c 0,10,11
 1248 666 1248 666 1122 666 c 0,12,13
 1062 666 1062 666 1001 656 c 128,-1,14
 940 646 940 646 880 628 c 1,15,-1
 805 205 l 1,16,-1
 928 175 l 1,17,-1
 897 0 l 1,18,-1
 321 0 l 1,19,-1
 352 175 l 1,20,-1
 512 205 l 1,21,-1
 693 1231 l 1,22,-1
 498 1231 l 1,23,-1
 462 1087 l 1,24,-1
 239 1087 l 1,25,-1
 304 1456 l 1,26,-1
 1547 1456 l 1,27,-1
 1482 1087 l 1,28,-1
 1258 1087 l 1,29,-1
 1271 1231 l 1,30,-1
 986 1231 l 1,31,-1
 919 852 l 1,32,33
 982 871 982 871 1046 882.5 c 128,-1,34
 1110 894 1110 894 1172 894 c 0,35,36
 1420 894 1420 894 1545 778 c 0,37,38
 1640 689 1640 689 1640 540 c 0,39,40
 1640 494 1640 494 1631 441 c 0,41,42
 1608 309 1608 309 1533.5 205.5 c 0,43,44
 1460 102 1460 102 1332 44 c 0,45,46
 1209 -12 1209 -12 1033 -12 c 0,47,48
 1027 -12 1027 -12 1021 -12 c 1,0,-1
EndSplineSet
EndChar

StartChar: uni0460
Encoding: 1120 1120 623
Width: 1884
GlyphClass: 1
Flags: W
LayerCount: 2
Fore
SplineSet
609 -21 m 0,0,1
 463 -21 463 -21 363.5 34 c 128,-1,2
 264 89 264 89 222 194 c 0,3,4
 196 259 196 259 195 342 c 0,5,6
 195 392 195 392 205 449 c 2,7,-1
 383 1456 l 1,8,-1
 676 1456 l 1,9,-1
 498 449 l 2,10,11
 490 406 490 406 490 370 c 0,12,13
 490 304 490 304 517 264 c 0,14,15
 558 203 558 203 649 203 c 0,16,17
 745 203 745 203 809 263.5 c 128,-1,18
 873 324 873 324 895 449 c 2,19,-1
 1073 1456 l 1,20,-1
 1367 1456 l 1,21,-1
 1189 449 l 2,22,23
 1182 407 1182 407 1182 372 c 0,24,25
 1182 304 1182 304 1210 264 c 0,26,27
 1253 203 1253 203 1346 203 c 0,28,29
 1440 203 1440 203 1502.5 263.5 c 128,-1,30
 1565 324 1565 324 1587 449 c 2,31,-1
 1765 1456 l 1,32,-1
 2057 1456 l 1,33,-1
 1879 449 l 2,34,35
 1852 298 1852 298 1772.5 193 c 128,-1,36
 1693 88 1693 88 1573 33.5 c 128,-1,37
 1453 -21 1453 -21 1306 -21 c 0,38,39
 1195 -21 1195 -21 1112.5 19 c 128,-1,40
 1030 59 1030 59 987 137 c 1,41,42
 914 59 914 59 816.5 19 c 128,-1,43
 719 -21 719 -21 609 -21 c 0,0,1
EndSplineSet
EndChar

StartChar: uni0464
Encoding: 1124 1124 625
Width: 1912
GlyphClass: 1
Flags: W
LayerCount: 2
Fore
SplineSet
1307 -20 m 0,0,1
 1122 -20 1122 -20 991 64.5 c 0,2,3
 860 148 860 148 798 298 c 0,4,5
 753 408 753 408 753 544 c 0,6,7
 753 592 753 592 759 644 c 0,8,9
 759 646 759 646 759 647.5 c 128,-1,10
 759 649 759 649 760 651 c 1,11,-1
 618 651 l 1,12,-1
 539 205 l 1,13,-1
 690 175 l 1,14,-1
 659 0 l 1,15,-1
 56 0 l 1,16,-1
 87 175 l 1,17,-1
 248 205 l 1,18,-1
 432 1250 l 1,19,-1
 282 1280 l 1,20,-1
 313 1456 l 1,21,-1
 469 1456 l 1,22,-1
 760 1456 l 1,23,-1
 916 1456 l 1,24,-1
 885 1280 l 1,25,-1
 723 1250 l 1,26,-1
 651 838 l 1,27,-1
 796 838 l 1,28,29
 847 1028 847 1028 960 1172 c 128,-1,30
 1073 1316 1073 1316 1231.5 1397 c 128,-1,31
 1390 1478 1390 1478 1572 1478 c 0,32,33
 1741 1478 1741 1478 1866 1416.5 c 128,-1,34
 1991 1355 1991 1355 2062 1254 c 1,35,-1
 2011 966 l 1,36,-1
 1794 966 l 1,37,-1
 1799 1160 l 1,38,39
 1764 1203 1764 1203 1703 1228 c 128,-1,40
 1642 1253 1642 1253 1552 1253 c 0,41,42
 1438 1253 1438 1253 1346 1202 c 128,-1,43
 1254 1151 1254 1151 1189.5 1059 c 128,-1,44
 1125 967 1125 967 1094 844 c 1,45,-1
 1096 838 l 1,46,-1
 1586 838 l 1,47,-1
 1553 651 l 1,48,-1
 1060 651 l 1,49,-1
 1057 646 l 1,50,51
 1050 596 1050 596 1050 551 c 0,52,53
 1050 476 1050 476 1068 414 c 0,54,55
 1098 314 1098 314 1172 259 c 128,-1,56
 1246 204 1246 204 1362 204 c 0,57,58
 1448 204 1448 204 1524 229.5 c 128,-1,59
 1600 255 1600 255 1646 297 c 1,60,-1
 1711 491 l 1,61,-1
 1928 491 l 1,62,-1
 1877 203 l 1,63,64
 1772 101 1772 101 1624 40.5 c 128,-1,65
 1476 -20 1476 -20 1307 -20 c 0,0,1
EndSplineSet
EndChar

StartChar: uni0466
Encoding: 1126 1126 626
Width: 1493
GlyphClass: 1
Flags: W
LayerCount: 2
Fore
SplineSet
52 0 m 1,0,-1
 83 175 l 1,1,-1
 198 190 l 1,2,-1
 868 1456 l 1,3,-1
 1168 1456 l 1,4,-1
 1389 190 l 1,5,-1
 1498 175 l 1,6,-1
 1467 0 l 1,7,-1
 961 0 l 1,8,-1
 992 175 l 1,9,-1
 1086 192 l 1,10,-1
 1046 455 l 1,11,-1
 959 455 l 1,12,-1
 879 0 l 1,13,-1
 634 0 l 1,14,-1
 714 455 l 1,15,-1
 632 455 l 1,16,-1
 500 192 l 1,17,-1
 589 175 l 1,18,-1
 558 0 l 1,19,-1
 52 0 l 1,0,-1
735 656 m 1,20,-1
 1015 656 l 1,21,-1
 956 1039 l 1,22,-1
 951 1071 l 1,23,-1
 945 1071 l 1,24,-1
 928 1038 l 1,25,-1
 735 656 l 1,20,-1
EndSplineSet
EndChar

StartChar: uni0468
Encoding: 1128 1128 627
Width: 2098
GlyphClass: 1
Flags: W
LayerCount: 2
Fore
SplineSet
21 0 m 1,0,-1
 52 175 l 1,1,-1
 213 205 l 1,2,-1
 397 1250 l 1,3,-1
 247 1280 l 1,4,-1
 278 1456 l 1,5,-1
 434 1456 l 1,6,-1
 725 1456 l 1,7,-1
 881 1456 l 1,8,-1
 850 1280 l 1,9,-1
 688 1250 l 1,10,-1
 584 657 l 1,11,-1
 1063 657 l 1,12,-1
 1487 1456 l 1,13,-1
 1787 1456 l 1,14,-1
 2008 190 l 1,15,-1
 2116 175 l 1,16,-1
 2085 0 l 1,17,-1
 1579 0 l 1,18,-1
 1610 175 l 1,19,-1
 1704 192 l 1,20,-1
 1664 455 l 1,21,-1
 1578 455 l 1,22,-1
 1498 0 l 1,23,-1
 1253 0 l 1,24,-1
 1333 455 l 1,25,-1
 1250 455 l 1,26,-1
 1119 192 l 1,27,-1
 1208 175 l 1,28,-1
 1177 0 l 1,29,-1
 670 0 l 1,30,-1
 701 175 l 1,31,-1
 816 190 l 1,32,-1
 955 454 l 1,33,-1
 548 454 l 1,34,-1
 504 205 l 1,35,-1
 655 175 l 1,36,-1
 624 0 l 1,37,-1
 21 0 l 1,0,-1
1353 656 m 1,38,-1
 1633 656 l 1,39,-1
 1575 1033 l 1,40,-1
 1569 1071 l 1,41,-1
 1563 1071 l 1,42,-1
 1542 1028 l 1,43,-1
 1353 656 l 1,38,-1
EndSplineSet
EndChar

StartChar: uni046A
Encoding: 1130 1130 628
Width: 1931
GlyphClass: 1
Flags: W
LayerCount: 2
Fore
SplineSet
58 0 m 1,0,-1
 89 175 l 1,1,-1
 235 205 l 1,2,-1
 260 344 l 2,3,4
 302 582 302 582 450 690.5 c 128,-1,5
 598 799 598 799 851 805 c 0,6,7
 855 805 855 805 860.5 805 c 128,-1,8
 866 805 866 805 870 805 c 1,9,-1
 689 1257 l 1,10,-1
 519 1280 l 1,11,-1
 550 1456 l 1,12,-1
 1953 1456 l 1,13,-1
 1922 1280 l 1,14,-1
 1743 1257 l 1,15,-1
 1403 804 l 1,16,17
 1408 804 1408 804 1413 804 c 128,-1,18
 1418 804 1418 804 1426 804 c 0,19,20
 1655 792 1655 792 1756 683 c 0,21,22
 1828 605 1828 605 1828 465 c 0,23,24
 1828 409 1828 409 1817 344 c 2,25,-1
 1792 205 l 1,26,-1
 1928 175 l 1,27,-1
 1897 0 l 1,28,-1
 1339 0 l 1,29,-1
 1370 175 l 1,30,-1
 1501 205 l 1,31,-1
 1526 344 l 2,32,33
 1533 386 1533 386 1533 420 c 0,34,35
 1532 492 1532 492 1500 526 c 0,36,37
 1452 576 1452 576 1323 577 c 2,38,-1
 1244 577 l 1,39,-1
 1226 569 l 1,40,-1
 1162 205 l 1,41,-1
 1283 175 l 1,42,-1
 1252 0 l 1,43,-1
 709 0 l 1,44,-1
 740 175 l 1,45,-1
 871 205 l 1,46,-1
 935 567 l 1,47,-1
 920 577 l 1,48,-1
 836 577 l 2,49,50
 707 577 707 577 640.5 526.5 c 128,-1,51
 574 476 574 476 551 344 c 2,52,-1
 526 205 l 1,53,-1
 647 175 l 1,54,-1
 616 0 l 1,55,-1
 58 0 l 1,0,-1
1139 844 m 1,56,-1
 1145 844 l 1,57,-1
 1167 877 l 1,58,-1
 1413 1228 l 1,59,-1
 1010 1228 l 1,60,-1
 1129 875 l 1,61,-1
 1139 844 l 1,56,-1
EndSplineSet
EndChar

StartChar: uni046C
Encoding: 1132 1132 629
Width: 2550
GlyphClass: 1
Flags: W
LayerCount: 2
Fore
SplineSet
40 0 m 1,0,-1
 71 175 l 1,1,-1
 232 205 l 1,2,-1
 416 1250 l 1,3,-1
 266 1280 l 1,4,-1
 297 1456 l 1,5,-1
 900 1456 l 1,6,-1
 869 1280 l 1,7,-1
 707 1250 l 1,8,-1
 629 806 l 1,9,-1
 1631 806 l 1,10,-1
 1591 578 l 1,11,-1
 589 578 l 1,12,-1
 523 205 l 1,13,-1
 674 175 l 1,14,-1
 643 0 l 1,15,-1
 40 0 l 1,0,-1
681 0 m 1,16,-1
 712 175 l 1,17,-1
 858 205 l 1,18,-1
 883 344 l 2,19,20
 925 582 925 582 1073 690.5 c 128,-1,21
 1221 799 1221 799 1474 805 c 0,22,23
 1479 805 1479 805 1484 805 c 128,-1,24
 1489 805 1489 805 1493 805 c 1,25,-1
 1312 1257 l 1,26,-1
 1143 1280 l 1,27,-1
 1174 1456 l 1,28,-1
 2577 1456 l 1,29,-1
 2546 1280 l 1,30,-1
 2367 1257 l 1,31,-1
 2026 804 l 1,32,33
 2031 804 2031 804 2036 804 c 128,-1,34
 2041 804 2041 804 2050 804 c 0,35,36
 2278 792 2278 792 2379 683 c 0,37,38
 2451 605 2451 605 2451 465 c 0,39,40
 2451 409 2451 409 2440 344 c 2,41,-1
 2415 205 l 1,42,-1
 2551 175 l 1,43,-1
 2520 0 l 1,44,-1
 1962 0 l 1,45,-1
 1993 175 l 1,46,-1
 2124 205 l 1,47,-1
 2149 344 l 2,48,49
 2156 386 2156 386 2156 420 c 0,50,51
 2156 492 2156 492 2124 526 c 0,52,53
 2076 576 2076 576 1947 577 c 2,54,-1
 1868 577 l 1,55,-1
 1849 569 l 1,56,-1
 1785 205 l 1,57,-1
 1906 175 l 1,58,-1
 1875 0 l 1,59,-1
 1333 0 l 1,60,-1
 1364 175 l 1,61,-1
 1494 205 l 1,62,-1
 1558 567 l 1,63,-1
 1543 577 l 1,64,-1
 1459 577 l 2,65,66
 1330 577 1330 577 1264 526.5 c 128,-1,67
 1198 476 1198 476 1175 344 c 2,68,-1
 1150 205 l 1,69,-1
 1271 175 l 1,70,-1
 1240 0 l 1,71,-1
 681 0 l 1,16,-1
1762 844 m 1,72,-1
 1769 844 l 1,73,-1
 1791 877 l 1,74,-1
 2036 1228 l 1,75,-1
 1633 1228 l 1,76,-1
 1752 875 l 1,77,-1
 1762 844 l 1,72,-1
EndSplineSet
EndChar

StartChar: uni046E
Encoding: 1134 1134 630
Width: 1130
GlyphClass: 1
Flags: W
LayerCount: 2
Fore
SplineSet
369 -448 m 1,0,1
 267 -424 267 -424 203 -373.5 c 0,2,3
 138 -322 138 -322 114 -250 c 0,4,5
 98 -204 98 -204 99 -152 c 0,6,7
 99 -122 99 -122 104 -89 c 0,8,9
 131 62 131 62 238 136.5 c 128,-1,10
 345 211 345 211 514 211 c 2,11,-1
 577 211 l 2,12,13
 683 211 683 211 755 266 c 128,-1,14
 827 321 827 321 843 415 c 0,15,16
 847 438 847 438 847 459 c 0,17,18
 846 530 846 530 800 572 c 0,19,20
 740 626 740 626 605 626 c 2,21,-1
 470 626 l 1,22,-1
 511 859 l 1,23,-1
 654 859 l 2,24,25
 767 859 767 859 830.5 911 c 128,-1,26
 894 963 894 963 909 1051 c 0,27,28
 912 1071 912 1071 912 1089 c 0,29,30
 912 1146 912 1146 880 1187 c 0,31,32
 836 1241 836 1241 722 1241 c 0,33,34
 660 1241 660 1241 601.5 1226 c 128,-1,35
 543 1211 543 1211 499 1185 c 1,36,-1
 447 1024 l 1,37,-1
 233 1024 l 1,38,-1
 279 1286 l 1,39,40
 370 1372 370 1372 495 1419 c 128,-1,41
 620 1466 620 1466 775 1466 c 0,42,43
 928 1466 928 1466 1032.5 1421 c 128,-1,44
 1137 1376 1137 1376 1183 1289 c 0,45,46
 1214 1230 1214 1230 1214 1153 c 0,47,48
 1214 1116 1214 1116 1207 1075 c 0,49,50
 1186 957 1186 957 1111 873.5 c 128,-1,51
 1036 790 1036 790 918 745 c 1,52,53
 1052 700 1052 700 1104 616 c 0,54,55
 1141 557 1141 557 1140 478 c 0,56,57
 1140 443 1140 443 1133 405 c 0,58,59
 1110 272 1110 272 1030 176.5 c 128,-1,60
 950 81 950 81 827.5 30 c 128,-1,61
 705 -21 705 -21 552 -21 c 2,62,-1
 496 -21 l 2,63,64
 437 -21 437 -21 404.5 -49 c 128,-1,65
 372 -77 372 -77 365 -120 c 0,66,67
 363 -133 363 -133 363 -145 c 0,68,69
 363 -169 363 -169 372 -188 c 0,70,71
 386 -217 386 -217 415 -238.5 c 128,-1,72
 444 -260 444 -260 481 -277 c 1,73,-1
 369 -448 l 1,0,1
693 1572 m 1,74,-1
 484 1819 l 1,75,-1
 488 1842 l 1,76,-1
 716 1842 l 1,77,-1
 823 1697 l 1,78,-1
 986 1842 l 1,79,-1
 1211 1842 l 1,80,-1
 1206 1816 l 1,81,-1
 908 1572 l 1,82,-1
 693 1572 l 1,74,-1
EndSplineSet
EndChar

StartChar: uni0472
Encoding: 1138 1138 632
Width: 1400
GlyphClass: 1
Flags: W
LayerCount: 2
Fore
SplineSet
726 -21 m 0,0,1
 530 -21 530 -21 398.5 74.5 c 128,-1,2
 267 170 267 170 214 337 c 0,3,4
 183 435 183 435 183 550 c 0,5,6
 183 630 183 630 198 717 c 2,7,-1
 202 739 l 2,8,9
 239 951 239 951 351.5 1118 c 128,-1,10
 464 1285 464 1285 628 1381 c 128,-1,11
 792 1477 792 1477 989 1477 c 0,12,13
 1187 1477 1187 1477 1319.5 1381 c 128,-1,14
 1452 1285 1452 1285 1506 1118 c 0,15,16
 1538 1020 1538 1020 1538 906 c 0,17,18
 1538 826 1538 826 1522 739 c 2,19,-1
 1518 717 l 2,20,21
 1480 504 1480 504 1367.5 337 c 128,-1,22
 1255 170 1255 170 1089.5 74.5 c 128,-1,23
 924 -21 924 -21 726 -21 c 0,0,1
766 206 m 0,24,25
 878 206 878 206 965.5 259.5 c 128,-1,26
 1053 313 1053 313 1114 409.5 c 128,-1,27
 1175 506 1175 506 1205 635 c 1,28,-1
 1204 640 l 1,29,-1
 487 640 l 1,30,-1
 484 635 l 1,31,32
 478 585 478 585 478 540 c 0,33,34
 478 468 478 468 494 410 c 0,35,36
 520 314 520 314 587.5 260 c 128,-1,37
 655 206 655 206 766 206 c 0,24,25
519 820 m 1,38,-1
 1236 820 l 1,39,-1
 1238 825 l 1,40,41
 1243 869 1243 869 1243 909 c 0,42,43
 1244 986 1244 986 1226 1048 c 0,44,45
 1200 1144 1200 1144 1130 1196.5 c 128,-1,46
 1060 1249 1060 1249 949 1249 c 256,47,48
 838 1249 838 1249 752 1196 c 128,-1,49
 666 1143 666 1143 606.5 1048 c 128,-1,50
 547 953 547 953 517 825 c 1,51,-1
 519 820 l 1,38,-1
EndSplineSet
EndChar

StartChar: uni0474
Encoding: 1140 1140 633
Width: 1410
GlyphClass: 2
Flags: W
AnchorPoint: "Anchor-0" 990 1364 basechar 0
LayerCount: 2
Fore
SplineSet
588 0 m 1,0,-1
 387 1263 l 1,1,-1
 265 1280 l 1,2,-1
 296 1456 l 1,3,-1
 821 1456 l 1,4,-1
 790 1280 l 1,5,-1
 686 1261 l 1,6,-1
 786 395 l 1,7,-1
 789 314 l 1,8,-1
 795 314 l 1,9,-1
 826 392 l 1,10,-1
 1168 1135 l 2,11,12
 1251 1306 1251 1306 1349 1392 c 0,13,14
 1444 1475 1444 1475 1582 1475 c 0,15,16
 1587 1475 1587 1475 1592 1475 c 2,17,-1
 1632 1474 l 1,18,-1
 1588 1238 l 1,19,-1
 1560 1238 l 2,20,21
 1529 1238 1529 1238 1505 1226 c 128,-1,22
 1481 1214 1481 1214 1461 1187.5 c 128,-1,23
 1441 1161 1441 1161 1420 1118 c 2,24,-1
 887 0 l 1,25,-1
 588 0 l 1,0,-1
EndSplineSet
EndChar

StartChar: uni049C
Encoding: 1180 1180 639
Width: 1543
GlyphClass: 1
Flags: W
LayerCount: 2
Fore
SplineSet
67 0 m 1,0,-1
 98 175 l 1,1,-1
 259 205 l 1,2,-1
 443 1250 l 1,3,-1
 293 1280 l 1,4,-1
 324 1456 l 1,5,-1
 913 1456 l 1,6,-1
 882 1280 l 1,7,-1
 735 1250 l 1,8,-1
 667 861 l 1,9,-1
 950 861 l 1,10,-1
 1224 1254 l 1,11,12
 1314 1375 1314 1375 1392.5 1422.5 c 128,-1,13
 1471 1470 1471 1470 1574 1470 c 0,14,15
 1633 1470 1633 1470 1673.5 1456 c 128,-1,16
 1714 1442 1714 1442 1746 1419 c 1,17,-1
 1659 1200 l 1,18,19
 1642 1205 1642 1205 1625 1208.5 c 128,-1,20
 1608 1212 1608 1212 1589 1212 c 0,21,22
 1547 1212 1547 1212 1506 1186.5 c 128,-1,23
 1465 1161 1465 1161 1403 1089 c 1,24,-1
 1182 799 l 1,25,-1
 1396 194 l 1,26,-1
 1519 175 l 1,27,-1
 1488 0 l 1,28,-1
 1093 0 l 1,29,-1
 927 596 l 1,30,-1
 620 596 l 1,31,-1
 551 205 l 1,32,-1
 687 175 l 1,33,-1
 656 0 l 1,34,-1
 67 0 l 1,0,-1
659 374 m 1,35,-1
 789 1112 l 1,36,-1
 956 1112 l 1,37,-1
 826 374 l 1,38,-1
 659 374 l 1,35,-1
EndSplineSet
EndChar

StartChar: uni04A0
Encoding: 1184 1184 641
Width: 1914
GlyphClass: 1
Flags: W
LayerCount: 2
Fore
SplineSet
434 0 m 1,0,-1
 465 175 l 1,1,-1
 625 205 l 1,2,-1
 806 1230 l 1,3,-1
 486 1230 l 1,4,-1
 450 1088 l 1,5,-1
 227 1088 l 1,6,-1
 292 1456 l 1,7,-1
 1286 1456 l 1,8,-1
 1255 1280 l 1,9,-1
 1101 1250 l 1,10,-1
 1033 861 l 1,11,-1
 1164 861 l 1,12,-1
 1506 1254 l 2,13,14
 1615 1376 1615 1376 1693 1423 c 128,-1,15
 1771 1470 1771 1470 1866 1470 c 0,16,17
 1924 1470 1924 1470 1967 1456 c 128,-1,18
 2010 1442 2010 1442 2043 1419 c 1,19,-1
 1956 1200 l 1,20,21
 1933 1207 1933 1207 1916.5 1209.5 c 128,-1,22
 1900 1212 1900 1212 1885 1212 c 0,23,24
 1840 1212 1840 1212 1795 1186 c 128,-1,25
 1750 1160 1750 1160 1682 1089 c 2,26,-1
 1399 777 l 1,27,-1
 1700 200 l 1,28,-1
 1849 175 l 1,29,-1
 1818 0 l 1,30,-1
 1241 0 l 1,31,-1
 1272 175 l 1,32,-1
 1357 187 l 1,33,-1
 1351 200 l 1,34,-1
 1157 596 l 1,35,-1
 986 596 l 1,36,-1
 917 205 l 1,37,-1
 1060 175 l 1,38,-1
 1029 0 l 1,39,-1
 434 0 l 1,0,-1
EndSplineSet
EndChar

StartChar: uni04A4
Encoding: 1188 1188 643
Width: 2060
GlyphClass: 1
Flags: W
LayerCount: 2
Fore
SplineSet
45 0 m 1,0,-1
 76 175 l 1,1,-1
 236 205 l 1,2,-1
 420 1250 l 1,3,-1
 271 1280 l 1,4,-1
 302 1456 l 1,5,-1
 457 1456 l 1,6,-1
 749 1456 l 1,7,-1
 905 1456 l 1,8,-1
 874 1280 l 1,9,-1
 712 1250 l 1,10,-1
 638 830 l 1,11,-1
 1232 830 l 1,12,-1
 1306 1250 l 1,13,-1
 1156 1280 l 1,14,-1
 1187 1456 l 1,15,-1
 2233 1456 l 1,16,-1
 2168 1088 l 1,17,-1
 1944 1088 l 1,18,-1
 1957 1231 l 1,19,-1
 1594 1231 l 1,20,-1
 1413 205 l 1,21,-1
 1564 175 l 1,22,-1
 1533 0 l 1,23,-1
 930 0 l 1,24,-1
 961 175 l 1,25,-1
 1122 205 l 1,26,-1
 1193 605 l 1,27,-1
 599 605 l 1,28,-1
 528 205 l 1,29,-1
 679 175 l 1,30,-1
 648 0 l 1,31,-1
 45 0 l 1,0,-1
EndSplineSet
EndChar

StartChar: uni04A6
Encoding: 1190 1190 644
Width: 2168
GlyphClass: 1
Flags: W
LayerCount: 2
Fore
SplineSet
1504 -331 m 1,0,-1
 1498 -329 l 1,1,-1
 1534 -123 l 1,2,3
 1634 -123 1634 -123 1697.5 -76 c 128,-1,4
 1761 -29 1761 -29 1797.5 52.5 c 128,-1,5
 1834 134 1834 134 1851 235 c 0,6,7
 1861 296 1861 296 1861 347 c 0,8,9
 1862 450 1862 450 1820 512 c 0,10,11
 1758 605 1758 605 1605 605 c 2,12,-1
 1505 605 l 1,13,-1
 1434 205 l 1,14,-1
 1584 175 l 1,15,-1
 1553 0 l 1,16,-1
 951 0 l 1,17,-1
 982 175 l 1,18,-1
 1142 205 l 1,19,-1
 1323 1231 l 1,20,-1
 729 1231 l 1,21,-1
 548 205 l 1,22,-1
 699 175 l 1,23,-1
 668 0 l 1,24,-1
 65 0 l 1,25,-1
 96 175 l 1,26,-1
 256 205 l 1,27,-1
 440 1250 l 1,28,-1
 291 1280 l 1,29,-1
 322 1456 l 1,30,-1
 1810 1456 l 1,31,-1
 1779 1280 l 1,32,-1
 1618 1250 l 1,33,-1
 1545 834 l 1,34,-1
 1645 834 l 2,35,36
 1831 834 1831 834 1954 766.5 c 0,37,38
 2078 698 2078 698 2128 568 c 0,39,40
 2159 489 2159 489 2158 389 c 0,41,42
 2158 323 2158 323 2145 248 c 0,43,44
 2123 124 2123 124 2071.5 17.5 c 128,-1,45
 2020 -89 2020 -89 1940 -168 c 128,-1,46
 1860 -247 1860 -247 1752 -290 c 0,47,48
 1648 -331 1648 -331 1516 -331 c 0,49,50
 1510 -331 1510 -331 1504 -331 c 1,0,-1
EndSplineSet
EndChar

